# MagicaVoxel @ Ephtracy

# group
o 

# material
mtllib plants1_3.mtl
usemtl palette

# normals
vn -1 0 0
vn 1 0 0
vn 0 0 1
vn 0 0 -1
vn 0 -1 0
vn 0 1 0

# texcoords
vt 0.376953 0.5
vt 0.466797 0.5
vt 0.626953 0.5
vt 0.630859 0.5

# verts
v -0.8 -5.3 0.8
v -0.8 -5.3 0.4
v -0.8 -5 0.8
v -0.8 -5 0.4
v -0.5 -5.7 0.8
v -0.5 -5.7 0.4
v -0.5 -5.3 0.8
v -0.5 -5.3 0.4
v -0.4 -2.8 0.8
v -0.4 -2.8 0.4
v -0.4 -2.4 0.8
v -0.4 -2.4 0.4
v -0.4 -2 0.8
v -0.4 -2 0.4
v -0.4 -1.6 0.8
v -0.4 -1.6 0.4
v -0.4 -1.2 0.8
v -0.4 -1.2 0.4
v -0.4 -0.8 0.8
v -0.4 -0.8 0.4
v 5.96046e-08 -6 0.8
v 5.96046e-08 -6 0.4
v 5.96046e-08 -5.7 0.8
v 5.96046e-08 -5.7 0.4
v 5.96046e-08 -5.3 0.8
v 5.96046e-08 -5.3 0.7
v 5.96046e-08 -5.3 0.4
v 5.96046e-08 -5.2 0.8
v 5.96046e-08 -5.2 0.7
v 5.96046e-08 -4.3 0.7
v 5.96046e-08 -4.3 0.4
v 5.96046e-08 -4.2 0.7
v 5.96046e-08 -4.2 0.4
v 5.96046e-08 -2.8 0.8
v 5.96046e-08 -2.8 0.4
v 5.96046e-08 -2.4 1.2
v 5.96046e-08 -2.4 0.8
v 5.96046e-08 -2.4 0.4
v 5.96046e-08 -2.4 0
v 5.96046e-08 -2 1.2
v 5.96046e-08 -2 0.8
v 5.96046e-08 -2 0.4
v 5.96046e-08 -2 0
v 5.96046e-08 -1.6 1.2
v 5.96046e-08 -1.6 0.8
v 5.96046e-08 -1.6 0.4
v 5.96046e-08 -1.6 0
v 5.96046e-08 -1.2 1.2
v 5.96046e-08 -1.2 0.8
v 5.96046e-08 -1.2 0.4
v 5.96046e-08 -1.2 0
v 5.96046e-08 -0.8 0.8
v 5.96046e-08 -0.8 0.4
v 5.96046e-08 -0.4 0.8
v 5.96046e-08 -0.4 0.4
v 0.8 -3.6 0.8
v 0.8 -3.6 0.4
v 0.8 -3.2 0.8
v 0.8 -3.2 0.4
v -0.2 -5.3 0.8
v -0.2 -5.3 0.4
v -0.2 -5 0.8
v -0.2 -5 0.4
v 0.4 -6 0.8
v 0.4 -6 0.4
v 0.4 -5.6 0.6
v 0.4 -5.6 0.4
v 0.4 -5.5 0.6
v 0.4 -5.5 0.4
v 0.4 -4.7 0.8
v 0.4 -4.7 0.5
v 0.4 -4.6 0.8
v 0.4 -4.6 0.5
v 0.4 -4 0.8
v 0.4 -4 0.4
v 0.4 -3.6 0.8
v 0.4 -3.6 0.4
v 0.4 -2.8 0.8
v 0.4 -2.8 0.4
v 0.4 -2.4 1.2
v 0.4 -2.4 0.8
v 0.4 -2.4 0.4
v 0.4 -2.4 0
v 0.4 -2 1.2
v 0.4 -2 0.8
v 0.4 -2 0.4
v 0.4 -2 0
v 0.4 -1.6 1.2
v 0.4 -1.6 0.8
v 0.4 -1.6 0.4
v 0.4 -1.6 0
v 0.4 -1.2 1.2
v 0.4 -1.2 0.8
v 0.4 -1.2 0.4
v 0.4 -1.2 0
v 0.4 -0.8 0.8
v 0.4 -0.8 0.4
v 0.4 -0.4 0.8
v 0.4 -0.4 0.4
v 0.8 -2.8 0.8
v 0.8 -2.8 0.4
v 0.8 -2.4 0.8
v 0.8 -2.4 0.4
v 0.8 -2 0.8
v 0.8 -2 0.4
v 0.8 -1.6 0.8
v 0.8 -1.6 0.4
v 0.8 -1.2 0.8
v 0.8 -1.2 0.4
v 0.8 -0.8 0.8
v 0.8 -0.8 0.4
v 1.2 -4 0.8
v 1.2 -4 0.4
v 1.2 -3.6 0.8
v 1.2 -3.6 0.4
v 1.6 -3.6 0.8
v 1.6 -3.6 0.4
v 1.6 -3.2 0.8
v 1.6 -3.2 0.4
v 5.96046e-08 -2.4 1.2
v 5.96046e-08 -2 1.2
v 5.96046e-08 -1.6 1.2
v 5.96046e-08 -1.2 1.2
v 0.4 -2.4 1.2
v 0.4 -2 1.2
v 0.4 -1.6 1.2
v 0.4 -1.2 1.2
v -0.8 -5.3 0.8
v -0.8 -5 0.8
v -0.7 -5.2 0.8
v -0.7 -5.1 0.8
v -0.5 -5.7 0.8
v -0.5 -5.3 0.8
v -0.4 -5.5 0.8
v -0.4 -5.2 0.8
v -0.4 -2.8 0.8
v -0.4 -2.4 0.8
v -0.4 -2 0.8
v -0.4 -1.6 0.8
v -0.4 -1.2 0.8
v -0.4 -0.8 0.8
v -0.3 -5.4 0.8
v -0.3 -5.1 0.8
v -0.2 -5.3 0.8
v -0.2 -5 0.8
v 5.96046e-08 -6 0.8
v 5.96046e-08 -5.7 0.8
v 5.96046e-08 -5.5 0.8
v 5.96046e-08 -5.4 0.8
v 5.96046e-08 -5.3 0.8
v 5.96046e-08 -5.2 0.8
v 5.96046e-08 -2.8 0.8
v 5.96046e-08 -2.4 0.8
v 5.96046e-08 -2 0.8
v 5.96046e-08 -1.6 0.8
v 5.96046e-08 -1.2 0.8
v 5.96046e-08 -0.8 0.8
v 5.96046e-08 -0.4 0.8
v 0.2 -5.3 0.8
v 0.2 -5.2 0.8
v 0.3 -4.7 0.8
v 0.3 -4.6 0.8
v 0.4 -6 0.8
v 0.4 -4.7 0.8
v 0.4 -4.6 0.8
v 0.4 -4 0.8
v 0.4 -3.6 0.8
v 0.4 -2.8 0.8
v 0.4 -2.4 0.8
v 0.4 -2 0.8
v 0.4 -1.6 0.8
v 0.4 -1.2 0.8
v 0.4 -0.8 0.8
v 0.4 -0.4 0.8
v 0.6 -3.9 0.8
v 0.6 -3.8 0.8
v 0.8 -3.6 0.8
v 0.8 -3.2 0.8
v 0.8 -2.8 0.8
v 0.8 -2.4 0.8
v 0.8 -2 0.8
v 0.8 -1.6 0.8
v 0.8 -1.2 0.8
v 0.8 -0.8 0.8
v 1 -3.8 0.8
v 1 -3.4 0.8
v 1.1 -3.9 0.8
v 1.1 -3.5 0.8
v 1.2 -4 0.8
v 1.2 -3.6 0.8
v 1.4 -3.5 0.8
v 1.4 -3.4 0.8
v 1.6 -3.6 0.8
v 1.6 -3.2 0.8
v -0.8 -5.3 0.4
v -0.8 -5 0.4
v -0.7 -5.2 0.4
v -0.7 -5.1 0.4
v -0.5 -5.7 0.4
v -0.5 -5.3 0.4
v -0.4 -5.6 0.4
v -0.4 -5.2 0.4
v -0.4 -2.8 0.4
v -0.4 -2.4 0.4
v -0.4 -2 0.4
v -0.4 -1.6 0.4
v -0.4 -1.2 0.4
v -0.4 -0.8 0.4
v -0.3 -5.5 0.4
v -0.3 -5.1 0.4
v -0.2 -5.3 0.4
v -0.2 -5 0.4
v 5.96046e-08 -6 0.4
v 5.96046e-08 -5.7 0.4
v 5.96046e-08 -5.6 0.4
v 5.96046e-08 -5.5 0.4
v 5.96046e-08 -5.3 0.4
v 5.96046e-08 -4.3 0.4
v 5.96046e-08 -4.2 0.4
v 5.96046e-08 -2.8 0.4
v 5.96046e-08 -2.4 0.4
v 5.96046e-08 -2 0.4
v 5.96046e-08 -1.6 0.4
v 5.96046e-08 -1.2 0.4
v 5.96046e-08 -0.8 0.4
v 5.96046e-08 -0.4 0.4
v 0.3 -5.6 0.4
v 0.3 -5.5 0.4
v 0.3 -4.3 0.4
v 0.3 -4.2 0.4
v 0.4 -6 0.4
v 0.4 -5.6 0.4
v 0.4 -5.5 0.4
v 0.4 -4 0.4
v 0.4 -3.8 0.4
v 0.4 -3.7 0.4
v 0.4 -3.6 0.4
v 0.4 -2.8 0.4
v 0.4 -2.4 0.4
v 0.4 -2 0.4
v 0.4 -1.6 0.4
v 0.4 -1.2 0.4
v 0.4 -0.8 0.4
v 0.4 -0.4 0.4
v 0.8 -3.6 0.4
v 0.8 -3.2 0.4
v 0.8 -2.8 0.4
v 0.8 -2.4 0.4
v 0.8 -2 0.4
v 0.8 -1.6 0.4
v 0.8 -1.2 0.4
v 0.8 -0.8 0.4
v 0.9 -3.7 0.4
v 0.9 -3.3 0.4
v 1.1 -3.8 0.4
v 1.1 -3.4 0.4
v 1.2 -4 0.4
v 1.2 -3.6 0.4
v 1.4 -3.4 0.4
v 1.4 -3.3 0.4
v 1.6 -3.6 0.4
v 1.6 -3.2 0.4
v 5.96046e-08 -2.4 0
v 5.96046e-08 -2 0
v 5.96046e-08 -1.6 0
v 5.96046e-08 -1.2 0
v 0.4 -2.4 0
v 0.4 -2 0
v 0.4 -1.6 0
v 0.4 -1.2 0
v 5.96046e-08 -6 0.8
v 0.4 -6 0.8
v 5.96046e-08 -6 0.4
v 0.4 -6 0.4
v -0.5 -5.7 0.8
v 5.96046e-08 -5.7 0.8
v -0.5 -5.7 0.4
v 5.96046e-08 -5.7 0.4
v -0.8 -5.3 0.8
v -0.5 -5.3 0.8
v -0.8 -5.3 0.4
v -0.5 -5.3 0.4
v 0.4 -4 0.8
v 1.2 -4 0.8
v 0.4 -4 0.4
v 1.2 -4 0.4
v 1.2 -3.6 0.8
v 1.6 -3.6 0.8
v 1.2 -3.6 0.4
v 1.6 -3.6 0.4
v -0.4 -2.8 0.8
v 5.96046e-08 -2.8 0.8
v 0.4 -2.8 0.8
v 0.8 -2.8 0.8
v -0.4 -2.8 0.4
v 5.96046e-08 -2.8 0.4
v 0.4 -2.8 0.4
v 0.8 -2.8 0.4
v 5.96046e-08 -2.4 1.2
v 0.4 -2.4 1.2
v 5.96046e-08 -2.4 0.8
v 0.4 -2.4 0.8
v 5.96046e-08 -2.4 0.4
v 0.4 -2.4 0.4
v 5.96046e-08 -2.4 0
v 0.4 -2.4 0
v -0.4 -2 0.8
v 5.96046e-08 -2 0.8
v 0.4 -2 0.8
v 0.8 -2 0.8
v -0.4 -2 0.4
v 5.96046e-08 -2 0.4
v 0.4 -2 0.4
v 0.8 -2 0.4
v 5.96046e-08 -1.6 1.2
v 0.4 -1.6 1.2
v 5.96046e-08 -1.6 0.8
v 0.4 -1.6 0.8
v 5.96046e-08 -1.6 0.4
v 0.4 -1.6 0.4
v 5.96046e-08 -1.6 0
v 0.4 -1.6 0
v -0.4 -1.2 0.8
v 5.96046e-08 -1.2 0.8
v 0.4 -1.2 0.8
v 0.8 -1.2 0.8
v -0.4 -1.2 0.4
v 5.96046e-08 -1.2 0.4
v 0.4 -1.2 0.4
v 0.8 -1.2 0.4
v -0.2 -5.3 0.8
v 5.96046e-08 -5.3 0.8
v 5.96046e-08 -5.3 0.7
v -0.2 -5.3 0.4
v 5.96046e-08 -5.3 0.4
v -0.8 -5 0.8
v -0.2 -5 0.8
v -0.8 -5 0.4
v -0.2 -5 0.4
v 0.4 -3.6 0.8
v 0.8 -3.6 0.8
v 0.4 -3.6 0.4
v 0.8 -3.6 0.4
v 0.8 -3.2 0.8
v 1.6 -3.2 0.8
v 0.8 -3.2 0.4
v 1.6 -3.2 0.4
v -0.4 -2.4 0.8
v 5.96046e-08 -2.4 0.8
v 0.4 -2.4 0.8
v 0.8 -2.4 0.8
v -0.4 -2.4 0.4
v 5.96046e-08 -2.4 0.4
v 0.4 -2.4 0.4
v 0.8 -2.4 0.4
v 5.96046e-08 -2 1.2
v 0.4 -2 1.2
v 5.96046e-08 -2 0.8
v 0.4 -2 0.8
v 5.96046e-08 -2 0.4
v 0.4 -2 0.4
v 5.96046e-08 -2 0
v 0.4 -2 0
v -0.4 -1.6 0.8
v 5.96046e-08 -1.6 0.8
v 0.4 -1.6 0.8
v 0.8 -1.6 0.8
v -0.4 -1.6 0.4
v 5.96046e-08 -1.6 0.4
v 0.4 -1.6 0.4
v 0.8 -1.6 0.4
v 5.96046e-08 -1.2 1.2
v 0.4 -1.2 1.2
v 5.96046e-08 -1.2 0.8
v 0.4 -1.2 0.8
v 5.96046e-08 -1.2 0.4
v 0.4 -1.2 0.4
v 5.96046e-08 -1.2 0
v 0.4 -1.2 0
v -0.4 -0.8 0.8
v 5.96046e-08 -0.8 0.8
v 0.4 -0.8 0.8
v 0.8 -0.8 0.8
v -0.4 -0.8 0.4
v 5.96046e-08 -0.8 0.4
v 0.4 -0.8 0.4
v 0.8 -0.8 0.4
v 5.96046e-08 -0.4 0.8
v 0.4 -0.4 0.8
v 5.96046e-08 -0.4 0.4
v 0.4 -0.4 0.4

# faces
f 3/4/1 2/4/1 1/4/1
f 4/4/1 2/4/1 3/4/1
f 7/4/1 6/4/1 5/4/1
f 8/4/1 6/4/1 7/4/1
f 11/1/1 10/1/1 9/1/1
f 12/1/1 10/1/1 11/1/1
f 15/1/1 14/1/1 13/1/1
f 16/1/1 14/1/1 15/1/1
f 19/1/1 18/1/1 17/1/1
f 20/1/1 18/1/1 19/1/1
f 23/2/1 22/2/1 21/2/1
f 24/2/1 22/2/1 23/2/1
f 28/3/1 26/3/1 25/3/1
f 29/2/1 27/2/1 26/2/1
f 29/3/1 26/3/1 28/3/1
f 30/2/1 29/2/1 28/2/1
f 30/2/1 27/2/1 29/2/1
f 31/2/1 27/2/1 30/2/1
f 32/2/1 30/2/1 28/2/1
f 32/3/1 31/3/1 30/3/1
f 33/3/1 31/3/1 32/3/1
f 34/2/1 32/2/1 28/2/1
f 34/2/1 33/2/1 32/2/1
f 35/2/1 33/2/1 34/2/1
f 40/1/1 37/1/1 36/1/1
f 41/2/1 38/2/1 37/2/1
f 41/1/1 37/1/1 40/1/1
f 42/1/1 39/1/1 38/1/1
f 42/2/1 38/2/1 41/2/1
f 43/1/1 39/1/1 42/1/1
f 48/1/1 45/1/1 44/1/1
f 49/2/1 46/2/1 45/2/1
f 49/1/1 45/1/1 48/1/1
f 50/1/1 47/1/1 46/1/1
f 50/2/1 46/2/1 49/2/1
f 51/1/1 47/1/1 50/1/1
f 54/1/1 53/1/1 52/1/1
f 55/1/1 53/1/1 54/1/1
f 58/4/1 57/4/1 56/4/1
f 59/4/1 57/4/1 58/4/1
f 60/4/2 61/4/2 62/4/2
f 62/4/2 61/4/2 63/4/2
f 64/2/2 65/2/2 66/2/2
f 66/2/2 65/2/2 67/2/2
f 64/2/2 66/2/2 68/2/2
f 66/3/2 67/3/2 68/3/2
f 68/3/2 67/3/2 69/3/2
f 64/2/2 68/2/2 70/2/2
f 68/2/2 69/2/2 70/2/2
f 70/2/2 69/2/2 71/2/2
f 70/3/2 71/3/2 72/3/2
f 71/2/2 69/2/2 73/2/2
f 72/3/2 71/3/2 73/3/2
f 72/2/2 73/2/2 74/2/2
f 73/2/2 69/2/2 75/2/2
f 74/2/2 73/2/2 75/2/2
f 76/2/2 77/2/2 78/2/2
f 78/2/2 77/2/2 79/2/2
f 80/1/2 81/1/2 84/1/2
f 81/2/2 82/2/2 85/2/2
f 84/1/2 81/1/2 85/1/2
f 82/1/2 83/1/2 86/1/2
f 85/2/2 82/2/2 86/2/2
f 86/1/2 83/1/2 87/1/2
f 88/1/2 89/1/2 92/1/2
f 89/2/2 90/2/2 93/2/2
f 92/1/2 89/1/2 93/1/2
f 90/1/2 91/1/2 94/1/2
f 93/2/2 90/2/2 94/2/2
f 94/1/2 91/1/2 95/1/2
f 96/1/2 97/1/2 98/1/2
f 98/1/2 97/1/2 99/1/2
f 100/1/2 101/1/2 102/1/2
f 102/1/2 101/1/2 103/1/2
f 104/1/2 105/1/2 106/1/2
f 106/1/2 105/1/2 107/1/2
f 108/1/2 109/1/2 110/1/2
f 110/1/2 109/1/2 111/1/2
f 112/4/2 113/4/2 114/4/2
f 114/4/2 113/4/2 115/4/2
f 116/4/2 117/4/2 118/4/2
f 118/4/2 117/4/2 119/4/2
f 124/1/3 121/1/3 120/1/3
f 125/1/3 121/1/3 124/1/3
f 126/1/3 123/1/3 122/1/3
f 127/1/3 123/1/3 126/1/3
f 130/4/3 129/4/3 128/4/3
f 131/4/3 129/4/3 130/4/3
f 133/4/3 130/4/3 128/4/3
f 134/4/3 133/4/3 132/4/3
f 135/3/3 131/3/3 130/3/3
f 135/4/3 133/4/3 134/4/3
f 135/4/3 130/4/3 133/4/3
f 142/3/3 135/3/3 134/3/3
f 143/4/3 129/4/3 131/4/3
f 143/3/3 135/3/3 142/3/3
f 143/3/3 131/3/3 135/3/3
f 144/4/3 143/4/3 142/4/3
f 145/4/3 129/4/3 143/4/3
f 145/4/3 143/4/3 144/4/3
f 147/4/3 134/4/3 132/4/3
f 148/3/3 142/3/3 134/3/3
f 148/4/3 134/4/3 147/4/3
f 149/4/3 144/4/3 142/4/3
f 149/3/3 142/3/3 148/3/3
f 150/4/3 144/4/3 149/4/3
f 152/1/3 137/1/3 136/1/3
f 153/1/3 137/1/3 152/1/3
f 154/1/3 139/1/3 138/1/3
f 155/1/3 139/1/3 154/1/3
f 156/1/3 141/1/3 140/1/3
f 157/1/3 141/1/3 156/1/3
f 159/2/3 147/2/3 146/2/3
f 159/3/3 151/3/3 150/3/3
f 159/2/3 150/2/3 149/2/3
f 159/2/3 148/2/3 147/2/3
f 159/2/3 149/2/3 148/2/3
f 160/2/3 153/2/3 152/2/3
f 160/3/3 151/3/3 159/3/3
f 160/2/3 152/2/3 151/2/3
f 161/2/3 160/2/3 159/2/3
f 161/2/3 153/2/3 160/2/3
f 162/2/3 153/2/3 161/2/3
f 163/2/3 159/2/3 146/2/3
f 163/2/3 161/2/3 159/2/3
f 164/3/3 162/3/3 161/3/3
f 164/2/3 161/2/3 163/2/3
f 165/2/3 153/2/3 162/2/3
f 165/3/3 162/3/3 164/3/3
f 166/2/3 153/2/3 165/2/3
f 167/2/3 153/2/3 166/2/3
f 168/2/3 153/2/3 167/2/3
f 169/2/3 153/2/3 168/2/3
f 170/2/3 155/2/3 154/2/3
f 171/2/3 155/2/3 170/2/3
f 172/2/3 157/2/3 156/2/3
f 173/1/3 158/1/3 157/1/3
f 173/2/3 157/2/3 172/2/3
f 174/1/3 158/1/3 173/1/3
f 175/4/3 167/4/3 166/4/3
f 176/4/3 167/4/3 175/4/3
f 177/4/3 167/4/3 176/4/3
f 179/1/3 169/1/3 168/1/3
f 180/1/3 169/1/3 179/1/3
f 181/1/3 171/1/3 170/1/3
f 182/1/3 171/1/3 181/1/3
f 183/1/3 173/1/3 172/1/3
f 184/1/3 173/1/3 183/1/3
f 185/4/3 178/4/3 177/4/3
f 185/3/3 176/3/3 175/3/3
f 185/4/3 177/4/3 176/4/3
f 186/4/3 178/4/3 185/4/3
f 187/4/3 175/4/3 166/4/3
f 187/3/3 185/3/3 175/3/3
f 187/3/3 186/3/3 185/3/3
f 188/3/3 186/3/3 187/3/3
f 189/4/3 187/4/3 166/4/3
f 189/4/3 188/4/3 187/4/3
f 190/4/3 188/4/3 189/4/3
f 191/3/3 186/3/3 188/3/3
f 191/4/3 188/4/3 190/4/3
f 192/4/3 178/4/3 186/4/3
f 192/3/3 186/3/3 191/3/3
f 193/4/3 191/4/3 190/4/3
f 193/4/3 192/4/3 191/4/3
f 194/4/3 178/4/3 192/4/3
f 194/4/3 192/4/3 193/4/3
f 195/4/4 196/4/4 197/4/4
f 197/4/4 196/4/4 198/4/4
f 195/4/4 197/4/4 200/4/4
f 199/4/4 200/4/4 201/4/4
f 197/3/4 198/3/4 202/3/4
f 201/4/4 200/4/4 202/4/4
f 200/4/4 197/4/4 202/4/4
f 201/3/4 202/3/4 209/3/4
f 198/4/4 196/4/4 210/4/4
f 209/3/4 202/3/4 210/3/4
f 202/3/4 198/3/4 210/3/4
f 209/4/4 210/4/4 211/4/4
f 210/4/4 196/4/4 212/4/4
f 211/4/4 210/4/4 212/4/4
f 199/4/4 201/4/4 214/4/4
f 201/3/4 209/3/4 215/3/4
f 214/4/4 201/4/4 215/4/4
f 209/4/4 211/4/4 216/4/4
f 215/3/4 209/3/4 216/3/4
f 216/4/4 211/4/4 217/4/4
f 203/1/4 204/1/4 220/1/4
f 220/1/4 204/1/4 221/1/4
f 205/1/4 206/1/4 222/1/4
f 222/1/4 206/1/4 223/1/4
f 207/1/4 208/1/4 224/1/4
f 224/1/4 208/1/4 225/1/4
f 213/2/4 214/2/4 227/2/4
f 216/2/4 217/2/4 227/2/4
f 214/2/4 215/2/4 227/2/4
f 215/2/4 216/2/4 227/2/4
f 217/2/4 218/2/4 227/2/4
f 227/2/4 218/2/4 228/2/4
f 218/3/4 219/3/4 229/3/4
f 228/2/4 218/2/4 229/2/4
f 220/2/4 221/2/4 230/2/4
f 229/3/4 219/3/4 230/3/4
f 219/2/4 220/2/4 230/2/4
f 213/2/4 227/2/4 231/2/4
f 227/3/4 228/3/4 232/3/4
f 231/2/4 227/2/4 232/2/4
f 228/2/4 229/2/4 233/2/4
f 232/3/4 228/3/4 233/3/4
f 229/2/4 230/2/4 233/2/4
f 230/2/4 221/2/4 234/2/4
f 233/2/4 230/2/4 234/2/4
f 234/2/4 221/2/4 235/2/4
f 235/2/4 221/2/4 236/2/4
f 236/2/4 221/2/4 237/2/4
f 237/2/4 221/2/4 238/2/4
f 238/2/4 221/2/4 239/2/4
f 222/2/4 223/2/4 240/2/4
f 240/2/4 223/2/4 241/2/4
f 224/2/4 225/2/4 242/2/4
f 225/1/4 226/1/4 243/1/4
f 242/2/4 225/2/4 243/2/4
f 243/1/4 226/1/4 244/1/4
f 236/4/4 237/4/4 245/4/4
f 238/1/4 239/1/4 247/1/4
f 247/1/4 239/1/4 248/1/4
f 240/1/4 241/1/4 249/1/4
f 249/1/4 241/1/4 250/1/4
f 242/1/4 243/1/4 251/1/4
f 251/1/4 243/1/4 252/1/4
f 245/4/4 246/4/4 253/4/4
f 235/3/4 236/3/4 253/3/4
f 236/4/4 245/4/4 253/4/4
f 253/4/4 246/4/4 254/4/4
f 234/4/4 235/4/4 255/4/4
f 235/3/4 253/3/4 255/3/4
f 253/3/4 254/3/4 255/3/4
f 255/3/4 254/3/4 256/3/4
f 234/4/4 255/4/4 257/4/4
f 255/4/4 256/4/4 257/4/4
f 257/4/4 256/4/4 258/4/4
f 256/3/4 254/3/4 259/3/4
f 258/4/4 256/4/4 259/4/4
f 254/4/4 246/4/4 260/4/4
f 259/3/4 254/3/4 260/3/4
f 258/4/4 259/4/4 261/4/4
f 259/4/4 260/4/4 261/4/4
f 260/4/4 246/4/4 262/4/4
f 261/4/4 260/4/4 262/4/4
f 263/1/4 264/1/4 267/1/4
f 267/1/4 264/1/4 268/1/4
f 265/1/4 266/1/4 269/1/4
f 269/1/4 266/1/4 270/1/4
f 273/2/5 272/2/5 271/2/5
f 274/2/5 272/2/5 273/2/5
f 277/4/5 276/4/5 275/4/5
f 278/4/5 276/4/5 277/4/5
f 281/4/5 280/4/5 279/4/5
f 282/4/5 280/4/5 281/4/5
f 285/4/5 284/4/5 283/4/5
f 286/4/5 284/4/5 285/4/5
f 289/4/5 288/4/5 287/4/5
f 290/4/5 288/4/5 289/4/5
f 295/1/5 292/1/5 291/1/5
f 296/1/5 292/1/5 295/1/5
f 297/1/5 294/1/5 293/1/5
f 298/1/5 294/1/5 297/1/5
f 301/1/5 300/1/5 299/1/5
f 302/1/5 300/1/5 301/1/5
f 305/1/5 304/1/5 303/1/5
f 306/1/5 304/1/5 305/1/5
f 311/1/5 308/1/5 307/1/5
f 312/1/5 308/1/5 311/1/5
f 313/1/5 310/1/5 309/1/5
f 314/1/5 310/1/5 313/1/5
f 317/1/5 316/1/5 315/1/5
f 318/1/5 316/1/5 317/1/5
f 321/1/5 320/1/5 319/1/5
f 322/1/5 320/1/5 321/1/5
f 327/1/5 324/1/5 323/1/5
f 328/1/5 324/1/5 327/1/5
f 329/1/5 326/1/5 325/1/5
f 330/1/5 326/1/5 329/1/5
f 331/4/6 332/4/6 333/4/6
f 331/4/6 333/4/6 334/4/6
f 334/4/6 333/4/6 335/4/6
f 336/4/6 337/4/6 338/4/6
f 338/4/6 337/4/6 339/4/6
f 340/4/6 341/4/6 342/4/6
f 342/4/6 341/4/6 343/4/6
f 344/4/6 345/4/6 346/4/6
f 346/4/6 345/4/6 347/4/6
f 348/1/6 349/1/6 352/1/6
f 352/1/6 349/1/6 353/1/6
f 350/1/6 351/1/6 354/1/6
f 354/1/6 351/1/6 355/1/6
f 356/1/6 357/1/6 358/1/6
f 358/1/6 357/1/6 359/1/6
f 360/1/6 361/1/6 362/1/6
f 362/1/6 361/1/6 363/1/6
f 364/1/6 365/1/6 368/1/6
f 368/1/6 365/1/6 369/1/6
f 366/1/6 367/1/6 370/1/6
f 370/1/6 367/1/6 371/1/6
f 372/1/6 373/1/6 374/1/6
f 374/1/6 373/1/6 375/1/6
f 376/1/6 377/1/6 378/1/6
f 378/1/6 377/1/6 379/1/6
f 380/1/6 381/1/6 384/1/6
f 384/1/6 381/1/6 385/1/6
f 382/1/6 383/1/6 386/1/6
f 386/1/6 383/1/6 387/1/6
f 388/1/6 389/1/6 390/1/6
f 390/1/6 389/1/6 391/1/6
