# MagicaVoxel @ Ephtracy

# group
o 

# material
mtllib obj.gig.mtl
usemtl palette

# normals
vn -1 0 0
vn 1 0 0
vn 0 0 1
vn 0 0 -1
vn 0 -1 0
vn 0 1 0

# texcoords
vt 0.537109 0.5
vt 0.966797 0.5
vt 0.978516 0.5

# verts
v -0.4 4.5 0.0999999
v -0.4 4.5 -0.1
v -0.4 4.7 0.0999999
v -0.4 4.7 -0.1
v -0.3 5.5 0.0999999
v -0.3 5.5 -0.1
v -0.3 5.7 0.0999999
v -0.3 5.7 -0.1
v -0.2 0 0.2
v -0.2 0 -0.2
v -0.2 4 0.2
v -0.2 4 -0.2
v -0.2 5.3 0.0999999
v -0.2 5.3 -0.1
v -0.2 5.5 0.0999999
v -0.2 5.5 -0.1
v -0.1 4 0.0999999
v -0.1 4 -0.1
v -0.1 4.5 0.0999999
v -0.1 4.5 -0.1
v -0.1 4.7 0.0999999
v -0.1 4.7 -0.1
v -0.1 5.3 0.0999999
v -0.1 5.3 -0.1
v 0.1 0 0.0999999
v 0.1 0 -0.1
v 0.1 3.8 0.0999999
v 0.1 3.8 -0.1
v -0.1 0 0.0999999
v -0.1 0 -0.1
v -0.1 3.8 0.0999999
v -0.1 3.8 -0.1
v -0.1 5.5 0.0999999
v -0.1 5.5 -5.96046e-08
v -0.1 5.5 -0.1
v -0.1 5.6 -5.96046e-08
v -0.1 5.6 -0.1
v -0.1 5.7 0.0999999
v -0.1 5.7 -0.1
v 0 5.3 0.0999999
v 0 5.3 -0.1
v 0 5.5 0.0999999
v 0 5.5 -0.1
v 0.1 4 0.0999999
v 0.1 4 -0.1
v 0.1 5.3 0.0999999
v 0.1 5.3 -0.1
v 0.2 0 0.2
v 0.2 0 -0.2
v 0.2 4 0.2
v 0.2 4 -0.2
v -0.2 0 0.2
v -0.2 4 0.2
v 0.2 0 0.2
v 0.2 4 0.2
v -0.4 4.5 0.0999999
v -0.4 4.7 0.0999999
v -0.3 5.5 0.0999999
v -0.3 5.7 0.0999999
v -0.2 5.3 0.0999999
v -0.2 5.5 0.0999999
v -0.2 5.7 0.0999999
v -0.1 4 0.0999999
v -0.1 4.5 0.0999999
v -0.1 4.7 0.0999999
v -0.1 5.3 0.0999999
v -0.1 5.5 0.0999999
v -0.1 5.7 0.0999999
v 0 4 0.0999999
v 0 5.3 0.0999999
v 0 5.5 0.0999999
v 0.1 4 0.0999999
v 0.1 5.3 0.0999999
v -0.1 0 -0.1
v -0.1 3.8 -0.1
v 0 3.8 -0.1
v 0.1 0 -0.1
v 0.1 3.8 -0.1
v -0.1 0 0.0999999
v -0.1 3.8 0.0999999
v 0 3.8 0.0999999
v 0.1 0 0.0999999
v 0.1 3.8 0.0999999
v -0.4 4.5 -0.1
v -0.4 4.7 -0.1
v -0.3 5.5 -0.1
v -0.3 5.7 -0.1
v -0.2 5.3 -0.1
v -0.2 5.5 -0.1
v -0.2 5.6 -0.1
v -0.2 5.7 -0.1
v -0.1 4 -0.1
v -0.1 4.5 -0.1
v -0.1 4.7 -0.1
v -0.1 5.3 -0.1
v -0.1 5.5 -0.1
v -0.1 5.6 -0.1
v -0.1 5.7 -0.1
v 0 4 -0.1
v 0 5.3 -0.1
v 0 5.5 -0.1
v 0.1 4 -0.1
v 0.1 5.3 -0.1
v -0.2 0 -0.2
v -0.2 4 -0.2
v 0.2 0 -0.2
v 0.2 4 -0.2
v -0.2 0 0.2
v 0.2 0 0.2
v -0.1 0 0.0999999
v 0.1 0 0.0999999
v -0.1 0 -0.1
v 0.1 0 -0.1
v -0.2 0 -0.2
v 0.2 0 -0.2
v -0.1 3.8 0.0999999
v 0 3.8 0.0999999
v 0.1 3.8 0.0999999
v -0.1 3.8 -0.1
v 0 3.8 -0.1
v 0.1 3.8 -0.1
v -0.4 4.5 0.0999999
v -0.1 4.5 0.0999999
v -0.4 4.5 -0.1
v -0.1 4.5 -0.1
v -0.2 5.3 0.0999999
v -0.1 5.3 0.0999999
v -0.2 5.3 -0.1
v -0.1 5.3 -0.1
v -0.3 5.5 0.0999999
v -0.2 5.5 0.0999999
v -0.3 5.5 -0.1
v -0.2 5.5 -0.1
v -0.2 4 0.2
v 0.2 4 0.2
v -0.1 4 0.0999999
v 0 4 0.0999999
v 0.1 4 0.0999999
v -0.1 4 -0.1
v 0 4 -0.1
v 0.1 4 -0.1
v -0.2 4 -0.2
v 0.2 4 -0.2
v -0.4 4.7 0.0999999
v -0.1 4.7 0.0999999
v -0.4 4.7 -0.1
v -0.1 4.7 -0.1
v 0 5.3 0.0999999
v 0.1 5.3 0.0999999
v 0 5.3 -0.1
v 0.1 5.3 -0.1
v -0.1 5.5 0.0999999
v 0 5.5 0.0999999
v -0.1 5.5 -5.96046e-08
v -0.1 5.5 -0.1
v 0 5.5 -0.1
v -0.3 5.7 0.0999999
v -0.2 5.7 0.0999999
v -0.1 5.7 0.0999999
v -0.3 5.7 -0.1
v -0.2 5.7 -0.1
v -0.1 5.7 -0.1

# faces
f 3/3/1 2/3/1 1/3/1
f 4/3/1 2/3/1 3/3/1
f 7/3/1 6/3/1 5/3/1
f 8/3/1 6/3/1 7/3/1
f 11/1/1 10/1/1 9/1/1
f 12/1/1 10/1/1 11/1/1
f 15/3/1 14/3/1 13/3/1
f 16/3/1 14/3/1 15/3/1
f 19/3/1 18/3/1 17/3/1
f 20/3/1 18/3/1 19/3/1
f 23/3/1 22/3/1 21/3/1
f 24/3/1 22/3/1 23/3/1
f 27/1/1 26/1/1 25/1/1
f 28/1/1 26/1/1 27/1/1
f 29/1/2 30/1/2 31/1/2
f 31/1/2 30/1/2 32/1/2
f 33/2/2 34/2/2 36/2/2
f 34/3/2 35/3/2 36/3/2
f 36/3/2 35/3/2 37/3/2
f 33/2/2 36/2/2 38/2/2
f 36/2/2 37/2/2 38/2/2
f 38/2/2 37/2/2 39/2/2
f 40/2/2 41/2/2 42/2/2
f 42/2/2 41/2/2 43/2/2
f 44/2/2 45/2/2 46/2/2
f 46/2/2 45/2/2 47/2/2
f 48/1/2 49/1/2 50/1/2
f 50/1/2 49/1/2 51/1/2
f 54/1/3 53/1/3 52/1/3
f 55/1/3 53/1/3 54/1/3
f 61/3/3 59/3/3 58/3/3
f 62/3/3 59/3/3 61/3/3
f 64/3/3 57/3/3 56/3/3
f 65/3/3 57/3/3 64/3/3
f 66/3/3 61/3/3 60/3/3
f 67/2/3 62/2/3 61/2/3
f 67/3/3 61/3/3 66/3/3
f 68/2/3 62/2/3 67/2/3
f 69/3/3 65/3/3 64/3/3
f 69/3/3 66/3/3 65/3/3
f 69/3/3 64/3/3 63/3/3
f 70/2/3 67/2/3 66/2/3
f 70/3/3 66/3/3 69/3/3
f 71/2/3 67/2/3 70/2/3
f 72/2/3 70/2/3 69/2/3
f 73/2/3 70/2/3 72/2/3
f 76/1/3 75/1/3 74/1/3
f 77/1/3 76/1/3 74/1/3
f 78/1/3 76/1/3 77/1/3
f 79/1/4 80/1/4 81/1/4
f 79/1/4 81/1/4 82/1/4
f 82/1/4 81/1/4 83/1/4
f 86/3/4 87/3/4 89/3/4
f 89/3/4 87/3/4 90/3/4
f 90/3/4 87/3/4 91/3/4
f 84/3/4 85/3/4 93/3/4
f 93/3/4 85/3/4 94/3/4
f 88/3/4 89/3/4 95/3/4
f 89/3/4 90/3/4 95/3/4
f 95/3/4 90/3/4 96/3/4
f 90/2/4 91/2/4 97/2/4
f 96/3/4 90/3/4 97/3/4
f 97/2/4 91/2/4 98/2/4
f 93/3/4 94/3/4 99/3/4
f 92/3/4 93/3/4 99/3/4
f 94/3/4 95/3/4 99/3/4
f 95/2/4 96/2/4 100/2/4
f 99/3/4 95/3/4 100/3/4
f 100/2/4 96/2/4 101/2/4
f 99/2/4 100/2/4 102/2/4
f 102/2/4 100/2/4 103/2/4
f 104/1/4 105/1/4 106/1/4
f 106/1/4 105/1/4 107/1/4
f 110/1/5 109/1/5 108/1/5
f 111/1/5 109/1/5 110/1/5
f 112/1/5 110/1/5 108/1/5
f 113/1/5 109/1/5 111/1/5
f 114/1/5 112/1/5 108/1/5
f 114/1/5 113/1/5 112/1/5
f 115/1/5 109/1/5 113/1/5
f 115/1/5 113/1/5 114/1/5
f 119/3/5 117/3/5 116/3/5
f 120/2/5 118/2/5 117/2/5
f 120/3/5 117/3/5 119/3/5
f 121/2/5 118/2/5 120/2/5
f 124/3/5 123/3/5 122/3/5
f 125/3/5 123/3/5 124/3/5
f 128/3/5 127/3/5 126/3/5
f 129/3/5 127/3/5 128/3/5
f 132/3/5 131/3/5 130/3/5
f 133/3/5 131/3/5 132/3/5
f 134/1/6 135/1/6 136/1/6
f 136/1/6 135/1/6 137/1/6
f 137/1/6 135/1/6 138/1/6
f 134/1/6 136/1/6 139/1/6
f 138/1/6 135/1/6 141/1/6
f 139/1/6 140/1/6 142/1/6
f 140/1/6 141/1/6 142/1/6
f 134/1/6 139/1/6 142/1/6
f 141/1/6 135/1/6 143/1/6
f 142/1/6 141/1/6 143/1/6
f 144/3/6 145/3/6 146/3/6
f 146/3/6 145/3/6 147/3/6
f 148/2/6 149/2/6 150/2/6
f 150/2/6 149/2/6 151/2/6
f 152/2/6 153/2/6 154/2/6
f 154/2/6 153/2/6 155/2/6
f 155/2/6 153/2/6 156/2/6
f 157/3/6 158/3/6 160/3/6
f 158/2/6 159/2/6 161/2/6
f 160/3/6 158/3/6 161/3/6
f 161/2/6 159/2/6 162/2/6
