# MagicaVoxel @ Ephtracy

# group
o 

# material
mtllib lantern 2.mtl
usemtl palette

# normals
vn -1 0 0
vn 1 0 0
vn 0 0 1
vn 0 0 -1
vn 0 -1 0
vn 0 1 0

# texcoords
vt 0.00585938 0.5
vt 0.857422 0.5
vt 0.978516 0.5
vt 0.986328 0.5

# verts
v -0.3 0.9 0.1
v -0.3 0.9 -0.1
v -0.3 1.1 0.1
v -0.3 1.1 -0.1
v -0.3 1.4 0.3
v -0.3 1.4 -0.3
v -0.3 1.5 0.3
v -0.3 1.5 -0.3
v -0.3 2 0.3
v -0.3 2 -0.3
v -0.2 0.1 0.2
v -0.2 0.1 -0.2
v -0.2 0.2 0.1
v -0.2 0.2 -0.1
v -0.2 0.6 0.1
v -0.2 0.6 -0.1
v -0.2 0.9 0.1
v -0.2 0.9 -0.1
v -0.2 1.1 0.1
v -0.2 1.1 -0.1
v -0.2 1.4 0.2
v -0.2 1.4 -0.2
v -0.1 0.2 0.1
v -0.1 0.2 -0.1
v -0.1 0.6 0.1
v -0.1 0.6 -0.1
v 0.2 0.1 0.2
v 0.2 0.1 -0.2
v 0.2 1.4 0.2
v 0.2 1.4 -0.2
v 0.3 1.4 0.3
v 0.3 1.4 -0.3
v 0.3 1.5 0.3
v 0.3 1.5 -0.3
v 0.3 2 0.3
v 0.3 2 -0.3
v -0.3 1.4 0.3
v -0.3 1.5 0.3
v -0.3 2 0.3
v 0.3 1.4 0.3
v 0.3 1.5 0.3
v 0.3 2 0.3
v -0.2 0.1 0.2
v -0.2 1.4 0.2
v 0.2 0.1 0.2
v 0.2 1.4 0.2
v -0.3 0.9 0.1
v -0.3 1.1 0.1
v -0.2 0.9 0.1
v -0.2 1.1 0.1
v -0.2 0.2 -0.1
v -0.2 0.6 -0.1
v -0.1 0.2 -0.1
v -0.1 0.6 -0.1
v -0.2 0.2 0.1
v -0.2 0.6 0.1
v -0.1 0.2 0.1
v -0.1 0.6 0.1
v -0.3 0.9 -0.1
v -0.3 1.1 -0.1
v -0.2 0.9 -0.1
v -0.2 1.1 -0.1
v -0.2 0.1 -0.2
v -0.2 1.4 -0.2
v 0.2 0.1 -0.2
v 0.2 1.4 -0.2
v -0.3 1.4 -0.3
v -0.3 1.5 -0.3
v -0.3 2 -0.3
v 0.3 1.4 -0.3
v 0.3 1.5 -0.3
v 0.3 2 -0.3
v -0.2 0.1 0.2
v 0.2 0.1 0.2
v -0.2 0.1 -0.2
v 0.2 0.1 -0.2
v -0.2 0.6 0.1
v -0.1 0.6 0.1
v -0.2 0.6 -0.1
v -0.1 0.6 -0.1
v -0.3 0.9 0.1
v -0.2 0.9 0.1
v -0.3 0.9 -0.1
v -0.2 0.9 -0.1
v -0.3 1.4 0.3
v 0.3 1.4 0.3
v -0.2 1.4 0.2
v 0.2 1.4 0.2
v -0.2 1.4 -0.2
v 0.2 1.4 -0.2
v -0.3 1.4 -0.3
v 0.3 1.4 -0.3
v -0.2 0.2 0.1
v -0.1 0.2 0.1
v -0.2 0.2 -0.1
v -0.1 0.2 -0.1
v -0.3 1.1 0.1
v -0.2 1.1 0.1
v -0.3 1.1 -0.1
v -0.2 1.1 -0.1
v -0.3 2 0.3
v 0.3 2 0.3
v -0.2 2 0.2
v 0.2 2 0.2
v -0.2 2 -0.2
v 0.2 2 -0.2
v -0.3 2 -0.3
v 0.3 2 -0.3

# faces
f 3/3/1 2/3/1 1/3/1
f 4/3/1 2/3/1 3/3/1
f 7/2/1 6/2/1 5/2/1
f 8/2/1 6/2/1 7/2/1
f 9/4/1 8/4/1 7/4/1
f 10/4/1 8/4/1 9/4/1
f 13/4/1 12/4/1 11/4/1
f 14/4/1 12/4/1 13/4/1
f 15/4/1 13/4/1 11/4/1
f 16/4/1 12/4/1 14/4/1
f 17/4/1 15/4/1 11/4/1
f 17/4/1 16/4/1 15/4/1
f 18/4/1 12/4/1 16/4/1
f 18/4/1 16/4/1 17/4/1
f 19/4/1 17/4/1 11/4/1
f 20/4/1 12/4/1 18/4/1
f 21/4/1 19/4/1 11/4/1
f 21/4/1 20/4/1 19/4/1
f 22/4/1 12/4/1 20/4/1
f 22/4/1 20/4/1 21/4/1
f 25/4/1 24/4/1 23/4/1
f 26/4/1 24/4/1 25/4/1
f 27/4/2 28/4/2 29/4/2
f 29/4/2 28/4/2 30/4/2
f 31/2/2 32/2/2 33/2/2
f 33/2/2 32/2/2 34/2/2
f 33/4/2 34/4/2 35/4/2
f 35/4/2 34/4/2 36/4/2
f 40/2/3 38/2/3 37/2/3
f 41/4/3 39/4/3 38/4/3
f 41/2/3 38/2/3 40/2/3
f 42/4/3 39/4/3 41/4/3
f 45/4/3 44/4/3 43/4/3
f 46/4/3 44/4/3 45/4/3
f 49/3/3 48/3/3 47/3/3
f 50/3/3 48/3/3 49/3/3
f 53/4/3 52/4/3 51/4/3
f 54/4/3 52/4/3 53/4/3
f 55/4/4 56/4/4 57/4/4
f 57/4/4 56/4/4 58/4/4
f 59/3/4 60/3/4 61/3/4
f 61/3/4 60/3/4 62/3/4
f 63/4/4 64/4/4 65/4/4
f 65/4/4 64/4/4 66/4/4
f 67/2/4 68/2/4 70/2/4
f 68/4/4 69/4/4 71/4/4
f 70/2/4 68/2/4 71/2/4
f 71/4/4 69/4/4 72/4/4
f 75/4/5 74/4/5 73/4/5
f 76/4/5 74/4/5 75/4/5
f 79/4/5 78/4/5 77/4/5
f 80/4/5 78/4/5 79/4/5
f 83/3/5 82/3/5 81/3/5
f 84/3/5 82/3/5 83/3/5
f 87/2/5 86/2/5 85/2/5
f 88/2/5 86/2/5 87/2/5
f 89/2/5 87/2/5 85/2/5
f 90/2/5 86/2/5 88/2/5
f 91/2/5 89/2/5 85/2/5
f 91/2/5 90/2/5 89/2/5
f 92/2/5 86/2/5 90/2/5
f 92/2/5 90/2/5 91/2/5
f 93/4/6 94/4/6 95/4/6
f 95/4/6 94/4/6 96/4/6
f 97/3/6 98/3/6 99/3/6
f 99/3/6 98/3/6 100/3/6
f 101/4/6 102/4/6 103/4/6
f 103/4/6 102/4/6 104/4/6
f 101/4/6 103/4/6 105/4/6
f 103/1/6 104/1/6 105/1/6
f 104/4/6 102/4/6 106/4/6
f 105/1/6 104/1/6 106/1/6
f 101/4/6 105/4/6 107/4/6
f 105/4/6 106/4/6 107/4/6
f 106/4/6 102/4/6 108/4/6
f 107/4/6 106/4/6 108/4/6
