# MagicaVoxel @ Ephtracy

# group
o 

# material
mtllib obj. battery.mtl
usemtl palette

# normals
vn -1 0 0
vn 1 0 0
vn 0 0 1
vn 0 0 -1
vn 0 -1 0
vn 0 1 0

# texcoords
vt 0.201172 0.5
vt 0.306641 0.5
vt 0.958984 0.5
vt 0.974609 0.5
vt 0.978516 0.5
vt 0.994141 0.5

# verts
v -0.4 0 0.4
v -0.4 0 -0.4
v -0.4 0.1 0.2
v -0.4 0.1 0
v -0.4 0.2 0.1
v -0.4 0.2 0
v -0.4 0.3 0.1
v -0.4 0.3 0
v -0.4 0.4 0.2
v -0.4 0.4 0
v -0.4 0.4 -0.1
v -0.4 0.4 -0.2
v -0.4 0.5 0.1
v -0.4 0.5 0
v -0.4 0.5 -0.1
v -0.4 0.5 -0.2
v -0.4 0.6 0
v -0.4 0.6 -0.1
v -0.4 0.7 0.1
v -0.4 0.7 0
v -0.4 0.7 -0.1
v -0.4 0.7 -0.3
v -0.4 0.8 0.2
v -0.4 0.8 0
v -0.4 0.8 -0.3
v -0.4 0.9 0
v -0.4 0.9 -0.1
v -0.4 1 0.2
v -0.4 1 0
v -0.4 1.1 0
v -0.4 1.1 -0.1
v -0.4 1.3 0.4
v -0.4 1.3 -0.4
v -0.4 1.4 0.4
v -0.4 1.4 -0.4
v -0.4 1.7 0.4
v -0.4 1.7 -0.4
v -0.1 1.7 0.1
v -0.1 1.7 -0.1
v -0.1 1.8 0.1
v -0.1 1.8 -0.1
v 0.1 1.7 0.1
v 0.1 1.7 -0.1
v 0.1 1.8 0.1
v 0.1 1.8 -0.1
v 0.4 0 0.4
v 0.4 0 -0.4
v 0.4 0.1 0.2
v 0.4 0.1 0
v 0.4 0.2 0.1
v 0.4 0.2 0
v 0.4 0.3 0.1
v 0.4 0.3 0
v 0.4 0.4 0.2
v 0.4 0.4 0
v 0.4 0.4 -0.1
v 0.4 0.4 -0.2
v 0.4 0.5 0.1
v 0.4 0.5 0
v 0.4 0.5 -0.1
v 0.4 0.5 -0.2
v 0.4 0.6 0
v 0.4 0.6 -0.1
v 0.4 0.7 0.1
v 0.4 0.7 0
v 0.4 0.7 -0.1
v 0.4 0.7 -0.3
v 0.4 0.8 0.2
v 0.4 0.8 0
v 0.4 0.8 -0.3
v 0.4 0.9 0
v 0.4 0.9 -0.1
v 0.4 1 0.2
v 0.4 1 0
v 0.4 1.1 0
v 0.4 1.1 -0.1
v 0.4 1.3 0.4
v 0.4 1.3 -0.4
v 0.4 1.4 0.4
v 0.4 1.4 -0.4
v 0.4 1.7 0.4
v 0.4 1.7 -0.4
v -0.4 0 0.4
v -0.4 1.3 0.4
v -0.4 1.4 0.4
v -0.4 1.7 0.4
v -0.3 0.2 0.4
v -0.3 0.4 0.4
v -0.3 0.7 0.4
v -0.3 0.8 0.4
v -0.2 0.3 0.4
v -0.2 0.4 0.4
v -0.2 0.5 0.4
v -0.2 0.6 0.4
v -0.2 0.7 0.4
v -0.2 0.8 0.4
v -0.2 1 0.4
v -0.1 0.1 0.4
v -0.1 0.2 0.4
v -0.1 0.7 0.4
v -0.1 0.8 0.4
v -0.1 0.9 0.4
v -0.1 1 0.4
v 0 0.2 0.4
v 0 0.3 0.4
v 0 0.4 0.4
v 0 0.5 0.4
v 0 0.6 0.4
v 0 0.8 0.4
v 0 0.9 0.4
v 0 1.1 0.4
v 0.1 0.1 0.4
v 0.1 0.2 0.4
v 0.1 0.3 0.4
v 0.1 0.7 0.4
v 0.1 0.9 0.4
v 0.1 1.1 0.4
v 0.4 0 0.4
v 0.4 1.3 0.4
v 0.4 1.4 0.4
v 0.4 1.7 0.4
v -0.1 1.7 0.1
v -0.1 1.8 0.1
v 0.1 1.7 0.1
v 0.1 1.8 0.1
v -0.1 1.7 -0.1
v -0.1 1.8 -0.1
v 0.1 1.7 -0.1
v 0.1 1.8 -0.1
v -0.4 0 -0.4
v -0.4 1.3 -0.4
v -0.4 1.4 -0.4
v -0.4 1.7 -0.4
v -0.3 0.2 -0.4
v -0.3 0.4 -0.4
v -0.3 0.7 -0.4
v -0.3 0.8 -0.4
v -0.2 0.3 -0.4
v -0.2 0.4 -0.4
v -0.2 0.5 -0.4
v -0.2 0.6 -0.4
v -0.2 0.7 -0.4
v -0.2 0.8 -0.4
v -0.2 1 -0.4
v -0.1 0.1 -0.4
v -0.1 0.2 -0.4
v -0.1 0.7 -0.4
v -0.1 0.8 -0.4
v -0.1 0.9 -0.4
v -0.1 1 -0.4
v 0 0.2 -0.4
v 0 0.3 -0.4
v 0 0.4 -0.4
v 0 0.5 -0.4
v 0 0.6 -0.4
v 0 0.8 -0.4
v 0 0.9 -0.4
v 0 1.1 -0.4
v 0.1 0.1 -0.4
v 0.1 0.2 -0.4
v 0.1 0.3 -0.4
v 0.1 0.7 -0.4
v 0.1 0.9 -0.4
v 0.1 1.1 -0.4
v 0.4 0 -0.4
v 0.4 1.3 -0.4
v 0.4 1.4 -0.4
v 0.4 1.7 -0.4
v -0.4 0 0.4
v 0.4 0 0.4
v -0.4 0 -0.4
v 0.4 0 -0.4
v -0.4 1.7 0.4
v 0.4 1.7 0.4
v -0.1 1.7 0.1
v 0.1 1.7 0.1
v -0.1 1.7 -0.1
v 0.1 1.7 -0.1
v -0.4 1.7 -0.4
v 0.4 1.7 -0.4
v -0.1 1.8 0.1
v 0.1 1.8 0.1
v -0.1 1.8 -0.1
v 0.1 1.8 -0.1

# faces
f 3/6/1 2/6/1 1/6/1
f 4/6/1 2/6/1 3/6/1
f 5/3/1 4/3/1 3/3/1
f 6/6/1 2/6/1 4/6/1
f 6/3/1 4/3/1 5/3/1
f 7/3/1 5/3/1 3/3/1
f 7/6/1 6/6/1 5/6/1
f 8/6/1 2/6/1 6/6/1
f 8/6/1 6/6/1 7/6/1
f 9/6/1 3/6/1 1/6/1
f 9/3/1 7/3/1 3/3/1
f 9/3/1 8/3/1 7/3/1
f 10/6/1 2/6/1 8/6/1
f 10/3/1 8/3/1 9/3/1
f 11/6/1 2/6/1 10/6/1
f 12/6/1 2/6/1 11/6/1
f 13/6/1 10/6/1 9/6/1
f 13/6/1 11/6/1 10/6/1
f 14/6/1 11/6/1 13/6/1
f 15/3/1 12/3/1 11/3/1
f 15/6/1 11/6/1 14/6/1
f 16/6/1 2/6/1 12/6/1
f 16/3/1 12/3/1 15/3/1
f 17/6/1 15/6/1 14/6/1
f 17/3/1 14/3/1 13/3/1
f 17/6/1 16/6/1 15/6/1
f 18/6/1 16/6/1 17/6/1
f 19/6/1 13/6/1 9/6/1
f 19/3/1 17/3/1 13/3/1
f 19/3/1 18/3/1 17/3/1
f 20/3/1 18/3/1 19/3/1
f 21/6/1 16/6/1 18/6/1
f 21/3/1 18/3/1 20/3/1
f 22/6/1 2/6/1 16/6/1
f 22/6/1 16/6/1 21/6/1
f 23/6/1 9/6/1 1/6/1
f 23/6/1 20/6/1 19/6/1
f 23/6/1 19/6/1 9/6/1
f 24/3/1 21/3/1 20/3/1
f 24/6/1 20/6/1 23/6/1
f 24/3/1 22/3/1 21/3/1
f 25/6/1 2/6/1 22/6/1
f 25/3/1 22/3/1 24/3/1
f 26/3/1 24/3/1 23/3/1
f 26/6/1 25/6/1 24/6/1
f 27/6/1 25/6/1 26/6/1
f 28/6/1 23/6/1 1/6/1
f 28/3/1 26/3/1 23/3/1
f 28/3/1 27/3/1 26/3/1
f 29/3/1 27/3/1 28/3/1
f 30/6/1 29/6/1 28/6/1
f 30/3/1 27/3/1 29/3/1
f 31/6/1 25/6/1 27/6/1
f 31/3/1 27/3/1 30/3/1
f 32/6/1 30/6/1 28/6/1
f 32/6/1 28/6/1 1/6/1
f 32/6/1 31/6/1 30/6/1
f 33/6/1 2/6/1 25/6/1
f 33/6/1 31/6/1 32/6/1
f 33/6/1 25/6/1 31/6/1
f 34/4/1 33/4/1 32/4/1
f 35/4/1 33/4/1 34/4/1
f 36/1/1 35/1/1 34/1/1
f 37/1/1 35/1/1 36/1/1
f 40/5/1 39/5/1 38/5/1
f 41/5/1 39/5/1 40/5/1
f 42/5/2 43/5/2 44/5/2
f 44/5/2 43/5/2 45/5/2
f 46/6/2 47/6/2 48/6/2
f 48/6/2 47/6/2 49/6/2
f 48/3/2 49/3/2 50/3/2
f 49/6/2 47/6/2 51/6/2
f 50/3/2 49/3/2 51/3/2
f 48/3/2 50/3/2 52/3/2
f 50/6/2 51/6/2 52/6/2
f 51/6/2 47/6/2 53/6/2
f 52/6/2 51/6/2 53/6/2
f 46/6/2 48/6/2 54/6/2
f 48/3/2 52/3/2 54/3/2
f 52/3/2 53/3/2 54/3/2
f 53/6/2 47/6/2 55/6/2
f 54/3/2 53/3/2 55/3/2
f 55/6/2 47/6/2 56/6/2
f 56/6/2 47/6/2 57/6/2
f 54/6/2 55/6/2 58/6/2
f 55/6/2 56/6/2 58/6/2
f 58/6/2 56/6/2 59/6/2
f 56/3/2 57/3/2 60/3/2
f 59/6/2 56/6/2 60/6/2
f 57/6/2 47/6/2 61/6/2
f 60/3/2 57/3/2 61/3/2
f 59/6/2 60/6/2 62/6/2
f 58/3/2 59/3/2 62/3/2
f 60/6/2 61/6/2 62/6/2
f 62/6/2 61/6/2 63/6/2
f 54/6/2 58/6/2 64/6/2
f 58/3/2 62/3/2 64/3/2
f 62/3/2 63/3/2 64/3/2
f 64/3/2 63/3/2 65/3/2
f 63/6/2 61/6/2 66/6/2
f 65/3/2 63/3/2 66/3/2
f 61/6/2 47/6/2 67/6/2
f 66/6/2 61/6/2 67/6/2
f 46/6/2 54/6/2 68/6/2
f 64/6/2 65/6/2 68/6/2
f 54/6/2 64/6/2 68/6/2
f 65/3/2 66/3/2 69/3/2
f 68/6/2 65/6/2 69/6/2
f 66/3/2 67/3/2 69/3/2
f 67/6/2 47/6/2 70/6/2
f 69/3/2 67/3/2 70/3/2
f 68/3/2 69/3/2 71/3/2
f 69/6/2 70/6/2 71/6/2
f 71/6/2 70/6/2 72/6/2
f 46/6/2 68/6/2 73/6/2
f 68/3/2 71/3/2 73/3/2
f 71/3/2 72/3/2 73/3/2
f 73/3/2 72/3/2 74/3/2
f 73/6/2 74/6/2 75/6/2
f 74/3/2 72/3/2 75/3/2
f 72/6/2 70/6/2 76/6/2
f 75/3/2 72/3/2 76/3/2
f 73/6/2 75/6/2 77/6/2
f 46/6/2 73/6/2 77/6/2
f 75/6/2 76/6/2 77/6/2
f 70/6/2 47/6/2 78/6/2
f 77/6/2 76/6/2 78/6/2
f 76/6/2 70/6/2 78/6/2
f 77/4/2 78/4/2 79/4/2
f 79/4/2 78/4/2 80/4/2
f 79/1/2 80/1/2 81/1/2
f 81/1/2 80/1/2 82/1/2
f 87/6/3 84/6/3 83/6/3
f 88/6/3 84/6/3 87/6/3
f 89/6/3 84/6/3 88/6/3
f 90/6/3 84/6/3 89/6/3
f 91/3/3 88/3/3 87/3/3
f 92/6/3 89/6/3 88/6/3
f 92/3/3 88/3/3 91/3/3
f 93/6/3 89/6/3 92/6/3
f 94/6/3 89/6/3 93/6/3
f 95/3/3 90/3/3 89/3/3
f 95/6/3 89/6/3 94/6/3
f 96/6/3 84/6/3 90/6/3
f 96/3/3 90/3/3 95/3/3
f 97/6/3 84/6/3 96/6/3
f 98/6/3 87/6/3 83/6/3
f 99/3/3 91/3/3 87/3/3
f 99/6/3 87/6/3 98/6/3
f 100/3/3 95/3/3 94/3/3
f 100/3/3 96/3/3 95/3/3
f 100/3/3 97/3/3 96/3/3
f 101/3/3 97/3/3 100/3/3
f 102/3/3 97/3/3 101/3/3
f 103/6/3 84/6/3 97/6/3
f 103/3/3 97/3/3 102/3/3
f 104/3/3 91/3/3 99/3/3
f 104/3/3 99/3/3 98/3/3
f 105/6/3 92/6/3 91/6/3
f 105/3/3 91/3/3 104/3/3
f 106/3/3 93/3/3 92/3/3
f 106/6/3 92/6/3 105/6/3
f 107/6/3 94/6/3 93/6/3
f 107/3/3 93/3/3 106/3/3
f 108/3/3 100/3/3 94/3/3
f 108/6/3 94/6/3 107/6/3
f 109/3/3 102/3/3 101/3/3
f 109/6/3 101/6/3 100/6/3
f 110/6/3 103/6/3 102/6/3
f 110/3/3 102/3/3 109/3/3
f 111/6/3 84/6/3 103/6/3
f 111/6/3 103/6/3 110/6/3
f 112/6/3 98/6/3 83/6/3
f 112/3/3 104/3/3 98/3/3
f 113/6/3 105/6/3 104/6/3
f 113/3/3 104/3/3 112/3/3
f 114/3/3 106/3/3 105/3/3
f 114/6/3 105/6/3 113/6/3
f 114/3/3 107/3/3 106/3/3
f 114/3/3 108/3/3 107/3/3
f 115/3/3 100/3/3 108/3/3
f 115/3/3 108/3/3 114/3/3
f 115/6/3 110/6/3 109/6/3
f 115/6/3 109/6/3 100/6/3
f 116/3/3 111/3/3 110/3/3
f 116/6/3 110/6/3 115/6/3
f 117/6/3 84/6/3 111/6/3
f 117/3/3 111/3/3 116/3/3
f 118/6/3 114/6/3 113/6/3
f 118/6/3 112/6/3 83/6/3
f 118/6/3 117/6/3 116/6/3
f 118/6/3 115/6/3 114/6/3
f 118/6/3 113/6/3 112/6/3
f 118/6/3 116/6/3 115/6/3
f 119/4/3 85/4/3 84/4/3
f 119/6/3 117/6/3 118/6/3
f 119/6/3 84/6/3 117/6/3
f 120/1/3 86/1/3 85/1/3
f 120/4/3 85/4/3 119/4/3
f 121/1/3 86/1/3 120/1/3
f 124/5/3 123/5/3 122/5/3
f 125/5/3 123/5/3 124/5/3
f 126/5/4 127/5/4 128/5/4
f 128/5/4 127/5/4 129/5/4
f 130/6/4 131/6/4 134/6/4
f 134/6/4 131/6/4 135/6/4
f 135/6/4 131/6/4 136/6/4
f 136/6/4 131/6/4 137/6/4
f 134/3/4 135/3/4 138/3/4
f 135/6/4 136/6/4 139/6/4
f 138/3/4 135/3/4 139/3/4
f 139/6/4 136/6/4 140/6/4
f 140/6/4 136/6/4 141/6/4
f 136/3/4 137/3/4 142/3/4
f 141/6/4 136/6/4 142/6/4
f 137/6/4 131/6/4 143/6/4
f 142/3/4 137/3/4 143/3/4
f 143/6/4 131/6/4 144/6/4
f 130/6/4 134/6/4 145/6/4
f 134/3/4 138/3/4 146/3/4
f 145/6/4 134/6/4 146/6/4
f 141/3/4 142/3/4 147/3/4
f 142/3/4 143/3/4 147/3/4
f 143/3/4 144/3/4 147/3/4
f 147/3/4 144/3/4 148/3/4
f 148/3/4 144/3/4 149/3/4
f 144/6/4 131/6/4 150/6/4
f 149/3/4 144/3/4 150/3/4
f 146/3/4 138/3/4 151/3/4
f 145/3/4 146/3/4 151/3/4
f 138/6/4 139/6/4 152/6/4
f 151/3/4 138/3/4 152/3/4
f 139/3/4 140/3/4 153/3/4
f 152/6/4 139/6/4 153/6/4
f 140/6/4 141/6/4 154/6/4
f 153/3/4 140/3/4 154/3/4
f 141/3/4 147/3/4 155/3/4
f 154/6/4 141/6/4 155/6/4
f 148/3/4 149/3/4 156/3/4
f 147/6/4 148/6/4 156/6/4
f 149/6/4 150/6/4 157/6/4
f 156/3/4 149/3/4 157/3/4
f 150/6/4 131/6/4 158/6/4
f 157/6/4 150/6/4 158/6/4
f 130/6/4 145/6/4 159/6/4
f 145/3/4 151/3/4 159/3/4
f 151/6/4 152/6/4 160/6/4
f 159/3/4 151/3/4 160/3/4
f 152/3/4 153/3/4 161/3/4
f 160/6/4 152/6/4 161/6/4
f 153/3/4 154/3/4 161/3/4
f 154/3/4 155/3/4 161/3/4
f 155/3/4 147/3/4 162/3/4
f 161/3/4 155/3/4 162/3/4
f 156/6/4 157/6/4 162/6/4
f 147/6/4 156/6/4 162/6/4
f 157/3/4 158/3/4 163/3/4
f 162/6/4 157/6/4 163/6/4
f 158/6/4 131/6/4 164/6/4
f 163/3/4 158/3/4 164/3/4
f 160/6/4 161/6/4 165/6/4
f 130/6/4 159/6/4 165/6/4
f 163/6/4 164/6/4 165/6/4
f 161/6/4 162/6/4 165/6/4
f 159/6/4 160/6/4 165/6/4
f 162/6/4 163/6/4 165/6/4
f 131/4/4 132/4/4 166/4/4
f 165/6/4 164/6/4 166/6/4
f 164/6/4 131/6/4 166/6/4
f 132/1/4 133/1/4 167/1/4
f 166/4/4 132/4/4 167/4/4
f 167/1/4 133/1/4 168/1/4
f 171/6/5 170/6/5 169/6/5
f 172/6/5 170/6/5 171/6/5
f 173/1/6 174/1/6 175/1/6
f 175/1/6 174/1/6 176/1/6
f 173/1/6 175/1/6 177/1/6
f 176/1/6 174/1/6 178/1/6
f 173/1/6 177/1/6 179/1/6
f 177/1/6 178/1/6 179/1/6
f 178/1/6 174/1/6 180/1/6
f 179/1/6 178/1/6 180/1/6
f 181/5/6 182/5/6 183/5/6
f 183/5/6 182/5/6 184/5/6
