# MagicaVoxel @ Ephtracy

# group
o 

# material
mtllib obj.empty cup.mtl
usemtl palette

# normals
vn -1 0 0
vn 1 0 0
vn 0 0 1
vn 0 0 -1
vn 0 -1 0
vn 0 1 0

# texcoords
vt 0.962891 0.5
vt 0.970703 0.5
vt 0.974609 0.5

# verts
v -0.3 0.1 0.3
v -0.3 0.1 -0.3
v -0.3 0.2 0.3
v -0.3 0.2 -0.3
v -0.3 0.9 0.3
v -0.3 0.9 -0.3
v -0.3 1 0.3
v -0.3 1 -0.3
v 0.2 0.4 0.2
v 0.2 0.4 -0.2
v 0.2 0.9 0.2
v 0.2 0.9 -0.2
v 0.2 1 0.2
v 0.2 1 -0.2
v 0.4 0.4 0.0999998
v 0.4 0.4 -0.1
v 0.4 0.6 0.0999998
v 0.4 0.6 -0.1
v -0.2 0.4 0.2
v -0.2 0.4 -0.2
v -0.2 0.9 0.2
v -0.2 0.9 -0.2
v -0.2 1 0.2
v -0.2 1 -0.2
v 0.3 0.1 0.3
v 0.3 0.1 -0.3
v 0.3 0.2 0.3
v 0.3 0.2 -0.3
v 0.3 0.3 0.0999998
v 0.3 0.3 -0.1
v 0.3 0.4 0.0999998
v 0.3 0.4 -0.1
v 0.3 0.6 0.0999998
v 0.3 0.6 -0.1
v 0.3 0.7 0.0999998
v 0.3 0.7 -0.1
v 0.3 0.9 0.3
v 0.3 0.9 -0.3
v 0.3 1 0.3
v 0.3 1 -0.3
v 0.5 0.3 0.0999998
v 0.5 0.3 -0.1
v 0.5 0.7 0.0999998
v 0.5 0.7 -0.1
v -0.3 0.1 0.3
v -0.3 0.2 0.3
v -0.3 0.9 0.3
v -0.3 1 0.3
v 0.3 0.1 0.3
v 0.3 0.2 0.3
v 0.3 0.9 0.3
v 0.3 1 0.3
v 0.3 0.3 0.0999998
v 0.3 0.4 0.0999998
v 0.3 0.6 0.0999998
v 0.3 0.7 0.0999998
v 0.4 0.4 0.0999998
v 0.4 0.6 0.0999998
v 0.5 0.3 0.0999998
v 0.5 0.7 0.0999998
v -0.2 0.4 -0.2
v -0.2 0.9 -0.2
v -0.2 1 -0.2
v 0.2 0.4 -0.2
v 0.2 0.9 -0.2
v 0.2 1 -0.2
v -0.2 0.4 0.2
v -0.2 0.9 0.2
v -0.2 1 0.2
v 0.2 0.4 0.2
v 0.2 0.9 0.2
v 0.2 1 0.2
v 0.3 0.3 -0.1
v 0.3 0.4 -0.1
v 0.3 0.6 -0.1
v 0.3 0.7 -0.1
v 0.4 0.4 -0.1
v 0.4 0.6 -0.1
v 0.5 0.3 -0.1
v 0.5 0.7 -0.1
v -0.3 0.1 -0.3
v -0.3 0.2 -0.3
v -0.3 0.9 -0.3
v -0.3 1 -0.3
v 0.3 0.1 -0.3
v 0.3 0.2 -0.3
v 0.3 0.9 -0.3
v 0.3 1 -0.3
v -0.3 0.1 0.3
v 0.3 0.1 0.3
v -0.3 0.1 -0.3
v 0.3 0.1 -0.3
v 0.3 0.3 0.0999998
v 0.5 0.3 0.0999998
v 0.3 0.3 -0.1
v 0.5 0.3 -0.1
v 0.3 0.6 0.0999998
v 0.4 0.6 0.0999998
v 0.3 0.6 -0.1
v 0.4 0.6 -0.1
v -0.2 0.4 0.2
v 0.2 0.4 0.2
v 0.3 0.4 0.0999998
v 0.4 0.4 0.0999998
v 0.3 0.4 -0.1
v 0.4 0.4 -0.1
v -0.2 0.4 -0.2
v 0.2 0.4 -0.2
v 0.3 0.7 0.0999998
v 0.5 0.7 0.0999998
v 0.3 0.7 -0.1
v 0.5 0.7 -0.1
v -0.3 1 0.3
v 0.3 1 0.3
v -0.2 1 0.2
v 0.2 1 0.2
v -0.2 1 -0.2
v 0.2 1 -0.2
v -0.3 1 -0.3
v 0.3 1 -0.3

# faces
f 3/3/1 2/3/1 1/3/1
f 4/3/1 2/3/1 3/3/1
f 5/1/1 4/1/1 3/1/1
f 6/1/1 4/1/1 5/1/1
f 7/2/1 6/2/1 5/2/1
f 8/2/1 6/2/1 7/2/1
f 11/1/1 10/1/1 9/1/1
f 12/1/1 10/1/1 11/1/1
f 13/2/1 12/2/1 11/2/1
f 14/2/1 12/2/1 13/2/1
f 17/3/1 16/3/1 15/3/1
f 18/3/1 16/3/1 17/3/1
f 19/1/2 20/1/2 21/1/2
f 21/1/2 20/1/2 22/1/2
f 21/2/2 22/2/2 23/2/2
f 23/2/2 22/2/2 24/2/2
f 25/3/2 26/3/2 27/3/2
f 27/3/2 26/3/2 28/3/2
f 27/1/2 28/1/2 29/1/2
f 29/1/2 28/1/2 30/1/2
f 27/1/2 29/1/2 31/1/2
f 30/1/2 28/1/2 32/1/2
f 27/1/2 31/1/2 33/1/2
f 31/1/2 32/1/2 33/1/2
f 32/1/2 28/1/2 34/1/2
f 33/1/2 32/1/2 34/1/2
f 27/1/2 33/1/2 35/1/2
f 34/1/2 28/1/2 36/1/2
f 27/1/2 35/1/2 37/1/2
f 35/1/2 36/1/2 37/1/2
f 36/1/2 28/1/2 38/1/2
f 37/1/2 36/1/2 38/1/2
f 37/2/2 38/2/2 39/2/2
f 39/2/2 38/2/2 40/2/2
f 41/3/2 42/3/2 43/3/2
f 43/3/2 42/3/2 44/3/2
f 49/3/3 46/3/3 45/3/3
f 50/1/3 47/1/3 46/1/3
f 50/3/3 46/3/3 49/3/3
f 51/2/3 48/2/3 47/2/3
f 51/1/3 47/1/3 50/1/3
f 52/2/3 48/2/3 51/2/3
f 57/3/3 54/3/3 53/3/3
f 58/3/3 56/3/3 55/3/3
f 59/3/3 57/3/3 53/3/3
f 59/3/3 58/3/3 57/3/3
f 60/3/3 56/3/3 58/3/3
f 60/3/3 58/3/3 59/3/3
f 64/1/3 62/1/3 61/1/3
f 65/2/3 63/2/3 62/2/3
f 65/1/3 62/1/3 64/1/3
f 66/2/3 63/2/3 65/2/3
f 67/1/4 68/1/4 70/1/4
f 68/2/4 69/2/4 71/2/4
f 70/1/4 68/1/4 71/1/4
f 71/2/4 69/2/4 72/2/4
f 73/3/4 74/3/4 77/3/4
f 75/3/4 76/3/4 78/3/4
f 73/3/4 77/3/4 79/3/4
f 77/3/4 78/3/4 79/3/4
f 78/3/4 76/3/4 80/3/4
f 79/3/4 78/3/4 80/3/4
f 81/3/4 82/3/4 85/3/4
f 82/1/4 83/1/4 86/1/4
f 85/3/4 82/3/4 86/3/4
f 83/2/4 84/2/4 87/2/4
f 86/1/4 83/1/4 87/1/4
f 87/2/4 84/2/4 88/2/4
f 91/3/5 90/3/5 89/3/5
f 92/3/5 90/3/5 91/3/5
f 95/3/5 94/3/5 93/3/5
f 96/3/5 94/3/5 95/3/5
f 99/3/5 98/3/5 97/3/5
f 100/3/5 98/3/5 99/3/5
f 103/3/6 104/3/6 105/3/6
f 105/3/6 104/3/6 106/3/6
f 101/1/6 102/1/6 107/1/6
f 107/1/6 102/1/6 108/1/6
f 109/3/6 110/3/6 111/3/6
f 111/3/6 110/3/6 112/3/6
f 113/2/6 114/2/6 115/2/6
f 115/2/6 114/2/6 116/2/6
f 113/2/6 115/2/6 117/2/6
f 116/2/6 114/2/6 118/2/6
f 113/2/6 117/2/6 119/2/6
f 117/2/6 118/2/6 119/2/6
f 118/2/6 114/2/6 120/2/6
f 119/2/6 118/2/6 120/2/6
