# MagicaVoxel @ Ephtracy

# group
o 

# material
mtllib obj. tree.mtl
usemtl palette

# normals
vn -1 0 0
vn 1 0 0
vn 0 0 1
vn 0 0 -1
vn 0 -1 0
vn 0 1 0

# texcoords
vt 0.302734 0.5
vt 0.306641 0.5
vt 0.310547 0.5
vt 0.341797 0.5
vt 0.412109 0.5

# verts
v -1.2 0 -0.1
v -1.2 0 -0.4
v -1.2 0.1 -9.68575e-08
v -1.2 0.1 -0.1
v -1.2 0.1 -0.4
v -1.2 0.1 -0.5
v -1.2 0.2 -0.2
v -1.2 0.2 -0.3
v -1.2 0.3 -0.2
v -1.2 0.3 -0.3
v -1.2 0.4 -9.68575e-08
v -1.2 0.4 -0.1
v -1.2 0.4 -0.4
v -1.2 0.4 -0.5
v -1.2 0.5 -0.1
v -1.2 0.5 -0.4
v 1.2 0 -0.1
v 1.2 0 -0.4
v 1.2 0.1 -9.68575e-08
v 1.2 0.1 -0.1
v 1.2 0.1 -0.4
v 1.2 0.1 -0.5
v 1.2 0.2 -0.2
v 1.2 0.2 -0.3
v 1.2 0.3 -0.2
v 1.2 0.3 -0.3
v 1.2 0.4 -9.68575e-08
v 1.2 0.4 -0.1
v 1.2 0.4 -0.4
v 1.2 0.4 -0.5
v 1.2 0.5 -0.1
v 1.2 0.5 -0.4
v -1.2 0.1 -9.68575e-08
v -1.2 0.4 -9.68575e-08
v -0.8 0.2 -9.68575e-08
v -0.8 0.3 -9.68575e-08
v -0.4 0.2 -9.68575e-08
v -0.4 0.3 -9.68575e-08
v 0.3 0.1 -9.68575e-08
v 0.3 0.2 -9.68575e-08
v 0.5 0.1 -9.68575e-08
v 0.5 0.2 -9.68575e-08
v 0.5 0.3 -9.68575e-08
v 1 0.2 -9.68575e-08
v 1 0.3 -9.68575e-08
v 1.2 0.1 -9.68575e-08
v 1.2 0.4 -9.68575e-08
v -1.2 0 -0.1
v -1.2 0.1 -0.1
v -1.2 0.4 -0.1
v -1.2 0.5 -0.1
v 0.3 0.1 -0.1
v 0.5 0.1 -0.1
v 1.2 0 -0.1
v 1.2 0.1 -0.1
v 1.2 0.4 -0.1
v 1.2 0.5 -0.1
v -1.2 0 -0.4
v -1.2 0.1 -0.4
v -1.2 0.4 -0.4
v -1.2 0.5 -0.4
v -0.6 0.4 -0.4
v -0.6 0.5 -0.4
v 0.1 0.4 -0.4
v 0.1 0.5 -0.4
v 1.2 0 -0.4
v 1.2 0.1 -0.4
v 1.2 0.4 -0.4
v 1.2 0.5 -0.4
v -1.2 0.1 -0.5
v -1.2 0.4 -0.5
v 1.2 0.1 -0.5
v 1.2 0.4 -0.5
v -1.2 0 -0.1
v 1.2 0 -0.1
v -1.2 0 -0.4
v 1.2 0 -0.4
v -1.2 0.1 -9.68575e-08
v 0.3 0.1 -9.68575e-08
v 0.5 0.1 -9.68575e-08
v 1.2 0.1 -9.68575e-08
v -1.2 0.1 -0.1
v 0.3 0.1 -0.1
v 0.5 0.1 -0.1
v 1.2 0.1 -0.1
v -1.2 0.1 -0.4
v 1.2 0.1 -0.4
v -1.2 0.1 -0.5
v 1.2 0.1 -0.5
v -1.2 0.4 -9.68575e-08
v 1.2 0.4 -9.68575e-08
v -1.2 0.4 -0.1
v 1.2 0.4 -0.1
v -1.2 0.4 -0.4
v -0.6 0.4 -0.4
v 0.1 0.4 -0.4
v 1.2 0.4 -0.4
v -1.2 0.4 -0.5
v 1.2 0.4 -0.5
v -1.2 0.5 -0.1
v 1.2 0.5 -0.1
v 0.1 0.5 -0.2
v 0.4 0.5 -0.2
v -0.6 0.5 -0.3
v 0.1 0.5 -0.3
v 0.4 0.5 -0.3
v -1.2 0.5 -0.4
v -0.6 0.5 -0.4
v 0.1 0.5 -0.4
v 1.2 0.5 -0.4

# faces
f 4/3/1 2/3/1 1/3/1
f 5/3/1 2/3/1 4/3/1
f 7/1/1 5/1/1 4/1/1
f 8/1/1 5/1/1 7/1/1
f 9/1/1 7/1/1 4/1/1
f 9/2/1 8/2/1 7/2/1
f 10/1/1 5/1/1 8/1/1
f 10/2/1 8/2/1 9/2/1
f 11/3/1 4/3/1 3/3/1
f 12/1/1 9/1/1 4/1/1
f 12/3/1 4/3/1 11/3/1
f 12/1/1 10/1/1 9/1/1
f 13/1/1 5/1/1 10/1/1
f 13/1/1 10/1/1 12/1/1
f 13/3/1 6/3/1 5/3/1
f 14/3/1 6/3/1 13/3/1
f 15/3/1 13/3/1 12/3/1
f 16/3/1 13/3/1 15/3/1
f 17/3/2 18/3/2 20/3/2
f 20/3/2 18/3/2 21/3/2
f 19/3/2 20/3/2 23/3/2
f 21/3/2 22/3/2 23/3/2
f 20/3/2 21/3/2 23/3/2
f 23/3/2 22/3/2 24/3/2
f 19/3/2 23/3/2 25/3/2
f 23/5/2 24/5/2 25/5/2
f 24/3/2 22/3/2 26/3/2
f 25/5/2 24/5/2 26/5/2
f 19/3/2 25/3/2 27/3/2
f 25/3/2 26/3/2 27/3/2
f 27/3/2 26/3/2 28/3/2
f 26/3/2 22/3/2 29/3/2
f 28/3/2 26/3/2 29/3/2
f 29/3/2 22/3/2 30/3/2
f 28/3/2 29/3/2 31/3/2
f 31/3/2 29/3/2 32/3/2
f 35/3/3 34/3/3 33/3/3
f 36/3/3 34/3/3 35/3/3
f 37/3/3 35/3/3 33/3/3
f 37/4/3 36/4/3 35/4/3
f 38/3/3 34/3/3 36/3/3
f 38/4/3 36/4/3 37/4/3
f 39/3/3 37/3/3 33/3/3
f 39/3/3 38/3/3 37/3/3
f 40/3/3 38/3/3 39/3/3
f 41/4/3 40/4/3 39/4/3
f 42/3/3 38/3/3 40/3/3
f 42/4/3 40/4/3 41/4/3
f 43/3/3 34/3/3 38/3/3
f 43/3/3 38/3/3 42/3/3
f 44/3/3 42/3/3 41/3/3
f 44/4/3 43/4/3 42/4/3
f 45/3/3 34/3/3 43/3/3
f 45/4/3 43/4/3 44/4/3
f 46/3/3 44/3/3 41/3/3
f 46/3/3 45/3/3 44/3/3
f 47/3/3 34/3/3 45/3/3
f 47/3/3 45/3/3 46/3/3
f 52/3/3 49/3/3 48/3/3
f 53/3/3 52/3/3 48/3/3
f 54/3/3 53/3/3 48/3/3
f 55/3/3 53/3/3 54/3/3
f 56/3/3 51/3/3 50/3/3
f 57/3/3 51/3/3 56/3/3
f 60/3/4 61/3/4 62/3/4
f 62/3/4 61/3/4 63/3/4
f 62/4/4 63/4/4 64/4/4
f 64/4/4 63/4/4 65/4/4
f 58/3/4 59/3/4 66/3/4
f 66/3/4 59/3/4 67/3/4
f 64/3/4 65/3/4 68/3/4
f 68/3/4 65/3/4 69/3/4
f 70/3/4 71/3/4 72/3/4
f 72/3/4 71/3/4 73/3/4
f 76/3/5 75/3/5 74/3/5
f 77/3/5 75/3/5 76/3/5
f 82/3/5 79/3/5 78/3/5
f 83/4/5 80/4/5 79/4/5
f 83/3/5 79/3/5 82/3/5
f 84/3/5 81/3/5 80/3/5
f 84/4/5 80/4/5 83/4/5
f 85/3/5 81/3/5 84/3/5
f 88/3/5 87/3/5 86/3/5
f 89/3/5 87/3/5 88/3/5
f 90/3/6 91/3/6 92/3/6
f 92/3/6 91/3/6 93/3/6
f 94/3/6 95/3/6 98/3/6
f 96/3/6 97/3/6 98/3/6
f 95/3/6 96/3/6 98/3/6
f 98/3/6 97/3/6 99/3/6
f 100/3/6 101/3/6 102/3/6
f 102/3/6 101/3/6 103/3/6
f 100/3/6 102/3/6 104/3/6
f 102/4/6 103/4/6 105/4/6
f 104/3/6 102/3/6 105/3/6
f 103/3/6 101/3/6 106/3/6
f 105/4/6 103/4/6 106/4/6
f 100/3/6 104/3/6 107/3/6
f 104/4/6 105/4/6 108/4/6
f 107/3/6 104/3/6 108/3/6
f 105/3/6 106/3/6 109/3/6
f 108/4/6 105/4/6 109/4/6
f 106/3/6 101/3/6 110/3/6
f 109/3/6 106/3/6 110/3/6
