# MagicaVoxel @ Ephtracy

# group
o 

# material
mtllib cassette.mtl
usemtl palette

# normals
vn -1 0 0
vn 1 0 0
vn 0 0 1
vn 0 0 -1
vn 0 -1 0
vn 0 1 0

# texcoords
vt 0.0449219 0.5
vt 0.958984 0.5
vt 0.990234 0.5
vt 0.994141 0.5

# verts
v -2.6 0.1 1.4
v -2.6 0.1 1.1
v -2.6 0.3 1.4
v -2.6 0.3 1.1
v -2.5 0.1 1.5
v -2.5 0.1 1.4
v -2.5 0.1 1.1
v -2.5 0.1 1
v -2.5 0.3 1.5
v -2.5 0.3 1.4
v -2.5 0.3 1.1
v -2.5 0.3 1
v -2.4 0.1 1
v -2.4 0.1 0.9
v -2.4 0.3 1
v -2.4 0.3 0.9
v -2.3 0.1 1.6
v -2.3 0.1 1.5
v -2.3 0.1 0.9
v -2.3 0.1 0.8
v -2.3 0.3 1.6
v -2.3 0.3 1.5
v -2.3 0.3 0.9
v -2.3 0.3 0.8
v -2.1 0.1 0.8
v -2.1 0.1 0.7
v -2.1 0.3 0.8
v -2.1 0.3 0.7
v -2 0.1 1.5
v -2 0.1 1.4
v -2 0.1 0.7
v -2 0.1 0.6
v -2 0.3 1.5
v -2 0.3 1.4
v -2 0.3 0.7
v -2 0.3 0.6
v -1.8 0.1 1.4
v -1.8 0.1 1.3
v -1.8 0.1 0.6
v -1.8 0.1 0.5
v -1.8 0.3 1.4
v -1.8 0.3 1.3
v -1.8 0.3 0.6
v -1.8 0.3 0.5
v -1.6 0.1 0.5
v -1.6 0.1 0.4
v -1.6 0.3 0.5
v -1.6 0.3 0.4
v -1.5 0.1 1.3
v -1.5 0.1 1.2
v -1.5 0.3 1.3
v -1.5 0.3 1.2
v -1.4 0.1 1.2
v -1.4 0.1 1.1
v -1.4 0.1 0.4
v -1.4 0.1 0.3
v -1.4 0.3 1.2
v -1.4 0.3 1.1
v -1.4 0.3 0.4
v -1.4 0.3 0.3
v -1.1 0 1.7
v -1.1 0 -1.7
v -1.1 0.1 1.2
v -1.1 0.1 1.1
v -1.1 0.1 1
v -1.1 0.1 0.9
v -1.1 0.1 0.7
v -1.1 0.1 0.4
v -1.1 0.1 0.3
v -1.1 0.1 0.0999999
v -1.1 0.1 -0.4
v -1.1 0.1 -0.5
v -1.1 0.1 -0.6
v -1.1 0.1 -0.7
v -1.1 0.1 -0.8
v -1.1 0.1 -1.1
v -1.1 0.3 1.2
v -1.1 0.3 1.1
v -1.1 0.3 1
v -1.1 0.3 0.9
v -1.1 0.3 0.7
v -1.1 0.3 0.4
v -1.1 0.3 0.3
v -1.1 0.3 0.0999999
v -1.1 0.3 -0.4
v -1.1 0.3 -0.5
v -1.1 0.3 -0.6
v -1.1 0.3 -0.7
v -1.1 0.3 -0.8
v -1.1 0.3 -1.1
v -1.1 0.4 1.7
v -1.1 0.4 -1.7
v -1 0.1 0.9
v -1 0.1 0.7
v -1 0.1 -0.5
v -1 0.1 -0.6
v -1 0.1 -0.7
v -1 0.1 -0.8
v -1 0.3 0.9
v -1 0.3 0.7
v -1 0.3 -0.5
v -1 0.3 -0.6
v -1 0.3 -0.7
v -1 0.3 -0.8
v 0.0999999 0 -1.19209e-07
v 0.0999999 0 -0.1
v 0.0999999 0.4 -1.19209e-07
v 0.0999999 0.4 -0.1
v 0.3 0 0.7
v 0.3 0 0.4
v 0.3 0 0.2
v 0.3 0 -0.1
v 0.3 0 -0.4
v 0.3 0 -0.7
v 0.3 0.2 0.2
v 0.3 0.2 0.0999999
v 0.3 0.3 0.6
v 0.3 0.3 0.5
v 0.3 0.3 -0.5
v 0.3 0.3 -0.6
v 0.3 0.4 0.7
v 0.3 0.4 0.6
v 0.3 0.4 0.5
v 0.3 0.4 0.4
v 0.3 0.4 0.0999999
v 0.3 0.4 -0.1
v 0.3 0.4 -0.4
v 0.3 0.4 -0.5
v 0.3 0.4 -0.6
v 0.3 0.4 -0.7
v -2.5 0.1 1.3
v -2.5 0.1 1.2
v -2.5 0.3 1.3
v -2.5 0.3 1.2
v -2.4 0.1 1.4
v -2.4 0.1 1.3
v -2.4 0.1 1.2
v -2.4 0.1 1.1
v -2.4 0.3 1.4
v -2.4 0.3 1.3
v -2.4 0.3 1.2
v -2.4 0.3 1.1
v -2.3 0.1 1.1
v -2.3 0.1 1
v -2.3 0.3 1.1
v -2.3 0.3 1
v -2.2 0.1 1.5
v -2.2 0.1 1.4
v -2.2 0.1 1
v -2.2 0.1 0.9
v -2.2 0.3 1.5
v -2.2 0.3 1.4
v -2.2 0.3 1
v -2.2 0.3 0.9
v -2 0.1 0.9
v -2 0.1 0.8
v -2 0.3 0.9
v -2 0.3 0.8
v -1.9 0.1 1.6
v -1.9 0.1 1.5
v -1.9 0.1 0.8
v -1.9 0.1 0.7
v -1.9 0.3 1.6
v -1.9 0.3 1.5
v -1.9 0.3 0.8
v -1.9 0.3 0.7
v -1.7 0.1 1.5
v -1.7 0.1 1.4
v -1.7 0.1 0.7
v -1.7 0.1 0.6
v -1.7 0.3 1.5
v -1.7 0.3 1.4
v -1.7 0.3 0.7
v -1.7 0.3 0.6
v -1.5 0.1 0.6
v -1.5 0.1 0.5
v -1.5 0.3 0.6
v -1.5 0.3 0.5
v -1.4 0.1 1.4
v -1.4 0.1 1.3
v -1.4 0.3 1.4
v -1.4 0.3 1.3
v -1.3 0.1 1.3
v -1.3 0.1 1.2
v -1.3 0.1 0.5
v -1.3 0.1 0.4
v -1.3 0.3 1.3
v -1.3 0.3 1.2
v -1.3 0.3 0.5
v -1.3 0.3 0.4
v 0 0 0.7
v 0 0 0.4
v 0 0 0.2
v 0 0 -0.1
v 0 0 -0.4
v 0 0 -0.7
v 0 0.2 0.2
v 0 0.2 0.0999999
v 0 0.3 0.6
v 0 0.3 0.5
v 0 0.3 -0.5
v 0 0.3 -0.6
v 0 0.4 0.7
v 0 0.4 0.6
v 0 0.4 0.5
v 0 0.4 0.4
v 0 0.4 0.0999999
v 0 0.4 -0.1
v 0 0.4 -0.4
v 0 0.4 -0.5
v 0 0.4 -0.6
v 0 0.4 -0.7
v 0.2 0 -1.19209e-07
v 0.2 0 -0.1
v 0.2 0.4 -1.19209e-07
v 0.2 0.4 -0.1
v 1.1 0 1.7
v 1.1 0 -1.7
v 1.1 0.4 1.7
v 1.1 0.4 -1.7
v -1.1 0 1.7
v -1.1 0.4 1.7
v 1.1 0 1.7
v 1.1 0.4 1.7
v -2.3 0.1 1.6
v -2.3 0.3 1.6
v -1.9 0.1 1.6
v -1.9 0.3 1.6
v -2.5 0.1 1.5
v -2.5 0.3 1.5
v -2.3 0.1 1.5
v -2.3 0.3 1.5
v -1.9 0.1 1.5
v -1.9 0.3 1.5
v -1.7 0.1 1.5
v -1.7 0.3 1.5
v -2.6 0.1 1.4
v -2.6 0.3 1.4
v -2.5 0.1 1.4
v -2.5 0.3 1.4
v -1.7 0.1 1.4
v -1.7 0.3 1.4
v -1.4 0.1 1.4
v -1.4 0.3 1.4
v -1.4 0.1 1.3
v -1.4 0.3 1.3
v -1.3 0.1 1.3
v -1.3 0.3 1.3
v -2.5 0.1 1.2
v -2.5 0.3 1.2
v -2.4 0.1 1.2
v -2.4 0.3 1.2
v -1.3 0.1 1.2
v -1.3 0.3 1.2
v -1.1 0.1 1.2
v -1.1 0.3 1.2
v -2.4 0.1 1.1
v -2.4 0.3 1.1
v -2.3 0.1 1.1
v -2.3 0.3 1.1
v -2.3 0.1 1
v -2.3 0.3 1
v -2.2 0.1 1
v -2.2 0.3 1
v -2.2 0.1 0.9
v -2.2 0.3 0.9
v -2 0.1 0.9
v -2 0.3 0.9
v -2 0.1 0.8
v -2 0.3 0.8
v -1.9 0.1 0.8
v -1.9 0.3 0.8
v -1.9 0.1 0.7
v -1.9 0.3 0.7
v -1.7 0.1 0.7
v -1.7 0.3 0.7
v -1.1 0.1 0.7
v -1.1 0.3 0.7
v -1 0.1 0.7
v -1 0.3 0.7
v -1.7 0.1 0.6
v -1.7 0.3 0.6
v -1.5 0.1 0.6
v -1.5 0.3 0.6
v -1.5 0.1 0.5
v -1.5 0.3 0.5
v -1.3 0.1 0.5
v -1.3 0.3 0.5
v -1.3 0.1 0.4
v -1.3 0.3 0.4
v -1.1 0.1 0.4
v -1.1 0.3 0.4
v 0 0 0.4
v 0 0.4 0.4
v 0.0999999 0.3 0.4
v 0.0999999 0.4 0.4
v 0.2 0.3 0.4
v 0.2 0.4 0.4
v 0.3 0 0.4
v 0.3 0.4 0.4
v 0.0999999 0 -1.19209e-07
v 0.0999999 0.4 -1.19209e-07
v 0.2 0 -1.19209e-07
v 0.2 0.4 -1.19209e-07
v 0 0 -0.1
v 0 0.4 -0.1
v 0.0999999 0 -0.1
v 0.0999999 0.4 -0.1
v 0.2 0 -0.1
v 0.2 0.4 -0.1
v 0.3 0 -0.1
v 0.3 0.4 -0.1
v -1.1 0.1 -0.6
v -1.1 0.3 -0.6
v -1 0.1 -0.6
v -1 0.3 -0.6
v 0 0 -0.7
v 0 0.4 -0.7
v 0.0999999 0.3 -0.7
v 0.0999999 0.4 -0.7
v 0.2 0.3 -0.7
v 0.2 0.4 -0.7
v 0.3 0 -0.7
v 0.3 0.4 -0.7
v -1.1 0.1 -0.8
v -1.1 0.3 -0.8
v -1 0.1 -0.8
v -1 0.3 -0.8
v -2.2 0.1 1.5
v -2.2 0.3 1.5
v -2 0.1 1.5
v -2 0.3 1.5
v -2.4 0.1 1.4
v -2.4 0.3 1.4
v -2.2 0.1 1.4
v -2.2 0.3 1.4
v -2 0.1 1.4
v -2 0.3 1.4
v -1.8 0.1 1.4
v -1.8 0.3 1.4
v -2.5 0.1 1.3
v -2.5 0.3 1.3
v -2.4 0.1 1.3
v -2.4 0.3 1.3
v -1.8 0.1 1.3
v -1.8 0.3 1.3
v -1.5 0.1 1.3
v -1.5 0.3 1.3
v -1.5 0.1 1.2
v -1.5 0.3 1.2
v -1.4 0.1 1.2
v -1.4 0.3 1.2
v -2.6 0.1 1.1
v -2.6 0.3 1.1
v -2.5 0.1 1.1
v -2.5 0.3 1.1
v -1.4 0.1 1.1
v -1.4 0.3 1.1
v -1.1 0.1 1.1
v -1.1 0.3 1.1
v -2.5 0.1 1
v -2.5 0.3 1
v -2.4 0.1 1
v -2.4 0.3 1
v -2.4 0.1 0.9
v -2.4 0.3 0.9
v -2.3 0.1 0.9
v -2.3 0.3 0.9
v -1.1 0.1 0.9
v -1.1 0.3 0.9
v -1 0.1 0.9
v -1 0.3 0.9
v -2.3 0.1 0.8
v -2.3 0.3 0.8
v -2.1 0.1 0.8
v -2.1 0.3 0.8
v -2.1 0.1 0.7
v -2.1 0.3 0.7
v -2 0.1 0.7
v -2 0.3 0.7
v 0 0 0.7
v 0 0.4 0.7
v 0.0999999 0.3 0.7
v 0.0999999 0.4 0.7
v 0.2 0.3 0.7
v 0.2 0.4 0.7
v 0.3 0 0.7
v 0.3 0.4 0.7
v -2 0.1 0.6
v -2 0.3 0.6
v -1.8 0.1 0.6
v -1.8 0.3 0.6
v -1.8 0.1 0.5
v -1.8 0.3 0.5
v -1.6 0.1 0.5
v -1.6 0.3 0.5
v -1.6 0.1 0.4
v -1.6 0.3 0.4
v -1.4 0.1 0.4
v -1.4 0.3 0.4
v -1.4 0.1 0.3
v -1.4 0.3 0.3
v -1.1 0.1 0.3
v -1.1 0.3 0.3
v 0 0 0.2
v 0 0.2 0.2
v 0.3 0 0.2
v 0.3 0.2 0.2
v 0 0.2 0.0999999
v 0 0.4 0.0999999
v 0.3 0.2 0.0999999
v 0.3 0.4 0.0999999
v 0 0 -0.4
v 0 0.4 -0.4
v 0.0999999 0.3 -0.4
v 0.0999999 0.4 -0.4
v 0.2 0.3 -0.4
v 0.2 0.4 -0.4
v 0.3 0 -0.4
v 0.3 0.4 -0.4
v -1.1 0.1 -0.5
v -1.1 0.3 -0.5
v -1 0.1 -0.5
v -1 0.3 -0.5
v -1.1 0.1 -0.7
v -1.1 0.3 -0.7
v -1 0.1 -0.7
v -1 0.3 -0.7
v -1.1 0 -1.7
v -1.1 0.4 -1.7
v 1.1 0 -1.7
v 1.1 0.4 -1.7
v -1.1 0 1.7
v 1.1 0 1.7
v 0 0 0.7
v 0.3 0 0.7
v 0 0 0.4
v 0.3 0 0.4
v 0 0 0.2
v 0.3 0 0.2
v 0.0999999 0 -1.19209e-07
v 0.2 0 -1.19209e-07
v 0 0 -0.1
v 0.0999999 0 -0.1
v 0.2 0 -0.1
v 0.3 0 -0.1
v 0 0 -0.2
v 0.3 0 -0.2
v 0 0 -0.4
v 0.3 0 -0.4
v 0 0 -0.7
v 0.3 0 -0.7
v -1.1 0 -1.7
v 1.1 0 -1.7
v -2.3 0.1 1.6
v -1.9 0.1 1.6
v -2.5 0.1 1.5
v -2.3 0.1 1.5
v -2.2 0.1 1.5
v -2 0.1 1.5
v -1.9 0.1 1.5
v -1.7 0.1 1.5
v -2.6 0.1 1.4
v -2.5 0.1 1.4
v -2.4 0.1 1.4
v -2.2 0.1 1.4
v -2 0.1 1.4
v -1.8 0.1 1.4
v -1.7 0.1 1.4
v -1.4 0.1 1.4
v -2.5 0.1 1.3
v -2.4 0.1 1.3
v -1.8 0.1 1.3
v -1.5 0.1 1.3
v -1.4 0.1 1.3
v -1.3 0.1 1.3
v -2.5 0.1 1.2
v -2.4 0.1 1.2
v -1.5 0.1 1.2
v -1.4 0.1 1.2
v -1.3 0.1 1.2
v -1.1 0.1 1.2
v -2.6 0.1 1.1
v -2.5 0.1 1.1
v -2.4 0.1 1.1
v -2.3 0.1 1.1
v -1.4 0.1 1.1
v -1.1 0.1 1.1
v -2.5 0.1 1
v -2.4 0.1 1
v -2.3 0.1 1
v -2.2 0.1 1
v -2.4 0.1 0.9
v -2.3 0.1 0.9
v -2.2 0.1 0.9
v -2 0.1 0.9
v -2.3 0.1 0.8
v -2.1 0.1 0.8
v -2 0.1 0.8
v -1.9 0.1 0.8
v -2.1 0.1 0.7
v -2 0.1 0.7
v -1.9 0.1 0.7
v -1.7 0.1 0.7
v -2 0.1 0.6
v -1.8 0.1 0.6
v -1.7 0.1 0.6
v -1.5 0.1 0.6
v -1.8 0.1 0.5
v -1.6 0.1 0.5
v -1.5 0.1 0.5
v -1.3 0.1 0.5
v -1.6 0.1 0.4
v -1.4 0.1 0.4
v -1.3 0.1 0.4
v -1.1 0.1 0.4
v -1.4 0.1 0.3
v -1.1 0.1 0.3
v 0 0.2 0.2
v 0.3 0.2 0.2
v 0 0.2 0.0999999
v 0.3 0.2 0.0999999
v -1.1 0.3 0.9
v -1 0.3 0.9
v -1.1 0.3 0.7
v -1 0.3 0.7
v -1.1 0.3 -0.5
v -1 0.3 -0.5
v -1.1 0.3 -0.6
v -1 0.3 -0.6
v -1.1 0.3 -0.7
v -1 0.3 -0.7
v -1.1 0.3 -0.8
v -1 0.3 -0.8
v -1.1 0.1 0.9
v -1 0.1 0.9
v -1.1 0.1 0.7
v -1 0.1 0.7
v -1.1 0.1 -0.5
v -1 0.1 -0.5
v -1.1 0.1 -0.6
v -1 0.1 -0.6
v -1.1 0.1 -0.7
v -1 0.1 -0.7
v -1.1 0.1 -0.8
v -1 0.1 -0.8
v -2.3 0.3 1.6
v -1.9 0.3 1.6
v -2.5 0.3 1.5
v -2.3 0.3 1.5
v -2.2 0.3 1.5
v -2 0.3 1.5
v -1.9 0.3 1.5
v -1.7 0.3 1.5
v -2.6 0.3 1.4
v -2.5 0.3 1.4
v -2.4 0.3 1.4
v -2.2 0.3 1.4
v -2 0.3 1.4
v -1.8 0.3 1.4
v -1.7 0.3 1.4
v -1.4 0.3 1.4
v -2.5 0.3 1.3
v -2.4 0.3 1.3
v -1.8 0.3 1.3
v -1.5 0.3 1.3
v -1.4 0.3 1.3
v -1.3 0.3 1.3
v -2.5 0.3 1.2
v -2.4 0.3 1.2
v -1.5 0.3 1.2
v -1.4 0.3 1.2
v -1.3 0.3 1.2
v -1.1 0.3 1.2
v -2.6 0.3 1.1
v -2.5 0.3 1.1
v -2.4 0.3 1.1
v -2.3 0.3 1.1
v -1.4 0.3 1.1
v -1.1 0.3 1.1
v -2.5 0.3 1
v -2.4 0.3 1
v -2.3 0.3 1
v -2.2 0.3 1
v -2.4 0.3 0.9
v -2.3 0.3 0.9
v -2.2 0.3 0.9
v -2 0.3 0.9
v -2.3 0.3 0.8
v -2.1 0.3 0.8
v -2 0.3 0.8
v -1.9 0.3 0.8
v -2.1 0.3 0.7
v -2 0.3 0.7
v -1.9 0.3 0.7
v -1.7 0.3 0.7
v -2 0.3 0.6
v -1.8 0.3 0.6
v -1.7 0.3 0.6
v -1.5 0.3 0.6
v -1.8 0.3 0.5
v -1.6 0.3 0.5
v -1.5 0.3 0.5
v -1.3 0.3 0.5
v -1.6 0.3 0.4
v -1.4 0.3 0.4
v -1.3 0.3 0.4
v -1.1 0.3 0.4
v -1.4 0.3 0.3
v -1.1 0.3 0.3
v -1.1 0.4 1.7
v 1.1 0.4 1.7
v -0.3 0.4 1.6
v 1 0.4 1.6
v -0.5 0.4 1.5
v -0.4 0.4 1.5
v 0.6 0.4 1.5
v 0.7 0.4 1.5
v 0.8 0.4 1.5
v 0.9 0.4 1.5
v -0.2 0.4 0.9
v 0.5 0.4 0.9
v 0.0999999 0.4 0.8
v 0.2 0.4 0.8
v 0 0.4 0.7
v 0.0999999 0.4 0.7
v 0.2 0.4 0.7
v 0.3 0.4 0.7
v -0.0999999 0.4 0.6
v 0 0.4 0.6
v 0.3 0.4 0.6
v 0.4 0.4 0.6
v -0.0999999 0.4 0.5
v 0 0.4 0.5
v 0.3 0.4 0.5
v 0.4 0.4 0.5
v 0 0.4 0.4
v 0.0999999 0.4 0.4
v 0.2 0.4 0.4
v 0.3 0.4 0.4
v 0.0999999 0.4 0.3
v 0.2 0.4 0.3
v 0 0.4 0.2
v 0.3 0.4 0.2
v 0 0.4 0.0999999
v 0.3 0.4 0.0999999
v 0.0999999 0.4 -1.19209e-07
v 0.2 0.4 -1.19209e-07
v 0 0.4 -0.1
v 0.0999999 0.4 -0.1
v 0.2 0.4 -0.1
v 0.3 0.4 -0.1
v 0 0.4 -0.2
v 0.3 0.4 -0.2
v 0.0999999 0.4 -0.3
v 0.2 0.4 -0.3
v 0 0.4 -0.4
v 0.0999999 0.4 -0.4
v 0.2 0.4 -0.4
v 0.3 0.4 -0.4
v -0.0999999 0.4 -0.5
v 0 0.4 -0.5
v 0.3 0.4 -0.5
v 0.4 0.4 -0.5
v -0.0999999 0.4 -0.6
v 0 0.4 -0.6
v 0.3 0.4 -0.6
v 0.4 0.4 -0.6
v 0 0.4 -0.7
v 0.0999999 0.4 -0.7
v 0.2 0.4 -0.7
v 0.3 0.4 -0.7
v 0.0999999 0.4 -0.8
v 0.2 0.4 -0.8
v -0.2 0.4 -0.9
v 0.5 0.4 -0.9
v -0.5 0.4 -1.5
v -0.4 0.4 -1.5
v 0.6 0.4 -1.5
v 0.7 0.4 -1.5
v 0.8 0.4 -1.5
v 0.9 0.4 -1.5
v -0.3 0.4 -1.6
v 1 0.4 -1.6
v -1.1 0.4 -1.7
v 1.1 0.4 -1.7

# faces
f 3/3/1 2/3/1 1/3/1
f 4/3/1 2/3/1 3/3/1
f 9/3/1 6/3/1 5/3/1
f 10/3/1 6/3/1 9/3/1
f 11/3/1 8/3/1 7/3/1
f 12/3/1 8/3/1 11/3/1
f 15/3/1 14/3/1 13/3/1
f 16/3/1 14/3/1 15/3/1
f 21/3/1 18/3/1 17/3/1
f 22/3/1 18/3/1 21/3/1
f 23/3/1 20/3/1 19/3/1
f 24/3/1 20/3/1 23/3/1
f 27/3/1 26/3/1 25/3/1
f 28/3/1 26/3/1 27/3/1
f 33/3/1 30/3/1 29/3/1
f 34/3/1 30/3/1 33/3/1
f 35/3/1 32/3/1 31/3/1
f 36/3/1 32/3/1 35/3/1
f 41/3/1 38/3/1 37/3/1
f 42/3/1 38/3/1 41/3/1
f 43/3/1 40/3/1 39/3/1
f 44/3/1 40/3/1 43/3/1
f 47/3/1 46/3/1 45/3/1
f 48/3/1 46/3/1 47/3/1
f 51/3/1 50/3/1 49/3/1
f 52/3/1 50/3/1 51/3/1
f 57/3/1 54/3/1 53/3/1
f 58/3/1 54/3/1 57/3/1
f 59/3/1 56/3/1 55/3/1
f 60/3/1 56/3/1 59/3/1
f 63/1/1 62/1/1 61/1/1
f 64/1/1 62/1/1 63/1/1
f 65/1/1 62/1/1 64/1/1
f 66/1/1 62/1/1 65/1/1
f 67/1/1 62/1/1 66/1/1
f 68/1/1 62/1/1 67/1/1
f 69/1/1 62/1/1 68/1/1
f 70/1/1 62/1/1 69/1/1
f 71/1/1 62/1/1 70/1/1
f 72/1/1 62/1/1 71/1/1
f 73/1/1 62/1/1 72/1/1
f 74/1/1 62/1/1 73/1/1
f 75/1/1 62/1/1 74/1/1
f 76/1/1 62/1/1 75/1/1
f 77/1/1 63/1/1 61/1/1
f 78/3/1 65/3/1 64/3/1
f 79/1/1 66/1/1 65/1/1
f 79/3/1 65/3/1 78/3/1
f 80/1/1 66/1/1 79/1/1
f 81/3/1 68/3/1 67/3/1
f 82/3/1 68/3/1 81/3/1
f 83/3/1 70/3/1 69/3/1
f 84/1/1 71/1/1 70/1/1
f 84/3/1 70/3/1 83/3/1
f 85/3/1 72/3/1 71/3/1
f 85/1/1 71/1/1 84/1/1
f 86/3/1 72/3/1 85/3/1
f 87/1/1 74/1/1 73/1/1
f 88/1/1 74/1/1 87/1/1
f 89/3/1 76/3/1 75/3/1
f 90/1/1 62/1/1 76/1/1
f 90/3/1 76/3/1 89/3/1
f 91/1/1 89/1/1 88/1/1
f 91/1/1 88/1/1 87/1/1
f 91/1/1 90/1/1 89/1/1
f 91/1/1 77/1/1 61/1/1
f 91/1/1 87/1/1 86/1/1
f 91/1/1 78/1/1 77/1/1
f 91/1/1 85/1/1 84/1/1
f 91/1/1 86/1/1 85/1/1
f 91/1/1 81/1/1 80/1/1
f 91/1/1 80/1/1 79/1/1
f 91/1/1 79/1/1 78/1/1
f 91/1/1 84/1/1 83/1/1
f 91/1/1 83/1/1 82/1/1
f 91/1/1 82/1/1 81/1/1
f 92/1/1 62/1/1 90/1/1
f 92/1/1 90/1/1 91/1/1
f 99/1/1 94/1/1 93/1/1
f 100/1/1 94/1/1 99/1/1
f 101/1/1 96/1/1 95/1/1
f 102/1/1 96/1/1 101/1/1
f 103/1/1 98/1/1 97/1/1
f 104/1/1 98/1/1 103/1/1
f 107/4/1 106/4/1 105/4/1
f 108/4/1 106/4/1 107/4/1
f 115/1/1 112/1/1 111/1/1
f 116/1/1 112/1/1 115/1/1
f 117/1/1 110/1/1 109/1/1
f 118/1/1 110/1/1 117/1/1
f 119/1/1 114/1/1 113/1/1
f 120/1/1 114/1/1 119/1/1
f 121/1/1 117/1/1 109/1/1
f 122/2/1 118/2/1 117/2/1
f 122/1/1 117/1/1 121/1/1
f 123/1/1 110/1/1 118/1/1
f 123/2/1 118/2/1 122/2/1
f 124/1/1 110/1/1 123/1/1
f 125/1/1 112/1/1 116/1/1
f 126/1/1 112/1/1 125/1/1
f 127/1/1 119/1/1 113/1/1
f 128/2/1 120/2/1 119/2/1
f 128/1/1 119/1/1 127/1/1
f 129/1/1 114/1/1 120/1/1
f 129/2/1 120/2/1 128/2/1
f 130/1/1 114/1/1 129/1/1
f 131/3/2 132/3/2 133/3/2
f 133/3/2 132/3/2 134/3/2
f 135/3/2 136/3/2 139/3/2
f 139/3/2 136/3/2 140/3/2
f 137/3/2 138/3/2 141/3/2
f 141/3/2 138/3/2 142/3/2
f 143/3/2 144/3/2 145/3/2
f 145/3/2 144/3/2 146/3/2
f 147/3/2 148/3/2 151/3/2
f 151/3/2 148/3/2 152/3/2
f 149/3/2 150/3/2 153/3/2
f 153/3/2 150/3/2 154/3/2
f 155/3/2 156/3/2 157/3/2
f 157/3/2 156/3/2 158/3/2
f 159/3/2 160/3/2 163/3/2
f 163/3/2 160/3/2 164/3/2
f 161/3/2 162/3/2 165/3/2
f 165/3/2 162/3/2 166/3/2
f 167/3/2 168/3/2 171/3/2
f 171/3/2 168/3/2 172/3/2
f 169/3/2 170/3/2 173/3/2
f 173/3/2 170/3/2 174/3/2
f 175/3/2 176/3/2 177/3/2
f 177/3/2 176/3/2 178/3/2
f 179/3/2 180/3/2 181/3/2
f 181/3/2 180/3/2 182/3/2
f 183/3/2 184/3/2 187/3/2
f 187/3/2 184/3/2 188/3/2
f 185/3/2 186/3/2 189/3/2
f 189/3/2 186/3/2 190/3/2
f 193/1/2 194/1/2 197/1/2
f 197/1/2 194/1/2 198/1/2
f 191/1/2 192/1/2 199/1/2
f 199/1/2 192/1/2 200/1/2
f 195/1/2 196/1/2 201/1/2
f 201/1/2 196/1/2 202/1/2
f 191/1/2 199/1/2 203/1/2
f 199/2/2 200/2/2 204/2/2
f 203/1/2 199/1/2 204/1/2
f 200/1/2 192/1/2 205/1/2
f 204/2/2 200/2/2 205/2/2
f 205/1/2 192/1/2 206/1/2
f 198/1/2 194/1/2 207/1/2
f 207/1/2 194/1/2 208/1/2
f 195/1/2 201/1/2 209/1/2
f 201/2/2 202/2/2 210/2/2
f 209/1/2 201/1/2 210/1/2
f 202/1/2 196/1/2 211/1/2
f 210/2/2 202/2/2 211/2/2
f 211/1/2 196/1/2 212/1/2
f 213/4/2 214/4/2 215/4/2
f 215/4/2 214/4/2 216/4/2
f 217/1/2 218/1/2 219/1/2
f 219/1/2 218/1/2 220/1/2
f 223/1/3 222/1/3 221/1/3
f 224/1/3 222/1/3 223/1/3
f 227/3/3 226/3/3 225/3/3
f 228/3/3 226/3/3 227/3/3
f 231/3/3 230/3/3 229/3/3
f 232/3/3 230/3/3 231/3/3
f 235/3/3 234/3/3 233/3/3
f 236/3/3 234/3/3 235/3/3
f 239/3/3 238/3/3 237/3/3
f 240/3/3 238/3/3 239/3/3
f 243/3/3 242/3/3 241/3/3
f 244/3/3 242/3/3 243/3/3
f 247/3/3 246/3/3 245/3/3
f 248/3/3 246/3/3 247/3/3
f 251/3/3 250/3/3 249/3/3
f 252/3/3 250/3/3 251/3/3
f 255/3/3 254/3/3 253/3/3
f 256/3/3 254/3/3 255/3/3
f 259/3/3 258/3/3 257/3/3
f 260/3/3 258/3/3 259/3/3
f 263/3/3 262/3/3 261/3/3
f 264/3/3 262/3/3 263/3/3
f 267/3/3 266/3/3 265/3/3
f 268/3/3 266/3/3 267/3/3
f 271/3/3 270/3/3 269/3/3
f 272/3/3 270/3/3 271/3/3
f 275/3/3 274/3/3 273/3/3
f 276/3/3 274/3/3 275/3/3
f 279/3/3 278/3/3 277/3/3
f 280/3/3 278/3/3 279/3/3
f 283/3/3 282/3/3 281/3/3
f 284/3/3 282/3/3 283/3/3
f 287/3/3 286/3/3 285/3/3
f 288/3/3 286/3/3 287/3/3
f 291/3/3 290/3/3 289/3/3
f 292/3/3 290/3/3 291/3/3
f 295/1/3 294/1/3 293/1/3
f 296/1/3 294/1/3 295/1/3
f 297/1/3 295/1/3 293/1/3
f 297/2/3 296/2/3 295/2/3
f 298/2/3 296/2/3 297/2/3
f 299/1/3 297/1/3 293/1/3
f 299/1/3 298/1/3 297/1/3
f 300/1/3 298/1/3 299/1/3
f 303/4/3 302/4/3 301/4/3
f 304/4/3 302/4/3 303/4/3
f 307/4/3 306/4/3 305/4/3
f 308/4/3 306/4/3 307/4/3
f 311/4/3 310/4/3 309/4/3
f 312/4/3 310/4/3 311/4/3
f 315/1/3 314/1/3 313/1/3
f 316/1/3 314/1/3 315/1/3
f 319/1/3 318/1/3 317/1/3
f 320/1/3 318/1/3 319/1/3
f 321/1/3 319/1/3 317/1/3
f 321/2/3 320/2/3 319/2/3
f 322/2/3 320/2/3 321/2/3
f 323/1/3 321/1/3 317/1/3
f 323/1/3 322/1/3 321/1/3
f 324/1/3 322/1/3 323/1/3
f 327/3/3 326/3/3 325/3/3
f 328/3/3 326/3/3 327/3/3
f 329/3/4 330/3/4 331/3/4
f 331/3/4 330/3/4 332/3/4
f 333/3/4 334/3/4 335/3/4
f 335/3/4 334/3/4 336/3/4
f 337/3/4 338/3/4 339/3/4
f 339/3/4 338/3/4 340/3/4
f 341/3/4 342/3/4 343/3/4
f 343/3/4 342/3/4 344/3/4
f 345/3/4 346/3/4 347/3/4
f 347/3/4 346/3/4 348/3/4
f 349/3/4 350/3/4 351/3/4
f 351/3/4 350/3/4 352/3/4
f 353/3/4 354/3/4 355/3/4
f 355/3/4 354/3/4 356/3/4
f 357/3/4 358/3/4 359/3/4
f 359/3/4 358/3/4 360/3/4
f 361/3/4 362/3/4 363/3/4
f 363/3/4 362/3/4 364/3/4
f 365/3/4 366/3/4 367/3/4
f 367/3/4 366/3/4 368/3/4
f 369/1/4 370/1/4 371/1/4
f 371/1/4 370/1/4 372/1/4
f 373/3/4 374/3/4 375/3/4
f 375/3/4 374/3/4 376/3/4
f 377/3/4 378/3/4 379/3/4
f 379/3/4 378/3/4 380/3/4
f 381/1/4 382/1/4 383/1/4
f 383/1/4 382/1/4 384/1/4
f 381/1/4 383/1/4 385/1/4
f 383/2/4 384/2/4 385/2/4
f 385/2/4 384/2/4 386/2/4
f 381/1/4 385/1/4 387/1/4
f 385/1/4 386/1/4 387/1/4
f 387/1/4 386/1/4 388/1/4
f 389/3/4 390/3/4 391/3/4
f 391/3/4 390/3/4 392/3/4
f 393/3/4 394/3/4 395/3/4
f 395/3/4 394/3/4 396/3/4
f 397/3/4 398/3/4 399/3/4
f 399/3/4 398/3/4 400/3/4
f 401/3/4 402/3/4 403/3/4
f 403/3/4 402/3/4 404/3/4
f 405/1/4 406/1/4 407/1/4
f 407/1/4 406/1/4 408/1/4
f 409/3/4 410/3/4 411/3/4
f 411/3/4 410/3/4 412/3/4
f 413/1/4 414/1/4 415/1/4
f 415/1/4 414/1/4 416/1/4
f 413/1/4 415/1/4 417/1/4
f 415/2/4 416/2/4 417/2/4
f 417/2/4 416/2/4 418/2/4
f 413/1/4 417/1/4 419/1/4
f 417/1/4 418/1/4 419/1/4
f 419/1/4 418/1/4 420/1/4
f 421/3/4 422/3/4 423/3/4
f 423/3/4 422/3/4 424/3/4
f 425/1/4 426/1/4 427/1/4
f 427/1/4 426/1/4 428/1/4
f 429/1/4 430/1/4 431/1/4
f 431/1/4 430/1/4 432/1/4
f 435/1/5 434/1/5 433/1/5
f 436/1/5 434/1/5 435/1/5
f 437/1/5 435/1/5 433/1/5
f 438/1/5 434/1/5 436/1/5
f 439/1/5 437/1/5 433/1/5
f 439/1/5 438/1/5 437/1/5
f 440/1/5 434/1/5 438/1/5
f 440/1/5 438/1/5 439/1/5
f 443/1/5 439/1/5 433/1/5
f 444/4/5 442/4/5 441/4/5
f 445/4/5 442/4/5 444/4/5
f 446/1/5 434/1/5 440/1/5
f 447/1/5 443/1/5 433/1/5
f 447/4/5 446/4/5 445/4/5
f 447/4/5 445/4/5 444/4/5
f 447/4/5 444/4/5 443/4/5
f 448/1/5 434/1/5 446/1/5
f 448/4/5 446/4/5 447/4/5
f 449/1/5 447/1/5 433/1/5
f 449/1/5 448/1/5 447/1/5
f 450/1/5 434/1/5 448/1/5
f 450/1/5 448/1/5 449/1/5
f 451/1/5 449/1/5 433/1/5
f 452/1/5 434/1/5 450/1/5
f 453/1/5 451/1/5 433/1/5
f 453/1/5 452/1/5 451/1/5
f 454/1/5 434/1/5 452/1/5
f 454/1/5 452/1/5 453/1/5
f 458/3/5 456/3/5 455/3/5
f 459/3/5 456/3/5 458/3/5
f 460/3/5 456/3/5 459/3/5
f 461/3/5 456/3/5 460/3/5
f 464/3/5 458/3/5 457/3/5
f 464/3/5 459/3/5 458/3/5
f 465/3/5 459/3/5 464/3/5
f 466/3/5 459/3/5 465/3/5
f 467/3/5 461/3/5 460/3/5
f 467/3/5 462/3/5 461/3/5
f 468/3/5 462/3/5 467/3/5
f 469/3/5 462/3/5 468/3/5
f 471/3/5 465/3/5 464/3/5
f 471/3/5 464/3/5 463/3/5
f 472/3/5 465/3/5 471/3/5
f 473/3/5 470/3/5 469/3/5
f 473/3/5 469/3/5 468/3/5
f 474/3/5 470/3/5 473/3/5
f 475/3/5 470/3/5 474/3/5
f 477/3/5 471/3/5 463/3/5
f 479/3/5 476/3/5 475/3/5
f 479/3/5 475/3/5 474/3/5
f 480/3/5 476/3/5 479/3/5
f 481/3/5 476/3/5 480/3/5
f 483/3/5 478/3/5 477/3/5
f 483/3/5 477/3/5 463/3/5
f 484/3/5 478/3/5 483/3/5
f 485/3/5 478/3/5 484/3/5
f 487/3/5 482/3/5 481/3/5
f 487/3/5 481/3/5 480/3/5
f 488/3/5 482/3/5 487/3/5
f 489/3/5 486/3/5 485/3/5
f 489/3/5 485/3/5 484/3/5
f 490/3/5 486/3/5 489/3/5
f 491/3/5 486/3/5 490/3/5
f 493/3/5 492/3/5 491/3/5
f 493/3/5 491/3/5 490/3/5
f 494/3/5 492/3/5 493/3/5
f 495/3/5 492/3/5 494/3/5
f 497/3/5 496/3/5 495/3/5
f 497/3/5 495/3/5 494/3/5
f 498/3/5 496/3/5 497/3/5
f 499/3/5 496/3/5 498/3/5
f 501/3/5 500/3/5 499/3/5
f 501/3/5 499/3/5 498/3/5
f 502/3/5 500/3/5 501/3/5
f 503/3/5 500/3/5 502/3/5
f 505/3/5 504/3/5 503/3/5
f 505/3/5 503/3/5 502/3/5
f 506/3/5 504/3/5 505/3/5
f 507/3/5 504/3/5 506/3/5
f 509/3/5 508/3/5 507/3/5
f 509/3/5 507/3/5 506/3/5
f 510/3/5 508/3/5 509/3/5
f 511/3/5 508/3/5 510/3/5
f 513/3/5 512/3/5 511/3/5
f 513/3/5 511/3/5 510/3/5
f 514/3/5 512/3/5 513/3/5
f 515/3/5 512/3/5 514/3/5
f 517/3/5 516/3/5 515/3/5
f 517/3/5 515/3/5 514/3/5
f 518/3/5 516/3/5 517/3/5
f 521/3/5 520/3/5 519/3/5
f 522/3/5 520/3/5 521/3/5
f 525/1/5 524/1/5 523/1/5
f 526/1/5 524/1/5 525/1/5
f 529/1/5 528/1/5 527/1/5
f 530/1/5 528/1/5 529/1/5
f 533/1/5 532/1/5 531/1/5
f 534/1/5 532/1/5 533/1/5
f 535/1/6 536/1/6 537/1/6
f 537/1/6 536/1/6 538/1/6
f 539/1/6 540/1/6 541/1/6
f 541/1/6 540/1/6 542/1/6
f 543/1/6 544/1/6 545/1/6
f 545/1/6 544/1/6 546/1/6
f 547/3/6 548/3/6 550/3/6
f 550/3/6 548/3/6 551/3/6
f 551/3/6 548/3/6 552/3/6
f 552/3/6 548/3/6 553/3/6
f 549/3/6 550/3/6 556/3/6
f 550/3/6 551/3/6 556/3/6
f 556/3/6 551/3/6 557/3/6
f 557/3/6 551/3/6 558/3/6
f 552/3/6 553/3/6 559/3/6
f 553/3/6 554/3/6 559/3/6
f 559/3/6 554/3/6 560/3/6
f 560/3/6 554/3/6 561/3/6
f 556/3/6 557/3/6 563/3/6
f 555/3/6 556/3/6 563/3/6
f 563/3/6 557/3/6 564/3/6
f 561/3/6 562/3/6 565/3/6
f 560/3/6 561/3/6 565/3/6
f 565/3/6 562/3/6 566/3/6
f 566/3/6 562/3/6 567/3/6
f 555/3/6 563/3/6 569/3/6
f 567/3/6 568/3/6 571/3/6
f 566/3/6 567/3/6 571/3/6
f 571/3/6 568/3/6 572/3/6
f 572/3/6 568/3/6 573/3/6
f 569/3/6 570/3/6 575/3/6
f 555/3/6 569/3/6 575/3/6
f 575/3/6 570/3/6 576/3/6
f 576/3/6 570/3/6 577/3/6
f 573/3/6 574/3/6 579/3/6
f 572/3/6 573/3/6 579/3/6
f 579/3/6 574/3/6 580/3/6
f 577/3/6 578/3/6 581/3/6
f 576/3/6 577/3/6 581/3/6
f 581/3/6 578/3/6 582/3/6
f 582/3/6 578/3/6 583/3/6
f 583/3/6 584/3/6 585/3/6
f 582/3/6 583/3/6 585/3/6
f 585/3/6 584/3/6 586/3/6
f 586/3/6 584/3/6 587/3/6
f 587/3/6 588/3/6 589/3/6
f 586/3/6 587/3/6 589/3/6
f 589/3/6 588/3/6 590/3/6
f 590/3/6 588/3/6 591/3/6
f 591/3/6 592/3/6 593/3/6
f 590/3/6 591/3/6 593/3/6
f 593/3/6 592/3/6 594/3/6
f 594/3/6 592/3/6 595/3/6
f 595/3/6 596/3/6 597/3/6
f 594/3/6 595/3/6 597/3/6
f 597/3/6 596/3/6 598/3/6
f 598/3/6 596/3/6 599/3/6
f 599/3/6 600/3/6 601/3/6
f 598/3/6 599/3/6 601/3/6
f 601/3/6 600/3/6 602/3/6
f 602/3/6 600/3/6 603/3/6
f 603/3/6 604/3/6 605/3/6
f 602/3/6 603/3/6 605/3/6
f 605/3/6 604/3/6 606/3/6
f 606/3/6 604/3/6 607/3/6
f 607/3/6 608/3/6 609/3/6
f 606/3/6 607/3/6 609/3/6
f 609/3/6 608/3/6 610/3/6
f 611/1/6 612/1/6 613/1/6
f 613/1/6 612/1/6 614/1/6
f 611/1/6 613/1/6 615/1/6
f 615/1/6 613/1/6 616/1/6
f 613/2/6 614/2/6 617/2/6
f 617/2/6 614/2/6 618/2/6
f 618/2/6 614/2/6 619/2/6
f 619/2/6 614/2/6 620/2/6
f 613/2/6 617/2/6 621/2/6
f 621/2/6 617/2/6 622/2/6
f 621/1/6 622/1/6 623/1/6
f 623/1/6 622/1/6 624/1/6
f 621/1/6 623/1/6 625/1/6
f 623/2/6 624/2/6 626/2/6
f 625/1/6 623/1/6 626/1/6
f 624/1/6 622/1/6 627/1/6
f 626/2/6 624/2/6 627/2/6
f 627/1/6 622/1/6 628/1/6
f 621/1/6 625/1/6 629/1/6
f 629/1/6 625/1/6 630/1/6
f 628/1/6 622/1/6 631/1/6
f 631/1/6 622/1/6 632/1/6
f 629/2/6 630/2/6 633/2/6
f 621/1/6 629/1/6 633/1/6
f 633/2/6 630/2/6 634/2/6
f 631/2/6 632/2/6 635/2/6
f 632/1/6 622/1/6 636/1/6
f 635/2/6 632/2/6 636/2/6
f 633/1/6 634/1/6 637/1/6
f 635/1/6 636/1/6 640/1/6
f 638/2/6 639/2/6 641/2/6
f 637/1/6 638/1/6 641/1/6
f 639/1/6 640/1/6 642/1/6
f 641/2/6 639/2/6 642/2/6
f 637/1/6 641/1/6 643/1/6
f 633/1/6 637/1/6 643/1/6
f 641/1/6 642/1/6 643/1/6
f 642/1/6 640/1/6 644/1/6
f 643/1/6 642/1/6 644/1/6
f 640/1/6 636/1/6 644/1/6
f 633/1/6 643/1/6 645/1/6
f 643/3/6 644/3/6 645/3/6
f 644/1/6 636/1/6 646/1/6
f 645/3/6 644/3/6 646/3/6
f 633/1/6 645/1/6 649/1/6
f 647/4/6 648/4/6 650/4/6
f 650/4/6 648/4/6 651/4/6
f 646/1/6 636/1/6 652/1/6
f 633/1/6 649/1/6 653/1/6
f 651/4/6 652/4/6 653/4/6
f 650/4/6 651/4/6 653/4/6
f 649/4/6 650/4/6 653/4/6
f 652/1/6 636/1/6 654/1/6
f 653/4/6 652/4/6 654/4/6
f 653/1/6 654/1/6 655/1/6
f 655/1/6 654/1/6 656/1/6
f 633/1/6 653/1/6 657/1/6
f 653/1/6 655/1/6 657/1/6
f 655/2/6 656/2/6 658/2/6
f 657/1/6 655/1/6 658/1/6
f 656/1/6 654/1/6 659/1/6
f 658/2/6 656/2/6 659/2/6
f 654/1/6 636/1/6 660/1/6
f 659/1/6 654/1/6 660/1/6
f 621/1/6 633/1/6 661/1/6
f 633/1/6 657/1/6 661/1/6
f 661/1/6 657/1/6 662/1/6
f 660/1/6 636/1/6 663/1/6
f 636/1/6 622/1/6 664/1/6
f 663/1/6 636/1/6 664/1/6
f 661/2/6 662/2/6 665/2/6
f 621/1/6 661/1/6 665/1/6
f 665/2/6 662/2/6 666/2/6
f 663/2/6 664/2/6 667/2/6
f 664/1/6 622/1/6 668/1/6
f 667/2/6 664/2/6 668/2/6
f 665/1/6 666/1/6 669/1/6
f 667/1/6 668/1/6 672/1/6
f 670/2/6 671/2/6 673/2/6
f 669/1/6 670/1/6 673/1/6
f 671/1/6 672/1/6 674/1/6
f 673/2/6 671/2/6 674/2/6
f 613/2/6 621/2/6 675/2/6
f 621/1/6 665/1/6 675/1/6
f 673/1/6 674/1/6 675/1/6
f 669/1/6 673/1/6 675/1/6
f 665/1/6 669/1/6 675/1/6
f 674/1/6 672/1/6 676/1/6
f 675/1/6 674/1/6 676/1/6
f 622/2/6 617/2/6 676/2/6
f 672/1/6 668/1/6 676/1/6
f 668/1/6 622/1/6 676/1/6
f 611/1/6 615/1/6 677/1/6
f 615/2/6 616/2/6 677/2/6
f 616/1/6 613/1/6 678/1/6
f 677/2/6 616/2/6 678/2/6
f 676/2/6 617/2/6 679/2/6
f 675/2/6 676/2/6 679/2/6
f 617/1/6 618/1/6 679/1/6
f 618/2/6 619/2/6 680/2/6
f 679/1/6 618/1/6 680/1/6
f 619/1/6 620/1/6 681/1/6
f 680/2/6 619/2/6 681/2/6
f 620/2/6 614/2/6 682/2/6
f 681/1/6 620/1/6 682/1/6
f 678/1/6 613/1/6 683/1/6
f 677/1/6 678/1/6 683/1/6
f 681/2/6 682/2/6 683/2/6
f 680/2/6 681/2/6 683/2/6
f 675/2/6 679/2/6 683/2/6
f 679/2/6 680/2/6 683/2/6
f 613/2/6 675/2/6 683/2/6
f 614/1/6 612/1/6 684/1/6
f 683/2/6 682/2/6 684/2/6
f 682/2/6 614/2/6 684/2/6
f 677/1/6 683/1/6 685/1/6
f 611/1/6 677/1/6 685/1/6
f 683/1/6 684/1/6 685/1/6
f 684/1/6 612/1/6 686/1/6
f 685/1/6 684/1/6 686/1/6
