# MagicaVoxel @ Ephtracy

# group
o 

# material
mtllib obj.magnetV2.mtl
usemtl palette

# normals
vn -1 0 0
vn 1 0 0
vn 0 0 1
vn 0 0 -1
vn 0 -1 0
vn 0 1 0

# texcoords
vt 0.830078 0.5
vt 0.857422 0.5
vt 0.962891 0.5

# verts
v -0.3 0 0.9
v -0.3 0 0.6
v -0.3 2.2 0.9
v -0.3 2.2 0.6
v -0.3 4.5 0.9
v -0.3 4.5 0.6
v 0.3 0 0.9
v 0.3 0 0.6
v 0.3 2.2 0.9
v 0.3 2.2 0.6
v 0.3 4.5 0.9
v 0.3 4.5 0.6
v -0.3 0 0.9
v -0.3 2.2 0.9
v -0.3 4.5 0.9
v -0.2 0.2 0.9
v -0.2 0.3 0.9
v -0.2 0.5 0.9
v -0.2 0.6 0.9
v -0.2 3.9 0.9
v -0.2 4.3 0.9
v -0.0999998 0.1 0.9
v -0.0999998 0.2 0.9
v -0.0999998 0.3 0.9
v -0.0999998 0.4 0.9
v -0.0999998 0.5 0.9
v -0.0999998 0.6 0.9
v -0.0999998 0.7 0.9
v -0.0999998 3.9 0.9
v -0.0999998 4.1 0.9
v -0.0999998 4.2 0.9
v -0.0999998 4.3 0.9
v 1.49012e-07 0.3 0.9
v 1.49012e-07 0.4 0.9
v 1.49012e-07 0.5 0.9
v 1.49012e-07 4 0.9
v 1.49012e-07 4.1 0.9
v 1.49012e-07 4.2 0.9
v 0.1 0.1 0.9
v 0.1 0.2 0.9
v 0.1 0.3 0.9
v 0.1 0.4 0.9
v 0.1 0.5 0.9
v 0.1 0.6 0.9
v 0.1 0.7 0.9
v 0.1 3.9 0.9
v 0.1 4 0.9
v 0.1 4.1 0.9
v 0.1 4.3 0.9
v 0.2 0.2 0.9
v 0.2 0.3 0.9
v 0.2 0.5 0.9
v 0.2 0.6 0.9
v 0.2 3.9 0.9
v 0.2 4.3 0.9
v 0.3 0 0.9
v 0.3 2.2 0.9
v 0.3 4.5 0.9
v -0.3 0 0.6
v -0.3 2.2 0.6
v -0.3 4.5 0.6
v 0.3 0 0.6
v 0.3 2.2 0.6
v 0.3 4.5 0.6
v -0.3 0 0.9
v 0.3 0 0.9
v -0.3 0 0.6
v 0.3 0 0.6
v -0.3 4.5 0.9
v 0.3 4.5 0.9
v -0.3 4.5 0.6
v 0.3 4.5 0.6

# faces
f 3/1/1 2/1/1 1/1/1
f 4/1/1 2/1/1 3/1/1
f 5/2/1 4/2/1 3/2/1
f 6/2/1 4/2/1 5/2/1
f 7/1/2 8/1/2 9/1/2
f 9/1/2 8/1/2 10/1/2
f 9/2/2 10/2/2 11/2/2
f 11/2/2 10/2/2 12/2/2
f 16/1/3 14/1/3 13/1/3
f 17/1/3 14/1/3 16/1/3
f 18/1/3 14/1/3 17/1/3
f 19/1/3 14/1/3 18/1/3
f 20/2/3 15/2/3 14/2/3
f 21/2/3 15/2/3 20/2/3
f 22/1/3 16/1/3 13/1/3
f 23/3/3 17/3/3 16/3/3
f 23/1/3 16/1/3 22/1/3
f 24/1/3 18/1/3 17/1/3
f 24/3/3 17/3/3 23/3/3
f 25/1/3 18/1/3 24/1/3
f 26/3/3 19/3/3 18/3/3
f 26/1/3 18/1/3 25/1/3
f 27/1/3 14/1/3 19/1/3
f 27/3/3 19/3/3 26/3/3
f 28/1/3 14/1/3 27/1/3
f 29/2/3 20/2/3 14/2/3
f 29/3/3 21/3/3 20/3/3
f 30/3/3 21/3/3 29/3/3
f 31/3/3 21/3/3 30/3/3
f 32/2/3 15/2/3 21/2/3
f 32/3/3 21/3/3 31/3/3
f 33/1/3 25/1/3 24/1/3
f 33/1/3 24/1/3 23/1/3
f 34/3/3 26/3/3 25/3/3
f 34/1/3 25/1/3 33/1/3
f 35/1/3 27/1/3 26/1/3
f 35/3/3 26/3/3 34/3/3
f 36/2/3 30/2/3 29/2/3
f 37/3/3 31/3/3 30/3/3
f 37/2/3 30/2/3 36/2/3
f 38/2/3 32/2/3 31/2/3
f 38/3/3 31/3/3 37/3/3
f 39/1/3 22/1/3 13/1/3
f 39/3/3 23/3/3 22/3/3
f 40/1/3 33/1/3 23/1/3
f 40/3/3 23/3/3 39/3/3
f 41/3/3 34/3/3 33/3/3
f 41/1/3 33/1/3 40/1/3
f 42/1/3 35/1/3 34/1/3
f 42/3/3 34/3/3 41/3/3
f 43/1/3 27/1/3 35/1/3
f 43/1/3 35/1/3 42/1/3
f 44/3/3 28/3/3 27/3/3
f 44/1/3 27/1/3 43/1/3
f 45/1/3 14/1/3 28/1/3
f 45/3/3 28/3/3 44/3/3
f 46/2/3 36/2/3 29/2/3
f 46/2/3 29/2/3 14/2/3
f 47/3/3 37/3/3 36/3/3
f 47/2/3 36/2/3 46/2/3
f 48/2/3 38/2/3 37/2/3
f 48/3/3 37/3/3 47/3/3
f 49/2/3 32/2/3 38/2/3
f 49/2/3 38/2/3 48/2/3
f 49/2/3 15/2/3 32/2/3
f 50/3/3 41/3/3 40/3/3
f 50/1/3 40/1/3 39/1/3
f 51/1/3 43/1/3 42/1/3
f 51/3/3 41/3/3 50/3/3
f 51/1/3 42/1/3 41/1/3
f 52/3/3 44/3/3 43/3/3
f 52/1/3 43/1/3 51/1/3
f 53/1/3 45/1/3 44/1/3
f 53/3/3 44/3/3 52/3/3
f 54/3/3 48/3/3 47/3/3
f 54/3/3 47/3/3 46/3/3
f 54/2/3 46/2/3 14/2/3
f 54/3/3 49/3/3 48/3/3
f 55/2/3 15/2/3 49/2/3
f 55/3/3 49/3/3 54/3/3
f 56/1/3 39/1/3 13/1/3
f 56/1/3 53/1/3 52/1/3
f 56/1/3 51/1/3 50/1/3
f 56/1/3 52/1/3 51/1/3
f 56/1/3 50/1/3 39/1/3
f 57/1/3 14/1/3 45/1/3
f 57/1/3 53/1/3 56/1/3
f 57/1/3 45/1/3 53/1/3
f 57/2/3 54/2/3 14/2/3
f 57/2/3 55/2/3 54/2/3
f 58/2/3 15/2/3 55/2/3
f 58/2/3 55/2/3 57/2/3
f 59/1/4 60/1/4 62/1/4
f 60/2/4 61/2/4 63/2/4
f 62/1/4 60/1/4 63/1/4
f 63/2/4 61/2/4 64/2/4
f 67/1/5 66/1/5 65/1/5
f 68/1/5 66/1/5 67/1/5
f 69/2/6 70/2/6 71/2/6
f 71/2/6 70/2/6 72/2/6
