# MagicaVoxel @ Ephtracy

# group
o 

# material
mtllib obj.palm tree.mtl
usemtl palette

# normals
vn -1 0 0
vn 1 0 0
vn 0 0 1
vn 0 0 -1
vn 0 -1 0
vn 0 1 0

# texcoords
vt 0.181641 0.5
vt 0.267578 0.5
vt 0.541016 0.5

# verts
v -1.3 4.8 0.4
v -1.3 4.8 -0.4
v -1.3 5.6 0.4
v -1.3 5.6 -0.4
v -1.2 4.5 1.2
v -1.2 4.5 0.4
v -1.2 4.8 0.4
v -1.2 5.3 1.2
v -1.2 5.3 0.4
v -1 4.6 -0.4
v -1 4.6 -1.3
v -1 4.8 -0.4
v -1 5.4 -0.4
v -1 5.4 -1.3
v -0.7 4.6 0.4
v -0.7 4.6 -0.4
v -0.7 4.8 0.4
v -0.7 4.8 -0.4
v -0.7 5.3 0.6
v -0.7 5.3 0.4
v -0.7 5.4 -0.4
v -0.7 5.4 -0.6
v -0.7 5.6 0.4
v -0.7 5.6 -0.4
v -0.7 5.8 0.6
v -0.7 5.8 -0.6
v -0.6 -0.0999999 0.6
v -0.6 -0.0999999 -0.6
v -0.6 1.4 0.6
v -0.6 1.4 -0.6
v -0.5 1.4 0.5
v -0.5 1.4 -0.5
v -0.5 2.6 0.5
v -0.5 2.6 -0.5
v -0.5 4.1 0.7
v -0.5 4.1 0.3
v -0.5 4.5 0.7
v -0.5 4.5 0.4
v -0.5 4.5 0.3
v -0.4 2.6 0.4
v -0.4 2.6 -0.4
v -0.4 3.7 0.4
v -0.4 3.7 -0.4
v -0.3 3.7 0.3
v -0.3 3.7 -0.3
v -0.3 4.1 0.3
v -0.3 4.5 0.3
v -0.3 4.6 0.3
v -0.3 4.6 -0.3
v -0.2 5.4 -0.6
v -0.2 5.4 -1.2
v -0.2 5.6 -0.7
v -0.2 5.6 -1.2
v -0.2 5.8 0.2
v -0.2 5.8 -0.6
v -0.2 6 0.2
v -0.2 6 -0.7
v -0.0999998 4.7 1.2
v -0.0999998 4.7 0.6
v -0.0999998 5.7 1.2
v -0.0999998 5.7 0.6
v 1.19209e-07 4.1 0.8
v 1.19209e-07 4.1 0.3
v 1.19209e-07 4.6 0.8
v 1.19209e-07 4.6 0.6
v 1.19209e-07 4.6 0.3
v 0.2 4.5 -0.3
v 0.2 4.5 -0.8
v 0.2 4.6 -0.3
v 0.2 4.6 -0.6
v 0.2 4.8 -0.6
v 0.2 4.8 -0.8
v -0.4 4.5 1.2
v -0.4 4.5 0.7
v -0.4 4.5 0.4
v -0.4 4.6 0.6
v -0.4 4.6 0.4
v -0.4 5.3 1.2
v -0.4 5.3 0.6
v -0.0999998 4.1 0.7
v -0.0999998 4.1 0.3
v -0.0999998 4.5 0.7
v -0.0999998 4.5 0.3
v -0.0999998 4.6 -0.6
v -0.0999998 4.6 -1.3
v -0.0999998 4.8 -0.6
v -0.0999998 4.8 -1.2
v -0.0999998 5.4 -1.2
v -0.0999998 5.4 -1.3
v 0.3 3.7 0.3
v 0.3 3.7 -0.3
v 0.3 4.1 0.3
v 0.3 4.5 0.2
v 0.3 4.5 -0.3
v 0.3 4.6 0.3
v 0.3 4.6 0.2
v 0.4 2.6 0.4
v 0.4 2.6 -0.4
v 0.4 3.7 0.4
v 0.4 3.7 -0.4
v 0.5 1.4 0.5
v 0.5 1.4 -0.5
v 0.5 2.6 0.5
v 0.5 2.6 -0.5
v 0.5 4.1 0.8
v 0.5 4.1 0.3
v 0.5 4.6 0.8
v 0.5 4.6 0.6
v 0.5 4.6 0.3
v 0.5 4.6 0.2
v 0.5 4.7 0.6
v 0.5 4.7 0.2
v 0.5 5.7 0.6
v 0.5 5.7 0.2
v 0.5 5.8 0.6
v 0.5 5.8 0.2
v 0.6 -0.0999999 0.6
v 0.6 -0.0999999 -0.6
v 0.6 1.4 0.6
v 0.6 1.4 -0.6
v 0.6 4.8 -0.8
v 0.6 4.8 -1.2
v 0.6 5.5 -0.7
v 0.6 5.5 -0.8
v 0.6 5.6 -0.7
v 0.6 5.6 -1.2
v 0.7 5.5 0.2
v 0.7 5.5 -0.7
v 0.7 5.7 0.2
v 0.7 6 0.2
v 0.7 6 -0.7
v 0.9 4.7 1.2
v 0.9 4.7 0.2
v 0.9 5.5 0.2
v 0.9 5.7 1.2
v 0.9 5.7 0.2
v 1.2 4.5 0.2
v 1.2 4.5 -0.8
v 1.2 5.5 0.2
v 1.2 5.5 -0.8
v -1.2 4.5 1.2
v -1.2 5.3 1.2
v -0.4 4.5 1.2
v -0.4 5.3 1.2
v -0.0999998 4.7 1.2
v -0.0999998 5.7 1.2
v 0.9 4.7 1.2
v 0.9 5.7 1.2
v 1.19209e-07 4.1 0.8
v 1.19209e-07 4.6 0.8
v 0.5 4.1 0.8
v 0.5 4.6 0.8
v -0.5 4.1 0.7
v -0.5 4.5 0.7
v -0.4 4.5 0.7
v -0.0999998 4.1 0.7
v -0.0999998 4.5 0.7
v -0.7 5.3 0.6
v -0.7 5.8 0.6
v -0.6 -0.0999999 0.6
v -0.6 1.4 0.6
v -0.4 4.6 0.6
v -0.4 5.3 0.6
v -0.0999998 4.7 0.6
v -0.0999998 5.7 0.6
v 1.19209e-07 4.6 0.6
v 0.5 4.6 0.6
v 0.5 4.7 0.6
v 0.5 5.7 0.6
v 0.5 5.8 0.6
v 0.6 -0.0999999 0.6
v 0.6 1.4 0.6
v -0.5 1.4 0.5
v -0.5 2.6 0.5
v 0.5 1.4 0.5
v 0.5 2.6 0.5
v -1.3 4.8 0.4
v -1.3 5.6 0.4
v -1.2 4.8 0.4
v -1.2 5.3 0.4
v -0.7 5.3 0.4
v -0.7 5.6 0.4
v -0.4 2.6 0.4
v -0.4 3.7 0.4
v 0.4 2.6 0.4
v 0.4 3.7 0.4
v -0.3 3.7 0.3
v -0.3 4.1 0.3
v -0.3 4.5 0.3
v -0.3 4.6 0.3
v -0.0999998 4.1 0.3
v -0.0999998 4.5 0.3
v 1.19209e-07 4.1 0.3
v 1.19209e-07 4.6 0.3
v 0.3 3.7 0.3
v 0.3 4.1 0.3
v -0.2 5.8 0.2
v -0.2 6 0.2
v 0.3 4.5 0.2
v 0.3 4.6 0.2
v 0.5 4.6 0.2
v 0.5 4.7 0.2
v 0.5 5.7 0.2
v 0.5 5.8 0.2
v 0.7 5.7 0.2
v 0.7 6 0.2
v 0.9 4.7 0.2
v 0.9 5.5 0.2
v 1.2 4.5 0.2
v 1.2 5.5 0.2
v -1 4.6 -0.4
v -1 4.8 -0.4
v -0.7 4.6 -0.4
v -0.7 4.8 -0.4
v -1.2 4.5 0.4
v -1.2 4.8 0.4
v -0.7 4.6 0.4
v -0.7 4.8 0.4
v -0.5 4.5 0.4
v -0.4 4.5 0.4
v -0.4 4.6 0.4
v -0.5 4.1 0.3
v -0.5 4.5 0.3
v -0.3 4.1 0.3
v -0.3 4.5 0.3
v 0.3 4.1 0.3
v 0.3 4.6 0.3
v 0.5 4.1 0.3
v 0.5 4.6 0.3
v 0.7 5.5 0.2
v 0.7 5.7 0.2
v 0.9 5.5 0.2
v 0.9 5.7 0.2
v -0.3 3.7 -0.3
v -0.3 4.6 -0.3
v 0.2 4.5 -0.3
v 0.2 4.6 -0.3
v 0.3 3.7 -0.3
v 0.3 4.5 -0.3
v -1.3 4.8 -0.4
v -1.3 5.6 -0.4
v -1 4.8 -0.4
v -1 5.4 -0.4
v -0.7 5.4 -0.4
v -0.7 5.6 -0.4
v -0.4 2.6 -0.4
v -0.4 3.7 -0.4
v 0.4 2.6 -0.4
v 0.4 3.7 -0.4
v -0.5 1.4 -0.5
v -0.5 2.6 -0.5
v 0.5 1.4 -0.5
v 0.5 2.6 -0.5
v -0.7 5.4 -0.6
v -0.7 5.8 -0.6
v -0.6 -0.0999999 -0.6
v -0.6 1.4 -0.6
v -0.2 5.4 -0.6
v -0.2 5.8 -0.6
v -0.0999998 4.6 -0.6
v -0.0999998 4.8 -0.6
v 0.2 4.6 -0.6
v 0.2 4.8 -0.6
v 0.6 -0.0999999 -0.6
v 0.6 1.4 -0.6
v -0.2 5.6 -0.7
v -0.2 6 -0.7
v 0.6 5.5 -0.7
v 0.6 5.6 -0.7
v 0.7 5.5 -0.7
v 0.7 6 -0.7
v 0.2 4.5 -0.8
v 0.2 4.8 -0.8
v 0.6 4.8 -0.8
v 0.6 5.5 -0.8
v 1.2 4.5 -0.8
v 1.2 5.5 -0.8
v -0.2 5.4 -1.2
v -0.2 5.6 -1.2
v -0.0999998 4.8 -1.2
v -0.0999998 5.4 -1.2
v 0.6 4.8 -1.2
v 0.6 5.6 -1.2
v -1 4.6 -1.3
v -1 5.4 -1.3
v -0.0999998 4.6 -1.3
v -0.0999998 5.4 -1.3
v -0.6 -0.0999999 0.6
v 0.6 -0.0999999 0.6
v -0.6 -0.0999999 -0.6
v 0.6 -0.0999999 -0.6
v 1.19209e-07 4.1 0.8
v 0.5 4.1 0.8
v -0.5 4.1 0.7
v -0.0999998 4.1 0.7
v -0.5 4.1 0.3
v -0.3 4.1 0.3
v -0.0999998 4.1 0.3
v 1.19209e-07 4.1 0.3
v 0.3 4.1 0.3
v 0.5 4.1 0.3
v -1.2 4.5 1.2
v -0.4 4.5 1.2
v -0.5 4.5 0.7
v -0.4 4.5 0.7
v -1.2 4.5 0.4
v -0.5 4.5 0.4
v 0.3 4.5 0.2
v 1.2 4.5 0.2
v 0.2 4.5 -0.3
v 0.3 4.5 -0.3
v 0.2 4.5 -0.8
v 1.2 4.5 -0.8
v -0.4 4.6 0.6
v 1.19209e-07 4.6 0.6
v -0.7 4.6 0.4
v -0.4 4.6 0.4
v -0.3 4.6 0.3
v 1.19209e-07 4.6 0.3
v 0.3 4.6 0.3
v 0.5 4.6 0.3
v 0.3 4.6 0.2
v 0.5 4.6 0.2
v -0.3 4.6 -0.3
v 0.2 4.6 -0.3
v -1 4.6 -0.4
v -0.7 4.6 -0.4
v -0.0999998 4.6 -0.6
v 0.2 4.6 -0.6
v -1 4.6 -1.3
v -0.0999998 4.6 -1.3
v -0.0999998 4.7 1.2
v 0.9 4.7 1.2
v -0.0999998 4.7 0.6
v 0.5 4.7 0.6
v 0.5 4.7 0.2
v 0.9 4.7 0.2
v -1.3 4.8 0.4
v -1.2 4.8 0.4
v -0.7 4.8 0.4
v -1.3 4.8 -0.4
v -1 4.8 -0.4
v -0.7 4.8 -0.4
v -0.0999998 4.8 -0.6
v 0.2 4.8 -0.6
v 0.2 4.8 -0.8
v 0.6 4.8 -0.8
v -0.0999998 4.8 -1.2
v 0.6 4.8 -1.2
v -0.6 1.4 0.6
v 0.6 1.4 0.6
v -0.5 1.4 0.5
v 0.5 1.4 0.5
v -0.5 1.4 -0.5
v 0.5 1.4 -0.5
v -0.6 1.4 -0.6
v 0.6 1.4 -0.6
v -0.5 2.6 0.5
v 0.5 2.6 0.5
v -0.4 2.6 0.4
v 0.4 2.6 0.4
v -0.4 2.6 -0.4
v 0.4 2.6 -0.4
v -0.5 2.6 -0.5
v 0.5 2.6 -0.5
v -0.4 3.7 0.4
v 0.4 3.7 0.4
v -0.3 3.7 0.3
v 0.3 3.7 0.3
v -0.3 3.7 -0.3
v 0.3 3.7 -0.3
v -0.4 3.7 -0.4
v 0.4 3.7 -0.4
v -0.4 4.5 0.7
v -0.0999998 4.5 0.7
v -0.5 4.5 0.4
v -0.4 4.5 0.4
v -0.5 4.5 0.3
v -0.3 4.5 0.3
v -0.0999998 4.5 0.3
v 1.19209e-07 4.6 0.8
v 0.5 4.6 0.8
v 1.19209e-07 4.6 0.6
v 0.5 4.6 0.6
v -1.2 5.3 1.2
v -0.4 5.3 1.2
v -0.7 5.3 0.6
v -0.4 5.3 0.6
v -1.2 5.3 0.4
v -0.7 5.3 0.4
v -1 5.4 -0.4
v -0.7 5.4 -0.4
v -0.7 5.4 -0.6
v -0.2 5.4 -0.6
v -0.2 5.4 -1.2
v -0.0999998 5.4 -1.2
v -1 5.4 -1.3
v -0.0999998 5.4 -1.3
v 0.7 5.5 0.2
v 0.9 5.5 0.2
v 1.2 5.5 0.2
v 0.6 5.5 -0.7
v 0.7 5.5 -0.7
v 0.6 5.5 -0.8
v 1.2 5.5 -0.8
v -1.3 5.6 0.4
v -0.7 5.6 0.4
v -1.3 5.6 -0.4
v -0.7 5.6 -0.4
v -0.2 5.6 -0.7
v 0.6 5.6 -0.7
v -0.2 5.6 -1.2
v 0.6 5.6 -1.2
v -0.0999998 5.7 1.2
v 0.9 5.7 1.2
v -0.0999998 5.7 0.6
v 0.5 5.7 0.6
v 0.5 5.7 0.2
v 0.7 5.7 0.2
v 0.9 5.7 0.2
v -0.7 5.8 0.6
v 0.5 5.8 0.6
v -0.2 5.8 0.2
v 0.5 5.8 0.2
v -0.7 5.8 -0.6
v -0.2 5.8 -0.6
v -0.2 6 0.2
v 0.7 6 0.2
v -0.2 6 -0.7
v 0.7 6 -0.7

# faces
f 3/3/1 2/3/1 1/3/1
f 4/3/1 2/3/1 3/3/1
f 7/3/1 6/3/1 5/3/1
f 8/3/1 7/3/1 5/3/1
f 9/3/1 7/3/1 8/3/1
f 12/3/1 11/3/1 10/3/1
f 13/3/1 11/3/1 12/3/1
f 14/3/1 11/3/1 13/3/1
f 17/3/1 16/3/1 15/3/1
f 18/3/1 16/3/1 17/3/1
f 23/3/1 20/3/1 19/3/1
f 24/3/1 22/3/1 21/3/1
f 25/3/1 23/3/1 19/3/1
f 25/3/1 24/3/1 23/3/1
f 26/3/1 22/3/1 24/3/1
f 26/3/1 24/3/1 25/3/1
f 29/1/1 28/1/1 27/1/1
f 30/1/1 28/1/1 29/1/1
f 33/1/1 32/1/1 31/1/1
f 34/1/1 32/1/1 33/1/1
f 37/2/1 36/2/1 35/2/1
f 38/2/1 36/2/1 37/2/1
f 39/2/1 36/2/1 38/2/1
f 42/1/1 41/1/1 40/1/1
f 43/1/1 41/1/1 42/1/1
f 46/1/1 45/1/1 44/1/1
f 47/1/1 45/1/1 46/1/1
f 48/1/1 45/1/1 47/1/1
f 49/1/1 45/1/1 48/1/1
f 52/3/1 51/3/1 50/3/1
f 53/3/1 51/3/1 52/3/1
f 55/3/1 52/3/1 50/3/1
f 56/3/1 55/3/1 54/3/1
f 57/3/1 52/3/1 55/3/1
f 57/3/1 55/3/1 56/3/1
f 60/3/1 59/3/1 58/3/1
f 61/3/1 59/3/1 60/3/1
f 64/2/1 63/2/1 62/2/1
f 65/2/1 63/2/1 64/2/1
f 66/2/1 63/2/1 65/2/1
f 69/3/1 68/3/1 67/3/1
f 70/3/1 68/3/1 69/3/1
f 71/3/1 68/3/1 70/3/1
f 72/3/1 68/3/1 71/3/1
f 73/3/2 74/3/2 76/3/2
f 74/3/2 75/3/2 76/3/2
f 76/3/2 75/3/2 77/3/2
f 73/3/2 76/3/2 78/3/2
f 78/3/2 76/3/2 79/3/2
f 80/2/2 81/2/2 82/2/2
f 82/2/2 81/2/2 83/2/2
f 84/3/2 85/3/2 86/3/2
f 86/3/2 85/3/2 87/3/2
f 87/3/2 85/3/2 88/3/2
f 88/3/2 85/3/2 89/3/2
f 90/1/2 91/1/2 92/1/2
f 92/1/2 91/1/2 93/1/2
f 93/1/2 91/1/2 94/1/2
f 92/1/2 93/1/2 95/1/2
f 95/1/2 93/1/2 96/1/2
f 97/1/2 98/1/2 99/1/2
f 99/1/2 98/1/2 100/1/2
f 101/1/2 102/1/2 103/1/2
f 103/1/2 102/1/2 104/1/2
f 105/2/2 106/2/2 107/2/2
f 107/2/2 106/2/2 108/2/2
f 108/2/2 106/2/2 109/2/2
f 109/3/2 110/3/2 111/3/2
f 108/3/2 109/3/2 111/3/2
f 111/3/2 110/3/2 112/3/2
f 113/3/2 114/3/2 115/3/2
f 115/3/2 114/3/2 116/3/2
f 117/1/2 118/1/2 119/1/2
f 119/1/2 118/1/2 120/1/2
f 121/3/2 122/3/2 124/3/2
f 123/3/2 124/3/2 125/3/2
f 124/3/2 122/3/2 126/3/2
f 125/3/2 124/3/2 126/3/2
f 127/3/2 128/3/2 129/3/2
f 129/3/2 128/3/2 130/3/2
f 130/3/2 128/3/2 131/3/2
f 132/3/2 133/3/2 134/3/2
f 132/3/2 134/3/2 135/3/2
f 135/3/2 134/3/2 136/3/2
f 137/3/2 138/3/2 139/3/2
f 139/3/2 138/3/2 140/3/2
f 143/3/3 142/3/3 141/3/3
f 144/3/3 142/3/3 143/3/3
f 147/3/3 146/3/3 145/3/3
f 148/3/3 146/3/3 147/3/3
f 151/2/3 150/2/3 149/2/3
f 152/2/3 150/2/3 151/2/3
f 155/2/3 154/2/3 153/2/3
f 156/2/3 155/2/3 153/2/3
f 157/2/3 155/2/3 156/2/3
f 163/3/3 159/3/3 158/3/3
f 164/3/3 163/3/3 162/3/3
f 165/3/3 159/3/3 163/3/3
f 165/3/3 163/3/3 164/3/3
f 166/3/3 164/3/3 162/3/3
f 167/3/3 164/3/3 166/3/3
f 168/3/3 164/3/3 167/3/3
f 169/3/3 159/3/3 165/3/3
f 170/3/3 159/3/3 169/3/3
f 171/1/3 161/1/3 160/1/3
f 172/1/3 161/1/3 171/1/3
f 175/1/3 174/1/3 173/1/3
f 176/1/3 174/1/3 175/1/3
f 179/3/3 178/3/3 177/3/3
f 180/3/3 178/3/3 179/3/3
f 181/3/3 178/3/3 180/3/3
f 182/3/3 178/3/3 181/3/3
f 185/1/3 184/1/3 183/1/3
f 186/1/3 184/1/3 185/1/3
f 191/1/3 188/1/3 187/1/3
f 192/1/3 190/1/3 189/1/3
f 193/1/3 191/1/3 187/1/3
f 193/1/3 192/1/3 191/1/3
f 194/1/3 190/1/3 192/1/3
f 194/1/3 192/1/3 193/1/3
f 195/1/3 193/1/3 187/1/3
f 196/1/3 193/1/3 195/1/3
f 201/3/3 200/3/3 199/3/3
f 204/3/3 198/3/3 197/3/3
f 205/3/3 204/3/3 203/3/3
f 206/3/3 198/3/3 204/3/3
f 206/3/3 204/3/3 205/3/3
f 207/3/3 202/3/3 201/3/3
f 209/3/3 201/3/3 199/3/3
f 209/3/3 208/3/3 207/3/3
f 209/3/3 207/3/3 201/3/3
f 210/3/3 208/3/3 209/3/3
f 213/3/3 212/3/3 211/3/3
f 214/3/3 212/3/3 213/3/3
f 215/3/4 216/3/4 217/3/4
f 217/3/4 216/3/4 218/3/4
f 215/3/4 217/3/4 219/3/4
f 219/3/4 217/3/4 220/3/4
f 220/3/4 217/3/4 221/3/4
f 222/2/4 223/2/4 224/2/4
f 224/2/4 223/2/4 225/2/4
f 226/2/4 227/2/4 228/2/4
f 228/2/4 227/2/4 229/2/4
f 230/3/4 231/3/4 232/3/4
f 232/3/4 231/3/4 233/3/4
f 234/1/4 235/1/4 236/1/4
f 236/1/4 235/1/4 237/1/4
f 234/1/4 236/1/4 238/1/4
f 238/1/4 236/1/4 239/1/4
f 240/3/4 241/3/4 242/3/4
f 242/3/4 241/3/4 243/3/4
f 243/3/4 241/3/4 244/3/4
f 244/3/4 241/3/4 245/3/4
f 246/1/4 247/1/4 248/1/4
f 248/1/4 247/1/4 249/1/4
f 250/1/4 251/1/4 252/1/4
f 252/1/4 251/1/4 253/1/4
f 254/3/4 255/3/4 258/3/4
f 258/3/4 255/3/4 259/3/4
f 260/3/4 261/3/4 262/3/4
f 262/3/4 261/3/4 263/3/4
f 256/1/4 257/1/4 264/1/4
f 264/1/4 257/1/4 265/1/4
f 266/3/4 267/3/4 269/3/4
f 268/3/4 269/3/4 270/3/4
f 269/3/4 267/3/4 271/3/4
f 270/3/4 269/3/4 271/3/4
f 272/3/4 273/3/4 274/3/4
f 272/3/4 274/3/4 276/3/4
f 274/3/4 275/3/4 276/3/4
f 276/3/4 275/3/4 277/3/4
f 278/3/4 279/3/4 281/3/4
f 280/3/4 281/3/4 282/3/4
f 281/3/4 279/3/4 283/3/4
f 282/3/4 281/3/4 283/3/4
f 284/3/4 285/3/4 286/3/4
f 286/3/4 285/3/4 287/3/4
f 290/1/5 289/1/5 288/1/5
f 291/1/5 289/1/5 290/1/5
f 296/2/5 295/2/5 294/2/5
f 297/2/5 295/2/5 296/2/5
f 298/2/5 295/2/5 297/2/5
f 299/2/5 293/2/5 292/2/5
f 300/2/5 293/2/5 299/2/5
f 301/2/5 293/2/5 300/2/5
f 304/3/5 303/3/5 302/3/5
f 305/3/5 303/3/5 304/3/5
f 306/3/5 304/3/5 302/3/5
f 307/3/5 304/3/5 306/3/5
f 311/3/5 309/3/5 308/3/5
f 312/3/5 311/3/5 310/3/5
f 313/3/5 309/3/5 311/3/5
f 313/3/5 311/3/5 312/3/5
f 317/3/5 315/3/5 314/3/5
f 318/3/5 315/3/5 317/3/5
f 318/3/5 317/3/5 316/3/5
f 319/3/5 315/3/5 318/3/5
f 322/3/5 321/3/5 320/3/5
f 323/3/5 321/3/5 322/3/5
f 324/3/5 318/3/5 316/3/5
f 327/3/5 324/3/5 316/3/5
f 327/3/5 325/3/5 324/3/5
f 328/3/5 325/3/5 327/3/5
f 328/3/5 327/3/5 326/3/5
f 329/3/5 325/3/5 328/3/5
f 330/3/5 328/3/5 326/3/5
f 331/3/5 328/3/5 330/3/5
f 334/3/5 333/3/5 332/3/5
f 335/3/5 333/3/5 334/3/5
f 336/3/5 333/3/5 335/3/5
f 337/3/5 333/3/5 336/3/5
f 341/3/5 339/3/5 338/3/5
f 341/3/5 340/3/5 339/3/5
f 342/3/5 340/3/5 341/3/5
f 343/3/5 340/3/5 342/3/5
f 346/3/5 345/3/5 344/3/5
f 348/3/5 346/3/5 344/3/5
f 348/3/5 347/3/5 346/3/5
f 349/3/5 347/3/5 348/3/5
f 350/1/6 351/1/6 352/1/6
f 352/1/6 351/1/6 353/1/6
f 350/1/6 352/1/6 354/1/6
f 353/1/6 351/1/6 355/1/6
f 350/1/6 354/1/6 356/1/6
f 354/1/6 355/1/6 356/1/6
f 355/1/6 351/1/6 357/1/6
f 356/1/6 355/1/6 357/1/6
f 358/1/6 359/1/6 360/1/6
f 360/1/6 359/1/6 361/1/6
f 358/1/6 360/1/6 362/1/6
f 361/1/6 359/1/6 363/1/6
f 358/1/6 362/1/6 364/1/6
f 362/1/6 363/1/6 364/1/6
f 363/1/6 359/1/6 365/1/6
f 364/1/6 363/1/6 365/1/6
f 366/1/6 367/1/6 368/1/6
f 368/1/6 367/1/6 369/1/6
f 366/1/6 368/1/6 370/1/6
f 369/1/6 367/1/6 371/1/6
f 366/1/6 370/1/6 372/1/6
f 370/1/6 371/1/6 372/1/6
f 371/1/6 367/1/6 373/1/6
f 372/1/6 371/1/6 373/1/6
f 374/2/6 375/2/6 377/2/6
f 376/2/6 377/2/6 378/2/6
f 377/2/6 375/2/6 379/2/6
f 378/2/6 377/2/6 379/2/6
f 379/2/6 375/2/6 380/2/6
f 381/2/6 382/2/6 383/2/6
f 383/2/6 382/2/6 384/2/6
f 385/3/6 386/3/6 387/3/6
f 387/3/6 386/3/6 388/3/6
f 385/3/6 387/3/6 389/3/6
f 389/3/6 387/3/6 390/3/6
f 391/3/6 392/3/6 393/3/6
f 393/3/6 394/3/6 395/3/6
f 391/3/6 393/3/6 397/3/6
f 395/3/6 396/3/6 397/3/6
f 393/3/6 395/3/6 397/3/6
f 397/3/6 396/3/6 398/3/6
f 399/3/6 400/3/6 403/3/6
f 400/3/6 401/3/6 403/3/6
f 402/3/6 403/3/6 404/3/6
f 403/3/6 401/3/6 405/3/6
f 404/3/6 403/3/6 405/3/6
f 406/3/6 407/3/6 408/3/6
f 408/3/6 407/3/6 409/3/6
f 410/3/6 411/3/6 412/3/6
f 412/3/6 411/3/6 413/3/6
f 414/3/6 415/3/6 416/3/6
f 416/3/6 415/3/6 417/3/6
f 417/3/6 415/3/6 418/3/6
f 418/3/6 415/3/6 419/3/6
f 419/3/6 415/3/6 420/3/6
f 421/3/6 422/3/6 423/3/6
f 423/3/6 422/3/6 424/3/6
f 421/3/6 423/3/6 425/3/6
f 425/3/6 423/3/6 426/3/6
f 427/3/6 428/3/6 429/3/6
f 429/3/6 428/3/6 430/3/6
