# MagicaVoxel @ Ephtracy

# group
o 

# material
mtllib obj.fish.mtl
usemtl palette

# normals
vn -1 0 0
vn 1 0 0
vn 0 0 1
vn 0 0 -1
vn 0 -1 0
vn 0 1 0

# texcoords
vt 0.478516 0.5
vt 0.619141 0.5
vt 0.787109 0.5
vt 0.955078 0.5
vt 0.962891 0.5

# verts
v -1 0.5 0
v -1 0.5 -0.2
v -1 1 0
v -1 1 -0.2
v -0.9 0.3 0.1
v -0.9 0.3 -0.3
v -0.9 0.5 0
v -0.9 0.5 -0.2
v -0.9 1 0
v -0.9 1 -0.2
v -0.9 1.3 0.1
v -0.9 1.3 -0.3
v -0.8 0.2 0.2
v -0.8 0.2 -0.4
v -0.8 0.3 0.1
v -0.8 0.3 -0.3
v -0.8 1.3 0.1
v -0.8 1.3 -0.3
v -0.8 1.4 0.2
v -0.8 1.4 -0.4
v -0.7 0.1 0.2
v -0.7 0.1 -0.4
v -0.7 0.2 0.3
v -0.7 0.2 0.2
v -0.7 0.2 -0.4
v -0.7 0.2 -0.5
v -0.7 1.4 0.3
v -0.7 1.4 0.2
v -0.7 1.4 -0.4
v -0.7 1.4 -0.5
v -0.7 1.5 0.2
v -0.7 1.5 -0.4
v -0.5 1 0.4
v -0.5 1 0.3
v -0.5 1 -0.5
v -0.5 1 -0.6
v -0.5 1.1 0.4
v -0.5 1.1 0.3
v -0.5 1.1 -0.5
v -0.5 1.1 -0.6
v -0.5 1.2 0.4
v -0.5 1.2 0.3
v -0.5 1.2 -0.5
v -0.5 1.2 -0.6
v -0.5 1.5 0.1
v -0.5 1.5 -0.3
v -0.5 1.6 0.1
v -0.5 1.6 -0.3
v -0.1 0.5 0.4
v -0.1 0.5 0.3
v -0.1 0.5 -0.5
v -0.1 0.5 -0.6
v -0.1 0.8 0.4
v -0.1 0.8 0.3
v -0.1 0.8 -0.5
v -0.1 0.8 -0.6
v 0 0.4 0.4
v 0 0.4 0.3
v 0 0.4 -0.5
v 0 0.4 -0.6
v 0 0.5 0.4
v 0 0.5 0.3
v 0 0.5 -0.5
v 0 0.5 -0.6
v 0 0.8 0.4
v 0 0.8 0.3
v 0 0.8 -0.5
v 0 0.8 -0.6
v 0 0.9 0.4
v 0 0.9 0.3
v 0 0.9 -0.5
v 0 0.9 -0.6
v 0.1 0.2 0.2
v 0.1 0.2 -0.4
v 0.1 0.3 0.2
v 0.1 0.3 -0.4
v 0.5 0.3 0.2
v 0.5 0.3 -0.4
v 0.5 0.4 0.2
v 0.5 0.4 -0.4
v 0.6 1.4 0.1
v 0.6 1.4 -0.3
v 0.6 1.5 0.1
v 0.6 1.5 -0.3
v -0.7 0.2 0.2
v -0.7 0.2 -0.4
v -0.7 0.4 0.2
v -0.7 0.4 -0.4
v -0.5 1.4 0.1
v -0.5 1.4 -0.3
v -0.5 1.5 0.1
v -0.5 1.5 -0.3
v -0.3 1 0.4
v -0.3 1 0.3
v -0.3 1 -0.5
v -0.3 1 -0.6
v -0.3 1.2 0.4
v -0.3 1.2 0.3
v -0.3 1.2 -0.5
v -0.3 1.2 -0.6
v 0.1 0.1 0.2
v 0.1 0.1 -0.4
v 0.1 0.2 0.3
v 0.1 0.2 0.2
v 0.1 0.2 -0.4
v 0.1 0.2 -0.5
v 0.1 0.3 0.3
v 0.1 0.3 0.2
v 0.1 0.3 -0.4
v 0.1 0.3 -0.5
v 0.4 0.4 0.4
v 0.4 0.4 0.3
v 0.4 0.4 -0.5
v 0.4 0.4 -0.6
v 0.4 0.5 0.4
v 0.4 0.5 0.3
v 0.4 0.5 -0.5
v 0.4 0.5 -0.6
v 0.5 0.2 0.2
v 0.5 0.2 -0.4
v 0.5 0.3 0.3
v 0.5 0.3 0.2
v 0.5 0.3 -0.4
v 0.5 0.3 -0.5
v 0.5 0.4 0.3
v 0.5 0.4 0.2
v 0.5 0.4 -0.4
v 0.5 0.4 -0.5
v 0.5 0.5 0.4
v 0.5 0.5 0.3
v 0.5 0.5 -0.5
v 0.5 0.5 -0.6
v 0.5 0.6 0.4
v 0.5 0.6 0.3
v 0.5 0.6 -0.5
v 0.5 0.6 -0.6
v 0.5 0.8 0.4
v 0.5 0.8 0.3
v 0.5 0.8 -0.5
v 0.5 0.8 -0.6
v 0.5 0.9 0.4
v 0.5 0.9 0.3
v 0.5 0.9 -0.5
v 0.5 0.9 -0.6
v 0.6 0.3 0.2
v 0.6 0.3 -0.4
v 0.6 0.4 0.2
v 0.6 0.4 -0.4
v 0.6 0.6 0.4
v 0.6 0.6 0.3
v 0.6 0.6 -0.5
v 0.6 0.6 -0.6
v 0.6 0.8 0.4
v 0.6 0.8 0.3
v 0.6 0.8 -0.5
v 0.6 0.8 -0.6
v 0.6 1.5 0.1
v 0.6 1.5 -0.3
v 0.6 1.6 0.1
v 0.6 1.6 -0.3
v 0.7 0.4 0.3
v 0.7 0.4 0.2
v 0.7 0.4 -0.4
v 0.7 0.4 -0.5
v 0.7 1.4 0.3
v 0.7 1.4 0.2
v 0.7 1.4 -0.4
v 0.7 1.4 -0.5
v 0.7 1.5 0.2
v 0.7 1.5 -0.4
v 0.8 0.4 0.2
v 0.8 0.4 -0.4
v 0.8 0.6 0
v 0.8 0.6 -0.2
v 0.8 1.2 0
v 0.8 1.2 -0.2
v 0.8 1.4 0.2
v 0.8 1.4 -0.4
v 1 0.8 0
v 1 0.8 -0.2
v 1 1 0
v 1 1 -0.2
v 1.1 0.7 0
v 1.1 0.7 -0.2
v 1.1 0.8 0
v 1.1 0.8 -0.2
v 1.1 1 0
v 1.1 1 -0.2
v 1.1 1.1 0
v 1.1 1.1 -0.2
v 1.2 0.6 0
v 1.2 0.6 -0.2
v 1.2 0.7 0
v 1.2 0.7 -0.2
v 1.2 1.1 0
v 1.2 1.1 -0.2
v 1.2 1.2 0
v 1.2 1.2 -0.2
v -0.5 1 0.4
v -0.5 1.1 0.4
v -0.5 1.2 0.4
v -0.4 1.1 0.4
v -0.4 1.2 0.4
v -0.3 1 0.4
v -0.3 1.2 0.4
v -0.1 0.5 0.4
v -0.1 0.8 0.4
v 0 0.4 0.4
v 0 0.5 0.4
v 0 0.8 0.4
v 0 0.9 0.4
v 0.3 0.4 0.4
v 0.3 0.5 0.4
v 0.3 0.6 0.4
v 0.3 0.7 0.4
v 0.4 0.4 0.4
v 0.4 0.5 0.4
v 0.4 0.6 0.4
v 0.4 0.7 0.4
v 0.4 0.8 0.4
v 0.4 0.9 0.4
v 0.5 0.5 0.4
v 0.5 0.6 0.4
v 0.5 0.8 0.4
v 0.5 0.9 0.4
v 0.6 0.6 0.4
v 0.6 0.8 0.4
v -0.7 0.2 0.3
v -0.7 1.4 0.3
v -0.5 1 0.3
v -0.5 1.1 0.3
v -0.5 1.2 0.3
v -0.4 1.2 0.3
v -0.3 1 0.3
v -0.3 1.2 0.3
v -0.1 0.5 0.3
v -0.1 0.8 0.3
v 0 0.4 0.3
v 0 0.5 0.3
v 0 0.8 0.3
v 0 0.9 0.3
v 0.1 0.2 0.3
v 0.1 0.3 0.3
v 0.3 0.4 0.3
v 0.4 0.4 0.3
v 0.4 0.5 0.3
v 0.4 0.9 0.3
v 0.5 0.3 0.3
v 0.5 0.4 0.3
v 0.5 0.5 0.3
v 0.5 0.6 0.3
v 0.5 0.8 0.3
v 0.5 0.9 0.3
v 0.6 0.6 0.3
v 0.6 0.8 0.3
v 0.7 0.4 0.3
v 0.7 1.4 0.3
v -0.8 0.2 0.2
v -0.8 1.4 0.2
v -0.7 0.1 0.2
v -0.7 0.2 0.2
v -0.7 1.4 0.2
v -0.7 1.5 0.2
v 0.1 0.1 0.2
v 0.1 0.2 0.2
v 0.1 0.3 0.2
v 0.5 0.2 0.2
v 0.5 0.3 0.2
v 0.5 0.4 0.2
v 0.6 0.3 0.2
v 0.6 0.4 0.2
v 0.7 0.4 0.2
v 0.7 1.4 0.2
v 0.7 1.5 0.2
v 0.8 0.4 0.2
v 0.8 1.4 0.2
v -0.9 0.3 0.1
v -0.9 1.3 0.1
v -0.8 0.3 0.1
v -0.8 1.3 0.1
v -0.5 1.5 0.1
v -0.5 1.6 0.1
v 0.6 1.5 0.1
v 0.6 1.6 0.1
v -1 0.5 0
v -1 1 0
v -0.9 0.5 0
v -0.9 1 0
v 0.8 0.6 0
v 0.8 1.2 0
v 1 0.8 0
v 1 1 0
v 1.1 0.7 0
v 1.1 0.8 0
v 1.1 1 0
v 1.1 1.1 0
v 1.2 0.6 0
v 1.2 0.7 0
v 1.2 1.1 0
v 1.2 1.2 0
v -0.5 1.4 -0.3
v -0.5 1.5 -0.3
v 0.6 1.4 -0.3
v 0.6 1.5 -0.3
v -0.7 0.2 -0.4
v -0.7 0.4 -0.4
v 0.1 0.2 -0.4
v 0.1 0.3 -0.4
v 0.5 0.3 -0.4
v 0.5 0.4 -0.4
v -0.7 0.2 0.2
v -0.7 0.4 0.2
v 0.1 0.2 0.2
v 0.1 0.3 0.2
v 0.5 0.3 0.2
v 0.5 0.4 0.2
v -0.5 1.4 0.1
v -0.5 1.5 0.1
v 0.6 1.4 0.1
v 0.6 1.5 0.1
v -1 0.5 -0.2
v -1 1 -0.2
v -0.9 0.5 -0.2
v -0.9 1 -0.2
v 0.8 0.6 -0.2
v 0.8 1.2 -0.2
v 1 0.8 -0.2
v 1 1 -0.2
v 1.1 0.7 -0.2
v 1.1 0.8 -0.2
v 1.1 1 -0.2
v 1.1 1.1 -0.2
v 1.2 0.6 -0.2
v 1.2 0.7 -0.2
v 1.2 1.1 -0.2
v 1.2 1.2 -0.2
v -0.9 0.3 -0.3
v -0.9 1.3 -0.3
v -0.8 0.3 -0.3
v -0.8 1.3 -0.3
v -0.5 1.5 -0.3
v -0.5 1.6 -0.3
v 0.6 1.5 -0.3
v 0.6 1.6 -0.3
v -0.8 0.2 -0.4
v -0.8 1.4 -0.4
v -0.7 0.1 -0.4
v -0.7 0.2 -0.4
v -0.7 1.4 -0.4
v -0.7 1.5 -0.4
v 0.1 0.1 -0.4
v 0.1 0.2 -0.4
v 0.1 0.3 -0.4
v 0.5 0.2 -0.4
v 0.5 0.3 -0.4
v 0.5 0.4 -0.4
v 0.6 0.3 -0.4
v 0.6 0.4 -0.4
v 0.7 0.4 -0.4
v 0.7 1.4 -0.4
v 0.7 1.5 -0.4
v 0.8 0.4 -0.4
v 0.8 1.4 -0.4
v -0.7 0.2 -0.5
v -0.7 1.4 -0.5
v -0.5 1 -0.5
v -0.5 1.1 -0.5
v -0.5 1.2 -0.5
v -0.4 1.2 -0.5
v -0.3 1 -0.5
v -0.3 1.2 -0.5
v -0.1 0.5 -0.5
v -0.1 0.8 -0.5
v 0 0.4 -0.5
v 0 0.5 -0.5
v 0 0.8 -0.5
v 0 0.9 -0.5
v 0.1 0.2 -0.5
v 0.1 0.3 -0.5
v 0.3 0.4 -0.5
v 0.4 0.4 -0.5
v 0.4 0.5 -0.5
v 0.4 0.9 -0.5
v 0.5 0.3 -0.5
v 0.5 0.4 -0.5
v 0.5 0.5 -0.5
v 0.5 0.6 -0.5
v 0.5 0.8 -0.5
v 0.5 0.9 -0.5
v 0.6 0.6 -0.5
v 0.6 0.8 -0.5
v 0.7 0.4 -0.5
v 0.7 1.4 -0.5
v -0.5 1 -0.6
v -0.5 1.1 -0.6
v -0.5 1.2 -0.6
v -0.4 1.1 -0.6
v -0.4 1.2 -0.6
v -0.3 1 -0.6
v -0.3 1.2 -0.6
v -0.1 0.5 -0.6
v -0.1 0.8 -0.6
v 0 0.4 -0.6
v 0 0.5 -0.6
v 0 0.8 -0.6
v 0 0.9 -0.6
v 0.3 0.4 -0.6
v 0.3 0.5 -0.6
v 0.3 0.6 -0.6
v 0.3 0.7 -0.6
v 0.4 0.4 -0.6
v 0.4 0.5 -0.6
v 0.4 0.6 -0.6
v 0.4 0.7 -0.6
v 0.4 0.8 -0.6
v 0.4 0.9 -0.6
v 0.5 0.5 -0.6
v 0.5 0.6 -0.6
v 0.5 0.8 -0.6
v 0.5 0.9 -0.6
v 0.6 0.6 -0.6
v 0.6 0.8 -0.6
v -0.7 0.1 0.2
v 0.1 0.1 0.2
v -0.7 0.1 -0.4
v 0.1 0.1 -0.4
v -0.7 0.2 0.3
v 0.1 0.2 0.3
v -0.8 0.2 0.2
v -0.7 0.2 0.2
v 0.1 0.2 0.2
v 0.5 0.2 0.2
v -0.8 0.2 -0.4
v -0.7 0.2 -0.4
v 0.1 0.2 -0.4
v 0.5 0.2 -0.4
v -0.7 0.2 -0.5
v 0.1 0.2 -0.5
v 0.1 0.3 0.3
v 0.5 0.3 0.3
v 0.1 0.3 0.2
v 0.5 0.3 0.2
v 0.6 0.3 0.2
v -0.9 0.3 0.1
v -0.8 0.3 0.1
v -0.9 0.3 -0.3
v -0.8 0.3 -0.3
v 0.1 0.3 -0.4
v 0.5 0.3 -0.4
v 0.6 0.3 -0.4
v 0.1 0.3 -0.5
v 0.5 0.3 -0.5
v 0 0.4 0.4
v 0.3 0.4 0.4
v 0.4 0.4 0.4
v 0 0.4 0.3
v 0.3 0.4 0.3
v 0.4 0.4 0.3
v 0.5 0.4 0.3
v 0.7 0.4 0.3
v -0.7 0.4 0.2
v 0.5 0.4 0.2
v 0.6 0.4 0.2
v 0.7 0.4 0.2
v 0.8 0.4 0.2
v -0.7 0.4 -0.4
v 0.5 0.4 -0.4
v 0.6 0.4 -0.4
v 0.7 0.4 -0.4
v 0.8 0.4 -0.4
v 0 0.4 -0.5
v 0.3 0.4 -0.5
v 0.4 0.4 -0.5
v 0.5 0.4 -0.5
v 0.7 0.4 -0.5
v 0 0.4 -0.6
v 0.3 0.4 -0.6
v 0.4 0.4 -0.6
v -0.1 0.5 0.4
v 0 0.5 0.4
v 0.4 0.5 0.4
v 0.5 0.5 0.4
v -0.1 0.5 0.3
v 0 0.5 0.3
v 0.4 0.5 0.3
v 0.5 0.5 0.3
v -1 0.5 0
v -0.9 0.5 0
v -1 0.5 -0.2
v -0.9 0.5 -0.2
v -0.1 0.5 -0.5
v 0 0.5 -0.5
v 0.4 0.5 -0.5
v 0.5 0.5 -0.5
v -0.1 0.5 -0.6
v 0 0.5 -0.6
v 0.4 0.5 -0.6
v 0.5 0.5 -0.6
v 0.5 0.6 0.4
v 0.6 0.6 0.4
v 0.5 0.6 0.3
v 0.6 0.6 0.3
v 0.8 0.6 0
v 1.2 0.6 0
v 0.8 0.6 -0.2
v 1.2 0.6 -0.2
v 0.5 0.6 -0.5
v 0.6 0.6 -0.5
v 0.5 0.6 -0.6
v 0.6 0.6 -0.6
v -0.5 1 0.4
v -0.3 1 0.4
v -0.5 1 0.3
v -0.3 1 0.3
v 1 1 0
v 1.1 1 0
v 1 1 -0.2
v 1.1 1 -0.2
v -0.5 1 -0.5
v -0.3 1 -0.5
v -0.5 1 -0.6
v -0.3 1 -0.6
v 1.1 1.1 0
v 1.2 1.1 0
v 1.1 1.1 -0.2
v 1.2 1.1 -0.2
v -0.5 1.5 0.1
v 0.6 1.5 0.1
v -0.5 1.5 -0.3
v 0.6 1.5 -0.3
v -0.7 0.2 0.2
v 0.1 0.2 0.2
v -0.7 0.2 -0.4
v 0.1 0.2 -0.4
v 0.1 0.3 0.2
v 0.5 0.3 0.2
v 0.1 0.3 -0.4
v 0.5 0.3 -0.4
v 1.1 0.7 0
v 1.2 0.7 0
v 1.1 0.7 -0.2
v 1.2 0.7 -0.2
v -0.1 0.8 0.4
v 0 0.8 0.4
v 0.5 0.8 0.4
v 0.6 0.8 0.4
v -0.1 0.8 0.3
v 0 0.8 0.3
v 0.5 0.8 0.3
v 0.6 0.8 0.3
v 1 0.8 0
v 1.1 0.8 0
v 1 0.8 -0.2
v 1.1 0.8 -0.2
v -0.1 0.8 -0.5
v 0 0.8 -0.5
v 0.5 0.8 -0.5
v 0.6 0.8 -0.5
v -0.1 0.8 -0.6
v 0 0.8 -0.6
v 0.5 0.8 -0.6
v 0.6 0.8 -0.6
v 0 0.9 0.4
v 0.4 0.9 0.4
v 0.5 0.9 0.4
v 0 0.9 0.3
v 0.4 0.9 0.3
v 0.5 0.9 0.3
v 0 0.9 -0.5
v 0.4 0.9 -0.5
v 0.5 0.9 -0.5
v 0 0.9 -0.6
v 0.4 0.9 -0.6
v 0.5 0.9 -0.6
v -1 1 0
v -0.9 1 0
v -1 1 -0.2
v -0.9 1 -0.2
v -0.5 1.2 0.4
v -0.4 1.2 0.4
v -0.3 1.2 0.4
v -0.5 1.2 0.3
v -0.4 1.2 0.3
v -0.3 1.2 0.3
v 0.8 1.2 0
v 1.2 1.2 0
v 0.8 1.2 -0.2
v 1.2 1.2 -0.2
v -0.5 1.2 -0.5
v -0.4 1.2 -0.5
v -0.3 1.2 -0.5
v -0.5 1.2 -0.6
v -0.4 1.2 -0.6
v -0.3 1.2 -0.6
v -0.9 1.3 0.1
v -0.8 1.3 0.1
v -0.9 1.3 -0.3
v -0.8 1.3 -0.3
v -0.7 1.4 0.3
v 0.7 1.4 0.3
v -0.8 1.4 0.2
v -0.7 1.4 0.2
v 0.7 1.4 0.2
v 0.8 1.4 0.2
v -0.5 1.4 0.1
v 0.6 1.4 0.1
v -0.5 1.4 -0.3
v 0.6 1.4 -0.3
v -0.8 1.4 -0.4
v -0.7 1.4 -0.4
v 0.7 1.4 -0.4
v 0.8 1.4 -0.4
v -0.7 1.4 -0.5
v 0.7 1.4 -0.5
v -0.7 1.5 0.2
v 0.7 1.5 0.2
v -0.5 1.5 0.1
v 0.6 1.5 0.1
v -0.5 1.5 -0.3
v 0.6 1.5 -0.3
v -0.7 1.5 -0.4
v 0.7 1.5 -0.4
v -0.5 1.6 0.1
v 0.6 1.6 0.1
v -0.5 1.6 -0.3
v 0.6 1.6 -0.3

# faces
f 3/2/1 2/2/1 1/2/1
f 4/2/1 2/2/1 3/2/1
f 7/2/1 6/2/1 5/2/1
f 8/2/1 6/2/1 7/2/1
f 9/2/1 7/2/1 5/2/1
f 10/2/1 6/2/1 8/2/1
f 11/2/1 9/2/1 5/2/1
f 11/2/1 10/2/1 9/2/1
f 12/2/1 6/2/1 10/2/1
f 12/2/1 10/2/1 11/2/1
f 15/1/1 14/1/1 13/1/1
f 16/1/1 14/1/1 15/1/1
f 17/1/1 15/1/1 13/1/1
f 18/1/1 14/1/1 16/1/1
f 19/1/1 17/1/1 13/1/1
f 19/1/1 18/1/1 17/1/1
f 20/1/1 14/1/1 18/1/1
f 20/1/1 18/1/1 19/1/1
f 24/1/1 22/1/1 21/1/1
f 25/1/1 22/1/1 24/1/1
f 27/1/1 24/1/1 23/1/1
f 28/1/1 24/1/1 27/1/1
f 29/1/1 26/1/1 25/1/1
f 30/1/1 26/1/1 29/1/1
f 31/1/1 29/1/1 28/1/1
f 32/1/1 29/1/1 31/1/1
f 37/4/1 34/4/1 33/4/1
f 38/4/1 34/4/1 37/4/1
f 39/4/1 36/4/1 35/4/1
f 40/4/1 36/4/1 39/4/1
f 41/5/1 38/5/1 37/5/1
f 42/5/1 38/5/1 41/5/1
f 43/5/1 40/5/1 39/5/1
f 44/5/1 40/5/1 43/5/1
f 47/1/1 46/1/1 45/1/1
f 48/1/1 46/1/1 47/1/1
f 53/2/1 50/2/1 49/2/1
f 54/2/1 50/2/1 53/2/1
f 55/2/1 52/2/1 51/2/1
f 56/2/1 52/2/1 55/2/1
f 61/2/1 58/2/1 57/2/1
f 62/2/1 58/2/1 61/2/1
f 63/2/1 60/2/1 59/2/1
f 64/2/1 60/2/1 63/2/1
f 69/2/1 66/2/1 65/2/1
f 70/2/1 66/2/1 69/2/1
f 71/2/1 68/2/1 67/2/1
f 72/2/1 68/2/1 71/2/1
f 75/1/1 74/1/1 73/1/1
f 76/1/1 74/1/1 75/1/1
f 79/1/1 78/1/1 77/1/1
f 80/1/1 78/1/1 79/1/1
f 83/1/1 82/1/1 81/1/1
f 84/1/1 82/1/1 83/1/1
f 85/1/2 86/1/2 87/1/2
f 87/1/2 86/1/2 88/1/2
f 89/1/2 90/1/2 91/1/2
f 91/1/2 90/1/2 92/1/2
f 93/4/2 94/4/2 97/4/2
f 97/4/2 94/4/2 98/4/2
f 95/4/2 96/4/2 99/4/2
f 99/4/2 96/4/2 100/4/2
f 101/1/2 102/1/2 104/1/2
f 104/1/2 102/1/2 105/1/2
f 103/1/2 104/1/2 107/1/2
f 107/1/2 104/1/2 108/1/2
f 105/1/2 106/1/2 109/1/2
f 109/1/2 106/1/2 110/1/2
f 111/3/2 112/3/2 115/3/2
f 115/3/2 112/3/2 116/3/2
f 113/3/2 114/3/2 117/3/2
f 117/3/2 114/3/2 118/3/2
f 119/1/2 120/1/2 122/1/2
f 122/1/2 120/1/2 123/1/2
f 121/1/2 122/1/2 125/1/2
f 125/1/2 122/1/2 126/1/2
f 123/1/2 124/1/2 127/1/2
f 127/1/2 124/1/2 128/1/2
f 129/3/2 130/3/2 133/3/2
f 133/3/2 130/3/2 134/3/2
f 131/3/2 132/3/2 135/3/2
f 135/3/2 132/3/2 136/3/2
f 137/3/2 138/3/2 141/3/2
f 141/3/2 138/3/2 142/3/2
f 139/3/2 140/3/2 143/3/2
f 143/3/2 140/3/2 144/3/2
f 145/1/2 146/1/2 147/1/2
f 147/1/2 146/1/2 148/1/2
f 149/3/2 150/3/2 153/3/2
f 153/3/2 150/3/2 154/3/2
f 151/3/2 152/3/2 155/3/2
f 155/3/2 152/3/2 156/3/2
f 157/1/2 158/1/2 159/1/2
f 159/1/2 158/1/2 160/1/2
f 161/1/2 162/1/2 165/1/2
f 165/1/2 162/1/2 166/1/2
f 163/1/2 164/1/2 167/1/2
f 167/1/2 164/1/2 168/1/2
f 166/1/2 167/1/2 169/1/2
f 169/1/2 167/1/2 170/1/2
f 171/1/2 172/1/2 173/1/2
f 173/1/2 172/1/2 174/1/2
f 171/1/2 173/1/2 175/1/2
f 174/1/2 172/1/2 176/1/2
f 171/1/2 175/1/2 177/1/2
f 175/1/2 176/1/2 177/1/2
f 176/1/2 172/1/2 178/1/2
f 177/1/2 176/1/2 178/1/2
f 179/2/2 180/2/2 181/2/2
f 181/2/2 180/2/2 182/2/2
f 183/2/2 184/2/2 185/2/2
f 185/2/2 184/2/2 186/2/2
f 187/2/2 188/2/2 189/2/2
f 189/2/2 188/2/2 190/2/2
f 191/2/2 192/2/2 193/2/2
f 193/2/2 192/2/2 194/2/2
f 195/2/2 196/2/2 197/2/2
f 197/2/2 196/2/2 198/2/2
f 202/4/3 200/4/3 199/4/3
f 202/5/3 201/5/3 200/5/3
f 203/5/3 201/5/3 202/5/3
f 204/4/3 202/4/3 199/4/3
f 204/4/3 203/4/3 202/4/3
f 205/4/3 203/4/3 204/4/3
f 209/2/3 207/2/3 206/2/3
f 210/2/3 207/2/3 209/2/3
f 212/2/3 209/2/3 208/2/3
f 212/2/3 211/2/3 210/2/3
f 212/2/3 210/2/3 209/2/3
f 213/2/3 211/2/3 212/2/3
f 214/2/3 211/2/3 213/2/3
f 215/2/3 211/2/3 214/2/3
f 216/3/3 213/3/3 212/3/3
f 217/2/3 214/2/3 213/2/3
f 217/3/3 213/3/3 216/3/3
f 218/3/3 215/3/3 214/3/3
f 218/2/3 214/2/3 217/2/3
f 219/2/3 211/2/3 215/2/3
f 219/3/3 215/3/3 218/3/3
f 220/2/3 211/2/3 219/2/3
f 221/2/3 211/2/3 220/2/3
f 222/3/3 218/3/3 217/3/3
f 223/2/3 219/2/3 218/2/3
f 223/3/3 218/3/3 222/3/3
f 223/2/3 220/2/3 219/2/3
f 224/3/3 221/3/3 220/3/3
f 224/2/3 220/2/3 223/2/3
f 225/3/3 221/3/3 224/3/3
f 226/3/3 224/3/3 223/3/3
f 227/3/3 224/3/3 226/3/3
f 230/1/3 229/1/3 228/1/3
f 231/1/3 229/1/3 230/1/3
f 232/1/3 229/1/3 231/1/3
f 233/1/3 229/1/3 232/1/3
f 234/1/3 230/1/3 228/1/3
f 235/1/3 229/1/3 233/1/3
f 236/1/3 234/1/3 228/1/3
f 236/1/3 235/1/3 234/1/3
f 237/1/3 235/1/3 236/1/3
f 238/1/3 236/1/3 228/1/3
f 239/1/3 236/1/3 238/1/3
f 240/1/3 235/1/3 237/1/3
f 241/1/3 235/1/3 240/1/3
f 242/1/3 238/1/3 228/1/3
f 243/1/3 238/1/3 242/1/3
f 244/1/3 238/1/3 243/1/3
f 245/1/3 244/1/3 243/1/3
f 247/1/3 235/1/3 241/1/3
f 248/1/3 246/1/3 245/1/3
f 248/1/3 245/1/3 243/1/3
f 249/1/3 246/1/3 248/1/3
f 250/1/3 246/1/3 249/1/3
f 253/1/3 235/1/3 247/1/3
f 254/1/3 251/1/3 250/1/3
f 254/1/3 250/1/3 249/1/3
f 255/1/3 253/1/3 252/1/3
f 256/1/3 254/1/3 249/1/3
f 256/1/3 255/1/3 254/1/3
f 257/1/3 229/1/3 235/1/3
f 257/1/3 255/1/3 256/1/3
f 257/1/3 253/1/3 255/1/3
f 257/1/3 235/1/3 253/1/3
f 261/1/3 259/1/3 258/1/3
f 262/1/3 259/1/3 261/1/3
f 264/1/3 261/1/3 260/1/3
f 265/1/3 261/1/3 264/1/3
f 267/1/3 266/1/3 265/1/3
f 268/1/3 266/1/3 267/1/3
f 270/1/3 269/1/3 268/1/3
f 271/1/3 269/1/3 270/1/3
f 273/1/3 263/1/3 262/1/3
f 274/1/3 263/1/3 273/1/3
f 275/1/3 273/1/3 272/1/3
f 276/1/3 273/1/3 275/1/3
f 279/2/3 278/2/3 277/2/3
f 280/2/3 278/2/3 279/2/3
f 283/1/3 282/1/3 281/1/3
f 284/1/3 282/1/3 283/1/3
f 287/2/3 286/2/3 285/2/3
f 288/2/3 286/2/3 287/2/3
f 291/2/3 290/2/3 289/2/3
f 292/2/3 290/2/3 291/2/3
f 293/2/3 291/2/3 289/2/3
f 294/2/3 291/2/3 293/2/3
f 295/2/3 290/2/3 292/2/3
f 296/2/3 290/2/3 295/2/3
f 297/2/3 293/2/3 289/2/3
f 298/2/3 293/2/3 297/2/3
f 299/2/3 290/2/3 296/2/3
f 300/2/3 290/2/3 299/2/3
f 303/1/3 302/1/3 301/1/3
f 304/1/3 302/1/3 303/1/3
f 307/1/3 306/1/3 305/1/3
f 308/1/3 306/1/3 307/1/3
f 309/1/3 306/1/3 308/1/3
f 310/1/3 306/1/3 309/1/3
f 311/1/4 312/1/4 313/1/4
f 313/1/4 312/1/4 314/1/4
f 314/1/4 312/1/4 315/1/4
f 315/1/4 312/1/4 316/1/4
f 317/1/4 318/1/4 319/1/4
f 319/1/4 318/1/4 320/1/4
f 321/2/4 322/2/4 323/2/4
f 323/2/4 322/2/4 324/2/4
f 325/2/4 326/2/4 327/2/4
f 327/2/4 326/2/4 328/2/4
f 325/2/4 327/2/4 329/2/4
f 329/2/4 327/2/4 330/2/4
f 328/2/4 326/2/4 331/2/4
f 331/2/4 326/2/4 332/2/4
f 325/2/4 329/2/4 333/2/4
f 333/2/4 329/2/4 334/2/4
f 332/2/4 326/2/4 335/2/4
f 335/2/4 326/2/4 336/2/4
f 337/2/4 338/2/4 339/2/4
f 339/2/4 338/2/4 340/2/4
f 341/1/4 342/1/4 343/1/4
f 343/1/4 342/1/4 344/1/4
f 345/1/4 346/1/4 348/1/4
f 348/1/4 346/1/4 349/1/4
f 347/1/4 348/1/4 351/1/4
f 351/1/4 348/1/4 352/1/4
f 352/1/4 353/1/4 354/1/4
f 354/1/4 353/1/4 355/1/4
f 355/1/4 356/1/4 357/1/4
f 357/1/4 356/1/4 358/1/4
f 349/1/4 350/1/4 360/1/4
f 360/1/4 350/1/4 361/1/4
f 359/1/4 360/1/4 362/1/4
f 362/1/4 360/1/4 363/1/4
f 364/1/4 365/1/4 366/1/4
f 366/1/4 365/1/4 367/1/4
f 367/1/4 365/1/4 368/1/4
f 368/1/4 365/1/4 369/1/4
f 364/1/4 366/1/4 370/1/4
f 369/1/4 365/1/4 371/1/4
f 364/1/4 370/1/4 372/1/4
f 370/1/4 371/1/4 372/1/4
f 372/1/4 371/1/4 373/1/4
f 364/1/4 372/1/4 374/1/4
f 374/1/4 372/1/4 375/1/4
f 373/1/4 371/1/4 376/1/4
f 376/1/4 371/1/4 377/1/4
f 364/1/4 374/1/4 378/1/4
f 378/1/4 374/1/4 379/1/4
f 379/1/4 374/1/4 380/1/4
f 379/1/4 380/1/4 381/1/4
f 377/1/4 371/1/4 383/1/4
f 381/1/4 382/1/4 384/1/4
f 379/1/4 381/1/4 384/1/4
f 384/1/4 382/1/4 385/1/4
f 385/1/4 382/1/4 386/1/4
f 383/1/4 371/1/4 389/1/4
f 386/1/4 387/1/4 390/1/4
f 385/1/4 386/1/4 390/1/4
f 388/1/4 389/1/4 391/1/4
f 385/1/4 390/1/4 392/1/4
f 390/1/4 391/1/4 392/1/4
f 371/1/4 365/1/4 393/1/4
f 392/1/4 391/1/4 393/1/4
f 391/1/4 389/1/4 393/1/4
f 389/1/4 371/1/4 393/1/4
f 394/4/4 395/4/4 397/4/4
f 395/5/4 396/5/4 397/5/4
f 397/5/4 396/5/4 398/5/4
f 394/4/4 397/4/4 399/4/4
f 397/4/4 398/4/4 399/4/4
f 399/4/4 398/4/4 400/4/4
f 401/2/4 402/2/4 404/2/4
f 404/2/4 402/2/4 405/2/4
f 403/2/4 404/2/4 407/2/4
f 405/2/4 406/2/4 407/2/4
f 404/2/4 405/2/4 407/2/4
f 407/2/4 406/2/4 408/2/4
f 408/2/4 406/2/4 409/2/4
f 409/2/4 406/2/4 410/2/4
f 407/3/4 408/3/4 411/3/4
f 408/2/4 409/2/4 412/2/4
f 411/3/4 408/3/4 412/3/4
f 409/3/4 410/3/4 413/3/4
f 412/2/4 409/2/4 413/2/4
f 410/2/4 406/2/4 414/2/4
f 413/3/4 410/3/4 414/3/4
f 414/2/4 406/2/4 415/2/4
f 415/2/4 406/2/4 416/2/4
f 412/3/4 413/3/4 417/3/4
f 413/2/4 414/2/4 418/2/4
f 417/3/4 413/3/4 418/3/4
f 414/2/4 415/2/4 418/2/4
f 415/3/4 416/3/4 419/3/4
f 418/2/4 415/2/4 419/2/4
f 419/3/4 416/3/4 420/3/4
f 418/3/4 419/3/4 421/3/4
f 421/3/4 419/3/4 422/3/4
f 425/1/5 424/1/5 423/1/5
f 426/1/5 424/1/5 425/1/5
f 430/1/5 428/1/5 427/1/5
f 431/1/5 428/1/5 430/1/5
f 433/1/5 430/1/5 429/1/5
f 434/1/5 430/1/5 433/1/5
f 435/1/5 432/1/5 431/1/5
f 436/1/5 432/1/5 435/1/5
f 437/1/5 435/1/5 434/1/5
f 438/1/5 435/1/5 437/1/5
f 441/1/5 440/1/5 439/1/5
f 442/1/5 440/1/5 441/1/5
f 446/2/5 445/2/5 444/2/5
f 447/2/5 445/2/5 446/2/5
f 449/1/5 443/1/5 442/1/5
f 450/1/5 443/1/5 449/1/5
f 451/1/5 449/1/5 448/1/5
f 452/1/5 449/1/5 451/1/5
f 456/2/5 454/2/5 453/2/5
f 457/3/5 455/3/5 454/3/5
f 457/2/5 454/2/5 456/2/5
f 458/3/5 455/3/5 457/3/5
f 462/1/5 460/1/5 459/1/5
f 463/1/5 460/1/5 462/1/5
f 464/1/5 460/1/5 463/1/5
f 466/1/5 462/1/5 461/1/5
f 467/1/5 462/1/5 466/1/5
f 468/1/5 465/1/5 464/1/5
f 468/1/5 464/1/5 463/1/5
f 469/1/5 465/1/5 468/1/5
f 470/1/5 465/1/5 469/1/5
f 474/1/5 468/1/5 467/1/5
f 474/1/5 469/1/5 468/1/5
f 475/1/5 469/1/5 474/1/5
f 476/2/5 472/2/5 471/2/5
f 477/3/5 473/3/5 472/3/5
f 477/2/5 472/2/5 476/2/5
f 478/3/5 473/3/5 477/3/5
f 483/2/5 480/2/5 479/2/5
f 484/2/5 480/2/5 483/2/5
f 485/3/5 482/3/5 481/3/5
f 486/3/5 482/3/5 485/3/5
f 489/2/5 488/2/5 487/2/5
f 490/2/5 488/2/5 489/2/5
f 495/2/5 492/2/5 491/2/5
f 496/2/5 492/2/5 495/2/5
f 497/3/5 494/3/5 493/3/5
f 498/3/5 494/3/5 497/3/5
f 501/3/5 500/3/5 499/3/5
f 502/3/5 500/3/5 501/3/5
f 505/2/5 504/2/5 503/2/5
f 506/2/5 504/2/5 505/2/5
f 509/3/5 508/3/5 507/3/5
f 510/3/5 508/3/5 509/3/5
f 513/4/5 512/4/5 511/4/5
f 514/4/5 512/4/5 513/4/5
f 517/2/5 516/2/5 515/2/5
f 518/2/5 516/2/5 517/2/5
f 521/4/5 520/4/5 519/4/5
f 522/4/5 520/4/5 521/4/5
f 525/2/5 524/2/5 523/2/5
f 526/2/5 524/2/5 525/2/5
f 529/1/5 528/1/5 527/1/5
f 530/1/5 528/1/5 529/1/5
f 531/1/6 532/1/6 533/1/6
f 533/1/6 532/1/6 534/1/6
f 535/1/6 536/1/6 537/1/6
f 537/1/6 536/1/6 538/1/6
f 539/2/6 540/2/6 541/2/6
f 541/2/6 540/2/6 542/2/6
f 543/2/6 544/2/6 547/2/6
f 547/2/6 544/2/6 548/2/6
f 545/3/6 546/3/6 549/3/6
f 549/3/6 546/3/6 550/3/6
f 551/2/6 552/2/6 553/2/6
f 553/2/6 552/2/6 554/2/6
f 555/2/6 556/2/6 559/2/6
f 559/2/6 556/2/6 560/2/6
f 557/3/6 558/3/6 561/3/6
f 561/3/6 558/3/6 562/3/6
f 563/2/6 564/2/6 566/2/6
f 564/3/6 565/3/6 567/3/6
f 566/2/6 564/2/6 567/2/6
f 567/3/6 565/3/6 568/3/6
f 569/2/6 570/2/6 572/2/6
f 570/3/6 571/3/6 573/3/6
f 572/2/6 570/2/6 573/2/6
f 573/3/6 571/3/6 574/3/6
f 575/2/6 576/2/6 577/2/6
f 577/2/6 576/2/6 578/2/6
f 579/5/6 580/5/6 582/5/6
f 580/4/6 581/4/6 583/4/6
f 582/5/6 580/5/6 583/5/6
f 583/4/6 581/4/6 584/4/6
f 585/2/6 586/2/6 587/2/6
f 587/2/6 586/2/6 588/2/6
f 589/5/6 590/5/6 592/5/6
f 590/4/6 591/4/6 593/4/6
f 592/5/6 590/5/6 593/5/6
f 593/4/6 591/4/6 594/4/6
f 595/2/6 596/2/6 597/2/6
f 597/2/6 596/2/6 598/2/6
f 599/1/6 600/1/6 602/1/6
f 602/1/6 600/1/6 603/1/6
f 605/1/6 606/1/6 607/1/6
f 607/1/6 606/1/6 608/1/6
f 601/1/6 602/1/6 609/1/6
f 609/1/6 602/1/6 610/1/6
f 603/1/6 604/1/6 611/1/6
f 611/1/6 604/1/6 612/1/6
f 610/1/6 611/1/6 613/1/6
f 613/1/6 611/1/6 614/1/6
f 615/1/6 616/1/6 617/1/6
f 617/1/6 616/1/6 618/1/6
f 615/1/6 617/1/6 619/1/6
f 618/1/6 616/1/6 620/1/6
f 615/1/6 619/1/6 621/1/6
f 619/1/6 620/1/6 621/1/6
f 620/1/6 616/1/6 622/1/6
f 621/1/6 620/1/6 622/1/6
f 623/1/6 624/1/6 625/1/6
f 625/1/6 624/1/6 626/1/6
