# MagicaVoxel @ Ephtracy

# group
o 

# material
mtllib obj.sail.mtl
usemtl palette

# normals
vn -1 0 0
vn 1 0 0
vn 0 0 1
vn 0 0 -1
vn 0 -1 0
vn 0 1 0

# texcoords
vt 0.537109 0.5
vt 0.642578 0.5
vt 0.970703 0.5

# verts
v -2.23517e-08 0.1 0.1
v -2.23517e-08 0.1 -0.0999999
v -2.23517e-08 0.6 0.7
v -2.23517e-08 0.6 0.1
v -2.23517e-08 0.6 -0.0999999
v -2.23517e-08 0.6 -0.7
v -2.23517e-08 0.7 0.7
v -2.23517e-08 0.7 0.1
v -2.23517e-08 0.7 -0.0999999
v -2.23517e-08 0.7 -0.7
v -2.23517e-08 2.5 0.7
v -2.23517e-08 2.5 0.1
v -2.23517e-08 2.5 -0.0999999
v -2.23517e-08 2.5 -0.7
v -2.23517e-08 2.6 0.7
v -2.23517e-08 2.6 0.1
v -2.23517e-08 2.6 -0.0999999
v -2.23517e-08 2.6 -0.7
v -2.23517e-08 2.7 0.1
v -2.23517e-08 2.7 -0.0999999
v 0.1 0.7 0.7
v 0.1 0.7 0.4
v 0.1 0.7 0.3
v 0.1 0.7 0.1
v 0.1 0.7 -0.0999999
v 0.1 0.7 -0.3
v 0.1 0.7 -0.4
v 0.1 0.7 -0.7
v 0.1 0.8 0.7
v 0.1 0.8 0.4
v 0.1 0.8 0.3
v 0.1 0.8 0.1
v 0.1 0.8 -0.0999999
v 0.1 0.8 -0.3
v 0.1 0.8 -0.4
v 0.1 0.8 -0.7
v 0.1 2.4 0.7
v 0.1 2.4 0.4
v 0.1 2.4 0.3
v 0.1 2.4 0.1
v 0.1 2.4 -0.0999999
v 0.1 2.4 -0.3
v 0.1 2.4 -0.4
v 0.1 2.4 -0.7
v 0.1 2.5 0.7
v 0.1 2.5 0.4
v 0.1 2.5 0.3
v 0.1 2.5 0.1
v 0.1 2.5 -0.0999999
v 0.1 2.5 -0.3
v 0.1 2.5 -0.4
v 0.1 2.5 -0.7
v 0.2 0.8 0.8
v 0.2 0.8 0.7
v 0.2 0.8 0.4
v 0.2 0.8 0.3
v 0.2 0.8 0.1
v 0.2 0.8 -0.0999999
v 0.2 0.8 -0.3
v 0.2 0.8 -0.4
v 0.2 0.8 -0.7
v 0.2 0.8 -0.8
v 0.2 0.9 0.8
v 0.2 0.9 0.4
v 0.2 0.9 0.3
v 0.2 0.9 0.1
v 0.2 0.9 -0.0999999
v 0.2 0.9 -0.3
v 0.2 0.9 -0.4
v 0.2 0.9 -0.8
v 0.2 2.3 0.8
v 0.2 2.3 0.4
v 0.2 2.3 0.3
v 0.2 2.3 0.1
v 0.2 2.3 -0.0999999
v 0.2 2.3 -0.3
v 0.2 2.3 -0.4
v 0.2 2.3 -0.8
v 0.2 2.4 0.8
v 0.2 2.4 0.7
v 0.2 2.4 0.4
v 0.2 2.4 0.3
v 0.2 2.4 0.1
v 0.2 2.4 -0.0999999
v 0.2 2.4 -0.3
v 0.2 2.4 -0.4
v 0.2 2.4 -0.7
v 0.2 2.4 -0.8
v 0.3 0.9 0.8
v 0.3 0.9 0.4
v 0.3 0.9 0.3
v 0.3 0.9 -0.3
v 0.3 0.9 -0.4
v 0.3 0.9 -0.8
v 0.3 2.3 0.8
v 0.3 2.3 0.4
v 0.3 2.3 0.3
v 0.3 2.3 -0.3
v 0.3 2.3 -0.4
v 0.3 2.3 -0.8
v 0.1 0.6 0.7
v 0.1 0.6 0.1
v 0.1 0.6 -0.0999999
v 0.1 0.6 -0.7
v 0.1 0.7 0.7
v 0.1 0.7 0.4
v 0.1 0.7 0.3
v 0.1 0.7 0.1
v 0.1 0.7 -0.0999999
v 0.1 0.7 -0.3
v 0.1 0.7 -0.4
v 0.1 0.7 -0.7
v 0.1 2.5 0.7
v 0.1 2.5 0.4
v 0.1 2.5 0.3
v 0.1 2.5 0.1
v 0.1 2.5 -0.0999999
v 0.1 2.5 -0.3
v 0.1 2.5 -0.4
v 0.1 2.5 -0.7
v 0.1 2.6 0.7
v 0.1 2.6 0.1
v 0.1 2.6 -0.0999999
v 0.1 2.6 -0.7
v 0.2 0.1 0.1
v 0.2 0.1 -0.0999999
v 0.2 0.7 0.7
v 0.2 0.7 0.4
v 0.2 0.7 0.3
v 0.2 0.7 0.1
v 0.2 0.7 -0.0999999
v 0.2 0.7 -0.3
v 0.2 0.7 -0.4
v 0.2 0.7 -0.7
v 0.2 0.8 0.7
v 0.2 0.8 0.4
v 0.2 0.8 0.3
v 0.2 0.8 -0.3
v 0.2 0.8 -0.4
v 0.2 0.8 -0.7
v 0.2 0.9 0.1
v 0.2 0.9 -0.0999999
v 0.2 2.3 0.1
v 0.2 2.3 -0.0999999
v 0.2 2.4 0.7
v 0.2 2.4 0.4
v 0.2 2.4 0.3
v 0.2 2.4 -0.3
v 0.2 2.4 -0.4
v 0.2 2.4 -0.7
v 0.2 2.5 0.7
v 0.2 2.5 0.4
v 0.2 2.5 0.3
v 0.2 2.5 0.1
v 0.2 2.5 -0.0999999
v 0.2 2.5 -0.3
v 0.2 2.5 -0.4
v 0.2 2.5 -0.7
v 0.2 2.7 0.1
v 0.2 2.7 -0.0999999
v 0.3 0.8 0.8
v 0.3 0.8 0.4
v 0.3 0.8 0.3
v 0.3 0.8 -0.3
v 0.3 0.8 -0.4
v 0.3 0.8 -0.8
v 0.3 0.9 0.8
v 0.3 0.9 0.4
v 0.3 0.9 0.3
v 0.3 0.9 -0.3
v 0.3 0.9 -0.4
v 0.3 0.9 -0.8
v 0.3 2.3 0.8
v 0.3 2.3 0.4
v 0.3 2.3 0.3
v 0.3 2.3 -0.3
v 0.3 2.3 -0.4
v 0.3 2.3 -0.8
v 0.3 2.4 0.8
v 0.3 2.4 0.4
v 0.3 2.4 0.3
v 0.3 2.4 -0.3
v 0.3 2.4 -0.4
v 0.3 2.4 -0.8
v 0.4 0.9 0.8
v 0.4 0.9 0.4
v 0.4 0.9 0.3
v 0.4 0.9 -0.3
v 0.4 0.9 -0.4
v 0.4 0.9 -0.8
v 0.4 2.3 0.8
v 0.4 2.3 0.4
v 0.4 2.3 0.3
v 0.4 2.3 -0.3
v 0.4 2.3 -0.4
v 0.4 2.3 -0.8
v 0.2 0.8 0.8
v 0.2 0.9 0.8
v 0.2 2.3 0.8
v 0.2 2.4 0.8
v 0.3 0.8 0.8
v 0.3 0.9 0.8
v 0.3 2.3 0.8
v 0.3 2.4 0.8
v 0.4 0.9 0.8
v 0.4 2.3 0.8
v -2.23517e-08 0.6 0.7
v -2.23517e-08 0.7 0.7
v -2.23517e-08 2.5 0.7
v -2.23517e-08 2.6 0.7
v 0.1 0.6 0.7
v 0.1 0.7 0.7
v 0.1 0.8 0.7
v 0.1 2.4 0.7
v 0.1 2.5 0.7
v 0.1 2.6 0.7
v 0.2 0.7 0.7
v 0.2 0.8 0.7
v 0.2 2.4 0.7
v 0.2 2.5 0.7
v -2.23517e-08 0.1 0.1
v -2.23517e-08 0.6 0.1
v -2.23517e-08 0.7 0.1
v -2.23517e-08 2.5 0.1
v -2.23517e-08 2.6 0.1
v -2.23517e-08 2.7 0.1
v 0.1 0.6 0.1
v 0.1 0.7 0.1
v 0.1 0.8 0.1
v 0.1 2.4 0.1
v 0.1 2.5 0.1
v 0.1 2.6 0.1
v 0.2 0.1 0.1
v 0.2 0.7 0.1
v 0.2 0.8 0.1
v 0.2 0.9 0.1
v 0.2 2.3 0.1
v 0.2 2.4 0.1
v 0.2 2.5 0.1
v 0.2 2.7 0.1
v -2.23517e-08 0.1 -0.0999999
v -2.23517e-08 0.6 -0.0999999
v -2.23517e-08 0.7 -0.0999999
v -2.23517e-08 2.5 -0.0999999
v -2.23517e-08 2.6 -0.0999999
v -2.23517e-08 2.7 -0.0999999
v 0.1 0.6 -0.0999999
v 0.1 0.7 -0.0999999
v 0.1 0.8 -0.0999999
v 0.1 2.4 -0.0999999
v 0.1 2.5 -0.0999999
v 0.1 2.6 -0.0999999
v 0.2 0.1 -0.0999999
v 0.2 0.7 -0.0999999
v 0.2 0.8 -0.0999999
v 0.2 0.9 -0.0999999
v 0.2 2.3 -0.0999999
v 0.2 2.4 -0.0999999
v 0.2 2.5 -0.0999999
v 0.2 2.7 -0.0999999
v -2.23517e-08 0.6 -0.7
v -2.23517e-08 0.7 -0.7
v -2.23517e-08 2.5 -0.7
v -2.23517e-08 2.6 -0.7
v 0.1 0.6 -0.7
v 0.1 0.7 -0.7
v 0.1 0.8 -0.7
v 0.1 2.4 -0.7
v 0.1 2.5 -0.7
v 0.1 2.6 -0.7
v 0.2 0.7 -0.7
v 0.2 0.8 -0.7
v 0.2 2.4 -0.7
v 0.2 2.5 -0.7
v 0.2 0.8 -0.8
v 0.2 0.9 -0.8
v 0.2 2.3 -0.8
v 0.2 2.4 -0.8
v 0.3 0.8 -0.8
v 0.3 0.9 -0.8
v 0.3 2.3 -0.8
v 0.3 2.4 -0.8
v 0.4 0.9 -0.8
v 0.4 2.3 -0.8
v -2.23517e-08 0.1 0.1
v 0.2 0.1 0.1
v -2.23517e-08 0.1 -0.0999999
v 0.2 0.1 -0.0999999
v -2.23517e-08 0.6 0.7
v 0.1 0.6 0.7
v -2.23517e-08 0.6 0.1
v 0.1 0.6 0.1
v -2.23517e-08 0.6 -0.0999999
v 0.1 0.6 -0.0999999
v -2.23517e-08 0.6 -0.7
v 0.1 0.6 -0.7
v 0.1 0.7 0.7
v 0.2 0.7 0.7
v 0.1 0.7 0.4
v 0.2 0.7 0.4
v 0.1 0.7 0.3
v 0.2 0.7 0.3
v 0.1 0.7 0.1
v 0.2 0.7 0.1
v 0.1 0.7 -0.0999999
v 0.2 0.7 -0.0999999
v 0.1 0.7 -0.3
v 0.2 0.7 -0.3
v 0.1 0.7 -0.4
v 0.2 0.7 -0.4
v 0.1 0.7 -0.7
v 0.2 0.7 -0.7
v 0.2 0.8 0.8
v 0.3 0.8 0.8
v 0.2 0.8 0.7
v 0.2 0.8 0.4
v 0.3 0.8 0.4
v 0.2 0.8 0.3
v 0.3 0.8 0.3
v 0.2 0.8 -0.3
v 0.3 0.8 -0.3
v 0.2 0.8 -0.4
v 0.3 0.8 -0.4
v 0.2 0.8 -0.7
v 0.2 0.8 -0.8
v 0.3 0.8 -0.8
v 0.3 0.9 0.8
v 0.4 0.9 0.8
v 0.3 0.9 0.4
v 0.4 0.9 0.4
v 0.3 0.9 0.3
v 0.4 0.9 0.3
v 0.3 0.9 -0.3
v 0.4 0.9 -0.3
v 0.3 0.9 -0.4
v 0.4 0.9 -0.4
v 0.3 0.9 -0.8
v 0.4 0.9 -0.8
v 0.2 2.3 0.8
v 0.3 2.3 0.8
v 0.2 2.3 0.4
v 0.3 2.3 0.4
v 0.2 2.3 0.3
v 0.3 2.3 0.3
v 0.2 2.3 0.1
v 0.2 2.3 -0.0999999
v 0.2 2.3 -0.3
v 0.3 2.3 -0.3
v 0.2 2.3 -0.4
v 0.3 2.3 -0.4
v 0.2 2.3 -0.8
v 0.3 2.3 -0.8
v 0.1 2.4 0.7
v 0.2 2.4 0.7
v 0.1 2.4 0.4
v 0.2 2.4 0.4
v 0.1 2.4 0.3
v 0.2 2.4 0.3
v 0.1 2.4 0.1
v 0.2 2.4 0.1
v 0.1 2.4 -0.0999999
v 0.2 2.4 -0.0999999
v 0.1 2.4 -0.3
v 0.2 2.4 -0.3
v 0.1 2.4 -0.4
v 0.2 2.4 -0.4
v 0.1 2.4 -0.7
v 0.2 2.4 -0.7
v -2.23517e-08 2.5 0.7
v 0.1 2.5 0.7
v 0.1 2.5 0.4
v 0.1 2.5 0.3
v -2.23517e-08 2.5 0.1
v 0.1 2.5 0.1
v -2.23517e-08 2.5 -0.0999999
v 0.1 2.5 -0.0999999
v 0.1 2.5 -0.3
v 0.1 2.5 -0.4
v -2.23517e-08 2.5 -0.7
v 0.1 2.5 -0.7
v -2.23517e-08 0.7 0.7
v 0.1 0.7 0.7
v 0.1 0.7 0.4
v 0.1 0.7 0.3
v -2.23517e-08 0.7 0.1
v 0.1 0.7 0.1
v -2.23517e-08 0.7 -0.0999999
v 0.1 0.7 -0.0999999
v 0.1 0.7 -0.3
v 0.1 0.7 -0.4
v -2.23517e-08 0.7 -0.7
v 0.1 0.7 -0.7
v 0.1 0.8 0.7
v 0.2 0.8 0.7
v 0.1 0.8 0.4
v 0.2 0.8 0.4
v 0.1 0.8 0.3
v 0.2 0.8 0.3
v 0.1 0.8 0.1
v 0.2 0.8 0.1
v 0.1 0.8 -0.0999999
v 0.2 0.8 -0.0999999
v 0.1 0.8 -0.3
v 0.2 0.8 -0.3
v 0.1 0.8 -0.4
v 0.2 0.8 -0.4
v 0.1 0.8 -0.7
v 0.2 0.8 -0.7
v 0.2 0.9 0.8
v 0.3 0.9 0.8
v 0.2 0.9 0.4
v 0.3 0.9 0.4
v 0.2 0.9 0.3
v 0.3 0.9 0.3
v 0.2 0.9 0.1
v 0.2 0.9 -0.0999999
v 0.2 0.9 -0.3
v 0.3 0.9 -0.3
v 0.2 0.9 -0.4
v 0.3 0.9 -0.4
v 0.2 0.9 -0.8
v 0.3 0.9 -0.8
v 0.3 2.3 0.8
v 0.4 2.3 0.8
v 0.3 2.3 0.4
v 0.4 2.3 0.4
v 0.3 2.3 0.3
v 0.4 2.3 0.3
v 0.3 2.3 -0.3
v 0.4 2.3 -0.3
v 0.3 2.3 -0.4
v 0.4 2.3 -0.4
v 0.3 2.3 -0.8
v 0.4 2.3 -0.8
v 0.2 2.4 0.8
v 0.3 2.4 0.8
v 0.2 2.4 0.7
v 0.2 2.4 0.4
v 0.3 2.4 0.4
v 0.2 2.4 0.3
v 0.3 2.4 0.3
v 0.2 2.4 -0.3
v 0.3 2.4 -0.3
v 0.2 2.4 -0.4
v 0.3 2.4 -0.4
v 0.2 2.4 -0.7
v 0.2 2.4 -0.8
v 0.3 2.4 -0.8
v 0.1 2.5 0.7
v 0.2 2.5 0.7
v 0.1 2.5 0.4
v 0.2 2.5 0.4
v 0.1 2.5 0.3
v 0.2 2.5 0.3
v 0.1 2.5 0.1
v 0.2 2.5 0.1
v 0.1 2.5 -0.0999999
v 0.2 2.5 -0.0999999
v 0.1 2.5 -0.3
v 0.2 2.5 -0.3
v 0.1 2.5 -0.4
v 0.2 2.5 -0.4
v 0.1 2.5 -0.7
v 0.2 2.5 -0.7
v -2.23517e-08 2.6 0.7
v 0.1 2.6 0.7
v -2.23517e-08 2.6 0.1
v 0.1 2.6 0.1
v -2.23517e-08 2.6 -0.0999999
v 0.1 2.6 -0.0999999
v -2.23517e-08 2.6 -0.7
v 0.1 2.6 -0.7
v -2.23517e-08 2.7 0.1
v 0.2 2.7 0.1
v -2.23517e-08 2.7 -0.0999999
v 0.2 2.7 -0.0999999

# faces
f 4/1/1 2/1/1 1/1/1
f 5/1/1 2/1/1 4/1/1
f 7/1/1 4/1/1 3/1/1
f 7/1/1 6/1/1 5/1/1
f 7/1/1 5/1/1 4/1/1
f 8/1/1 6/1/1 7/1/1
f 9/1/1 6/1/1 8/1/1
f 10/1/1 6/1/1 9/1/1
f 12/1/1 9/1/1 8/1/1
f 13/1/1 9/1/1 12/1/1
f 15/1/1 12/1/1 11/1/1
f 15/1/1 14/1/1 13/1/1
f 15/1/1 13/1/1 12/1/1
f 16/1/1 14/1/1 15/1/1
f 17/1/1 14/1/1 16/1/1
f 18/1/1 14/1/1 17/1/1
f 19/1/1 17/1/1 16/1/1
f 20/1/1 17/1/1 19/1/1
f 29/3/1 22/3/1 21/3/1
f 30/2/1 23/2/1 22/2/1
f 30/3/1 22/3/1 29/3/1
f 31/3/1 24/3/1 23/3/1
f 31/2/1 23/2/1 30/2/1
f 32/3/1 24/3/1 31/3/1
f 33/3/1 26/3/1 25/3/1
f 34/2/1 27/2/1 26/2/1
f 34/3/1 26/3/1 33/3/1
f 35/3/1 28/3/1 27/3/1
f 35/2/1 27/2/1 34/2/1
f 36/3/1 28/3/1 35/3/1
f 45/3/1 38/3/1 37/3/1
f 46/2/1 39/2/1 38/2/1
f 46/3/1 38/3/1 45/3/1
f 47/3/1 40/3/1 39/3/1
f 47/2/1 39/2/1 46/2/1
f 48/3/1 40/3/1 47/3/1
f 49/3/1 42/3/1 41/3/1
f 50/2/1 43/2/1 42/2/1
f 50/3/1 42/3/1 49/3/1
f 51/3/1 44/3/1 43/3/1
f 51/2/1 43/2/1 50/2/1
f 52/3/1 44/3/1 51/3/1
f 63/3/1 54/3/1 53/3/1
f 63/3/1 55/3/1 54/3/1
f 64/2/1 56/2/1 55/2/1
f 64/3/1 55/3/1 63/3/1
f 65/3/1 57/3/1 56/3/1
f 65/2/1 56/2/1 64/2/1
f 66/3/1 57/3/1 65/3/1
f 67/3/1 59/3/1 58/3/1
f 68/2/1 60/2/1 59/2/1
f 68/3/1 59/3/1 67/3/1
f 69/3/1 62/3/1 61/3/1
f 69/2/1 60/2/1 68/2/1
f 69/3/1 61/3/1 60/3/1
f 70/3/1 62/3/1 69/3/1
f 79/3/1 72/3/1 71/3/1
f 80/3/1 72/3/1 79/3/1
f 81/2/1 73/2/1 72/2/1
f 81/3/1 72/3/1 80/3/1
f 82/3/1 74/3/1 73/3/1
f 82/2/1 73/2/1 81/2/1
f 83/3/1 74/3/1 82/3/1
f 84/3/1 76/3/1 75/3/1
f 85/2/1 77/2/1 76/2/1
f 85/3/1 76/3/1 84/3/1
f 86/3/1 78/3/1 77/3/1
f 86/2/1 77/2/1 85/2/1
f 87/3/1 78/3/1 86/3/1
f 88/3/1 78/3/1 87/3/1
f 95/3/1 90/3/1 89/3/1
f 96/2/1 91/2/1 90/2/1
f 96/3/1 90/3/1 95/3/1
f 97/3/1 92/3/1 91/3/1
f 97/2/1 91/2/1 96/2/1
f 98/2/1 93/2/1 92/2/1
f 98/3/1 92/3/1 97/3/1
f 99/3/1 94/3/1 93/3/1
f 99/2/1 93/2/1 98/2/1
f 100/3/1 94/3/1 99/3/1
f 101/1/2 102/1/2 105/1/2
f 105/1/2 102/1/2 106/1/2
f 106/1/2 102/1/2 107/1/2
f 107/1/2 102/1/2 108/1/2
f 103/1/2 104/1/2 109/1/2
f 109/1/2 104/1/2 110/1/2
f 110/1/2 104/1/2 111/1/2
f 111/1/2 104/1/2 112/1/2
f 113/1/2 114/1/2 121/1/2
f 114/1/2 115/1/2 121/1/2
f 115/1/2 116/1/2 121/1/2
f 121/1/2 116/1/2 122/1/2
f 119/1/2 120/1/2 123/1/2
f 118/1/2 119/1/2 123/1/2
f 117/1/2 118/1/2 123/1/2
f 123/1/2 120/1/2 124/1/2
f 125/1/2 126/1/2 130/1/2
f 130/1/2 126/1/2 131/1/2
f 127/3/2 128/3/2 135/3/2
f 128/2/2 129/2/2 136/2/2
f 135/3/2 128/3/2 136/3/2
f 129/3/2 130/3/2 137/3/2
f 136/2/2 129/2/2 137/2/2
f 130/3/2 131/3/2 137/3/2
f 131/3/2 132/3/2 137/3/2
f 132/2/2 133/2/2 138/2/2
f 137/3/2 132/3/2 138/3/2
f 133/3/2 134/3/2 139/3/2
f 138/2/2 133/2/2 139/2/2
f 139/3/2 134/3/2 140/3/2
f 141/1/2 142/1/2 143/1/2
f 143/1/2 142/1/2 144/1/2
f 145/3/2 146/3/2 151/3/2
f 146/2/2 147/2/2 152/2/2
f 151/3/2 146/3/2 152/3/2
f 147/3/2 148/3/2 153/3/2
f 152/2/2 147/2/2 153/2/2
f 153/3/2 148/3/2 154/3/2
f 154/3/2 148/3/2 155/3/2
f 148/2/2 149/2/2 156/2/2
f 155/3/2 148/3/2 156/3/2
f 149/3/2 150/3/2 157/3/2
f 156/2/2 149/2/2 157/2/2
f 157/3/2 150/3/2 158/3/2
f 154/1/2 155/1/2 159/1/2
f 159/1/2 155/1/2 160/1/2
f 161/3/2 162/3/2 167/3/2
f 162/2/2 163/2/2 168/2/2
f 167/3/2 162/3/2 168/3/2
f 163/3/2 164/3/2 169/3/2
f 168/2/2 163/2/2 169/2/2
f 164/2/2 165/2/2 170/2/2
f 169/3/2 164/3/2 170/3/2
f 165/3/2 166/3/2 171/3/2
f 170/2/2 165/2/2 171/2/2
f 171/3/2 166/3/2 172/3/2
f 173/3/2 174/3/2 179/3/2
f 174/2/2 175/2/2 180/2/2
f 179/3/2 174/3/2 180/3/2
f 175/3/2 176/3/2 181/3/2
f 180/2/2 175/2/2 181/2/2
f 176/2/2 177/2/2 182/2/2
f 181/3/2 176/3/2 182/3/2
f 177/3/2 178/3/2 183/3/2
f 182/2/2 177/2/2 183/2/2
f 183/3/2 178/3/2 184/3/2
f 185/3/2 186/3/2 191/3/2
f 186/2/2 187/2/2 192/2/2
f 191/3/2 186/3/2 192/3/2
f 187/3/2 188/3/2 193/3/2
f 192/2/2 187/2/2 193/2/2
f 188/2/2 189/2/2 194/2/2
f 193/3/2 188/3/2 194/3/2
f 189/3/2 190/3/2 195/3/2
f 194/2/2 189/2/2 195/2/2
f 195/3/2 190/3/2 196/3/2
f 201/3/3 198/3/3 197/3/3
f 202/3/3 198/3/3 201/3/3
f 203/3/3 200/3/3 199/3/3
f 204/3/3 200/3/3 203/3/3
f 205/3/3 203/3/3 202/3/3
f 206/3/3 203/3/3 205/3/3
f 211/1/3 208/1/3 207/1/3
f 212/1/3 208/1/3 211/1/3
f 215/1/3 210/1/3 209/1/3
f 216/1/3 210/1/3 215/1/3
f 217/3/3 213/3/3 212/3/3
f 218/3/3 213/3/3 217/3/3
f 219/3/3 215/3/3 214/3/3
f 220/3/3 215/3/3 219/3/3
f 227/1/3 222/1/3 221/1/3
f 228/1/3 224/1/3 223/1/3
f 229/1/3 224/1/3 228/1/3
f 230/1/3 224/1/3 229/1/3
f 231/1/3 224/1/3 230/1/3
f 232/1/3 226/1/3 225/1/3
f 233/1/3 227/1/3 221/1/3
f 233/1/3 228/1/3 227/1/3
f 234/1/3 228/1/3 233/1/3
f 235/1/3 230/1/3 229/1/3
f 236/1/3 230/1/3 235/1/3
f 237/1/3 230/1/3 236/1/3
f 238/1/3 230/1/3 237/1/3
f 239/1/3 232/1/3 231/1/3
f 240/1/3 226/1/3 232/1/3
f 240/1/3 232/1/3 239/1/3
f 241/1/4 242/1/4 247/1/4
f 243/1/4 244/1/4 248/1/4
f 248/1/4 244/1/4 249/1/4
f 249/1/4 244/1/4 250/1/4
f 250/1/4 244/1/4 251/1/4
f 245/1/4 246/1/4 252/1/4
f 241/1/4 247/1/4 253/1/4
f 247/1/4 248/1/4 253/1/4
f 253/1/4 248/1/4 254/1/4
f 249/1/4 250/1/4 255/1/4
f 255/1/4 250/1/4 256/1/4
f 256/1/4 250/1/4 257/1/4
f 257/1/4 250/1/4 258/1/4
f 251/1/4 252/1/4 259/1/4
f 252/1/4 246/1/4 260/1/4
f 259/1/4 252/1/4 260/1/4
f 261/1/4 262/1/4 265/1/4
f 265/1/4 262/1/4 266/1/4
f 263/1/4 264/1/4 269/1/4
f 269/1/4 264/1/4 270/1/4
f 266/3/4 267/3/4 271/3/4
f 271/3/4 267/3/4 272/3/4
f 268/3/4 269/3/4 273/3/4
f 273/3/4 269/3/4 274/3/4
f 275/3/4 276/3/4 279/3/4
f 279/3/4 276/3/4 280/3/4
f 277/3/4 278/3/4 281/3/4
f 281/3/4 278/3/4 282/3/4
f 280/3/4 281/3/4 283/3/4
f 283/3/4 281/3/4 284/3/4
f 287/1/5 286/1/5 285/1/5
f 288/1/5 286/1/5 287/1/5
f 291/1/5 290/1/5 289/1/5
f 292/1/5 290/1/5 291/1/5
f 295/1/5 294/1/5 293/1/5
f 296/1/5 294/1/5 295/1/5
f 299/3/5 298/3/5 297/3/5
f 300/3/5 298/3/5 299/3/5
f 301/2/5 300/2/5 299/2/5
f 302/2/5 300/2/5 301/2/5
f 303/3/5 302/3/5 301/3/5
f 304/3/5 302/3/5 303/3/5
f 307/3/5 306/3/5 305/3/5
f 308/3/5 306/3/5 307/3/5
f 309/2/5 308/2/5 307/2/5
f 310/2/5 308/2/5 309/2/5
f 311/3/5 310/3/5 309/3/5
f 312/3/5 310/3/5 311/3/5
f 315/3/5 314/3/5 313/3/5
f 316/3/5 314/3/5 315/3/5
f 317/3/5 314/3/5 316/3/5
f 318/2/5 317/2/5 316/2/5
f 319/2/5 317/2/5 318/2/5
f 320/3/5 319/3/5 318/3/5
f 321/3/5 319/3/5 320/3/5
f 322/2/5 321/2/5 320/2/5
f 323/2/5 321/2/5 322/2/5
f 324/3/5 323/3/5 322/3/5
f 325/3/5 323/3/5 324/3/5
f 326/3/5 323/3/5 325/3/5
f 329/3/5 328/3/5 327/3/5
f 330/3/5 328/3/5 329/3/5
f 331/2/5 330/2/5 329/2/5
f 332/2/5 330/2/5 331/2/5
f 333/3/5 332/3/5 331/3/5
f 334/3/5 332/3/5 333/3/5
f 335/2/5 334/2/5 333/2/5
f 336/2/5 334/2/5 335/2/5
f 337/3/5 336/3/5 335/3/5
f 338/3/5 336/3/5 337/3/5
f 341/3/5 340/3/5 339/3/5
f 342/3/5 340/3/5 341/3/5
f 343/2/5 342/2/5 341/2/5
f 344/2/5 342/2/5 343/2/5
f 345/3/5 344/3/5 343/3/5
f 346/3/5 344/3/5 345/3/5
f 347/3/5 344/3/5 346/3/5
f 348/3/5 344/3/5 347/3/5
f 349/2/5 348/2/5 347/2/5
f 350/2/5 348/2/5 349/2/5
f 351/3/5 350/3/5 349/3/5
f 352/3/5 350/3/5 351/3/5
f 355/3/5 354/3/5 353/3/5
f 356/3/5 354/3/5 355/3/5
f 357/2/5 356/2/5 355/2/5
f 358/2/5 356/2/5 357/2/5
f 359/3/5 358/3/5 357/3/5
f 360/3/5 358/3/5 359/3/5
f 363/3/5 362/3/5 361/3/5
f 364/3/5 362/3/5 363/3/5
f 365/2/5 364/2/5 363/2/5
f 366/2/5 364/2/5 365/2/5
f 367/3/5 366/3/5 365/3/5
f 368/3/5 366/3/5 367/3/5
f 371/1/5 370/1/5 369/1/5
f 372/1/5 371/1/5 369/1/5
f 373/1/5 372/1/5 369/1/5
f 374/1/5 372/1/5 373/1/5
f 377/1/5 376/1/5 375/1/5
f 378/1/5 377/1/5 375/1/5
f 379/1/5 378/1/5 375/1/5
f 380/1/5 378/1/5 379/1/5
f 381/1/6 382/1/6 383/1/6
f 381/1/6 383/1/6 384/1/6
f 381/1/6 384/1/6 385/1/6
f 385/1/6 384/1/6 386/1/6
f 387/1/6 388/1/6 389/1/6
f 387/1/6 389/1/6 390/1/6
f 387/1/6 390/1/6 391/1/6
f 391/1/6 390/1/6 392/1/6
f 393/3/6 394/3/6 395/3/6
f 395/3/6 394/3/6 396/3/6
f 395/2/6 396/2/6 397/2/6
f 397/2/6 396/2/6 398/2/6
f 397/3/6 398/3/6 399/3/6
f 399/3/6 398/3/6 400/3/6
f 401/3/6 402/3/6 403/3/6
f 403/3/6 402/3/6 404/3/6
f 403/2/6 404/2/6 405/2/6
f 405/2/6 404/2/6 406/2/6
f 405/3/6 406/3/6 407/3/6
f 407/3/6 406/3/6 408/3/6
f 409/3/6 410/3/6 411/3/6
f 411/3/6 410/3/6 412/3/6
f 411/2/6 412/2/6 413/2/6
f 413/2/6 412/2/6 414/2/6
f 413/3/6 414/3/6 415/3/6
f 415/3/6 414/3/6 416/3/6
f 416/3/6 414/3/6 417/3/6
f 417/3/6 414/3/6 418/3/6
f 417/2/6 418/2/6 419/2/6
f 419/2/6 418/2/6 420/2/6
f 419/3/6 420/3/6 421/3/6
f 421/3/6 420/3/6 422/3/6
f 423/3/6 424/3/6 425/3/6
f 425/3/6 424/3/6 426/3/6
f 425/2/6 426/2/6 427/2/6
f 427/2/6 426/2/6 428/2/6
f 427/3/6 428/3/6 429/3/6
f 429/3/6 428/3/6 430/3/6
f 429/2/6 430/2/6 431/2/6
f 431/2/6 430/2/6 432/2/6
f 431/3/6 432/3/6 433/3/6
f 433/3/6 432/3/6 434/3/6
f 435/3/6 436/3/6 437/3/6
f 437/3/6 436/3/6 438/3/6
f 438/3/6 436/3/6 439/3/6
f 438/2/6 439/2/6 440/2/6
f 440/2/6 439/2/6 441/2/6
f 440/3/6 441/3/6 442/3/6
f 442/3/6 441/3/6 443/3/6
f 442/2/6 443/2/6 444/2/6
f 444/2/6 443/2/6 445/2/6
f 444/3/6 445/3/6 446/3/6
f 446/3/6 445/3/6 447/3/6
f 447/3/6 445/3/6 448/3/6
f 449/3/6 450/3/6 451/3/6
f 451/3/6 450/3/6 452/3/6
f 451/2/6 452/2/6 453/2/6
f 453/2/6 452/2/6 454/2/6
f 453/3/6 454/3/6 455/3/6
f 455/3/6 454/3/6 456/3/6
f 457/3/6 458/3/6 459/3/6
f 459/3/6 458/3/6 460/3/6
f 459/2/6 460/2/6 461/2/6
f 461/2/6 460/2/6 462/2/6
f 461/3/6 462/3/6 463/3/6
f 463/3/6 462/3/6 464/3/6
f 465/1/6 466/1/6 467/1/6
f 467/1/6 466/1/6 468/1/6
f 469/1/6 470/1/6 471/1/6
f 471/1/6 470/1/6 472/1/6
f 473/1/6 474/1/6 475/1/6
f 475/1/6 474/1/6 476/1/6
