# MagicaVoxel @ Ephtracy

# group
o 

# material
mtllib plants1.mtl
usemtl palette

# normals
vn -1 0 0
vn 1 0 0
vn 0 0 1
vn 0 0 -1
vn 0 -1 0
vn 0 1 0

# texcoords
vt 0.376953 0.5
vt 0.466797 0.5
vt 0.626953 0.5
vt 0.630859 0.5

# verts
v -0.4 -2.8 0.8
v -0.4 -2.8 0.4
v -0.4 -2.4 0.8
v -0.4 -2.4 0.4
v -0.4 -2 0.8
v -0.4 -2 0.4
v -0.4 -1.6 0.8
v -0.4 -1.6 0.4
v -0.4 -1.2 0.8
v -0.4 -1.2 0.4
v -0.4 -0.8 0.8
v -0.4 -0.8 0.4
v 0 -6 0.8
v 0 -6 0.4
v 0 -5.3 0.8
v 0 -5.3 0.7
v 0 -5.2 0.8
v 0 -5.2 0.7
v 0 -4.3 0.7
v 0 -4.3 0.4
v 0 -4.2 0.7
v 0 -4.2 0.4
v 0 -2.8 0.8
v 0 -2.8 0.4
v 0 -2.4 1.2
v 0 -2.4 0.8
v 0 -2.4 0.4
v 0 -2.4 0
v 0 -2 1.2
v 0 -2 0.8
v 0 -2 0.4
v 0 -2 0
v 0 -1.6 1.2
v 0 -1.6 0.8
v 0 -1.6 0.4
v 0 -1.6 0
v 0 -1.2 1.2
v 0 -1.2 0.8
v 0 -1.2 0.4
v 0 -1.2 0
v 0 -0.8 0.8
v 0 -0.8 0.4
v 0 -0.4 0.8
v 0 -0.4 0.4
v 0.8 -3.6 0.8
v 0.8 -3.6 0.4
v 0.8 -3.2 0.8
v 0.8 -3.2 0.4
v 0.4 -6 0.8
v 0.4 -6 0.4
v 0.4 -5.6 0.6
v 0.4 -5.6 0.4
v 0.4 -5.5 0.6
v 0.4 -5.5 0.4
v 0.4 -4.7 0.8
v 0.4 -4.7 0.5
v 0.4 -4.6 0.8
v 0.4 -4.6 0.5
v 0.4 -4 0.8
v 0.4 -4 0.4
v 0.4 -3.6 0.8
v 0.4 -3.6 0.4
v 0.4 -2.8 0.8
v 0.4 -2.8 0.4
v 0.4 -2.4 1.2
v 0.4 -2.4 0.8
v 0.4 -2.4 0.4
v 0.4 -2.4 0
v 0.4 -2 1.2
v 0.4 -2 0.8
v 0.4 -2 0.4
v 0.4 -2 0
v 0.4 -1.6 1.2
v 0.4 -1.6 0.8
v 0.4 -1.6 0.4
v 0.4 -1.6 0
v 0.4 -1.2 1.2
v 0.4 -1.2 0.8
v 0.4 -1.2 0.4
v 0.4 -1.2 0
v 0.4 -0.8 0.8
v 0.4 -0.8 0.4
v 0.4 -0.4 0.8
v 0.4 -0.4 0.4
v 0.8 -2.8 0.8
v 0.8 -2.8 0.4
v 0.8 -2.4 0.8
v 0.8 -2.4 0.4
v 0.8 -2 0.8
v 0.8 -2 0.4
v 0.8 -1.6 0.8
v 0.8 -1.6 0.4
v 0.8 -1.2 0.8
v 0.8 -1.2 0.4
v 0.8 -0.8 0.8
v 0.8 -0.8 0.4
v 1.2 -4 0.8
v 1.2 -4 0.4
v 1.2 -3.6 0.8
v 1.2 -3.6 0.4
v 1.6 -3.6 0.8
v 1.6 -3.6 0.4
v 1.6 -3.2 0.8
v 1.6 -3.2 0.4
v 0 -2.4 1.2
v 0 -2 1.2
v 0 -1.6 1.2
v 0 -1.2 1.2
v 0.4 -2.4 1.2
v 0.4 -2 1.2
v 0.4 -1.6 1.2
v 0.4 -1.2 1.2
v -0.4 -2.8 0.8
v -0.4 -2.4 0.8
v -0.4 -2 0.8
v -0.4 -1.6 0.8
v -0.4 -1.2 0.8
v -0.4 -0.8 0.8
v 0 -6 0.8
v 0 -5.3 0.8
v 0 -5.2 0.8
v 0 -2.8 0.8
v 0 -2.4 0.8
v 0 -2 0.8
v 0 -1.6 0.8
v 0 -1.2 0.8
v 0 -0.8 0.8
v 0 -0.4 0.8
v 0.2 -5.3 0.8
v 0.2 -5.2 0.8
v 0.3 -4.7 0.8
v 0.3 -4.6 0.8
v 0.4 -6 0.8
v 0.4 -4.7 0.8
v 0.4 -4.6 0.8
v 0.4 -4 0.8
v 0.4 -3.6 0.8
v 0.4 -2.8 0.8
v 0.4 -2.4 0.8
v 0.4 -2 0.8
v 0.4 -1.6 0.8
v 0.4 -1.2 0.8
v 0.4 -0.8 0.8
v 0.4 -0.4 0.8
v 0.6 -3.9 0.8
v 0.6 -3.8 0.8
v 0.8 -3.6 0.8
v 0.8 -3.2 0.8
v 0.8 -2.8 0.8
v 0.8 -2.4 0.8
v 0.8 -2 0.8
v 0.8 -1.6 0.8
v 0.8 -1.2 0.8
v 0.8 -0.8 0.8
v 1 -3.8 0.8
v 1 -3.4 0.8
v 1.1 -3.9 0.8
v 1.1 -3.5 0.8
v 1.2 -4 0.8
v 1.2 -3.6 0.8
v 1.4 -3.5 0.8
v 1.4 -3.4 0.8
v 1.6 -3.6 0.8
v 1.6 -3.2 0.8
v -0.4 -2.8 0.4
v -0.4 -2.4 0.4
v -0.4 -2 0.4
v -0.4 -1.6 0.4
v -0.4 -1.2 0.4
v -0.4 -0.8 0.4
v 0 -6 0.4
v 0 -4.3 0.4
v 0 -4.2 0.4
v 0 -2.8 0.4
v 0 -2.4 0.4
v 0 -2 0.4
v 0 -1.6 0.4
v 0 -1.2 0.4
v 0 -0.8 0.4
v 0 -0.4 0.4
v 0.3 -5.6 0.4
v 0.3 -5.5 0.4
v 0.3 -4.3 0.4
v 0.3 -4.2 0.4
v 0.4 -6 0.4
v 0.4 -5.6 0.4
v 0.4 -5.5 0.4
v 0.4 -4 0.4
v 0.4 -3.8 0.4
v 0.4 -3.7 0.4
v 0.4 -3.6 0.4
v 0.4 -2.8 0.4
v 0.4 -2.4 0.4
v 0.4 -2 0.4
v 0.4 -1.6 0.4
v 0.4 -1.2 0.4
v 0.4 -0.8 0.4
v 0.4 -0.4 0.4
v 0.8 -3.6 0.4
v 0.8 -3.2 0.4
v 0.8 -2.8 0.4
v 0.8 -2.4 0.4
v 0.8 -2 0.4
v 0.8 -1.6 0.4
v 0.8 -1.2 0.4
v 0.8 -0.8 0.4
v 0.9 -3.7 0.4
v 0.9 -3.3 0.4
v 1.1 -3.8 0.4
v 1.1 -3.4 0.4
v 1.2 -4 0.4
v 1.2 -3.6 0.4
v 1.4 -3.4 0.4
v 1.4 -3.3 0.4
v 1.6 -3.6 0.4
v 1.6 -3.2 0.4
v 0 -2.4 0
v 0 -2 0
v 0 -1.6 0
v 0 -1.2 0
v 0.4 -2.4 0
v 0.4 -2 0
v 0.4 -1.6 0
v 0.4 -1.2 0
v 0 -6 0.8
v 0.4 -6 0.8
v 0 -6 0.4
v 0.4 -6 0.4
v 0.4 -4 0.8
v 1.2 -4 0.8
v 0.4 -4 0.4
v 1.2 -4 0.4
v 1.2 -3.6 0.8
v 1.6 -3.6 0.8
v 1.2 -3.6 0.4
v 1.6 -3.6 0.4
v -0.4 -2.8 0.8
v 0 -2.8 0.8
v 0.4 -2.8 0.8
v 0.8 -2.8 0.8
v -0.4 -2.8 0.4
v 0 -2.8 0.4
v 0.4 -2.8 0.4
v 0.8 -2.8 0.4
v 0 -2.4 1.2
v 0.4 -2.4 1.2
v 0 -2.4 0.8
v 0.4 -2.4 0.8
v 0 -2.4 0.4
v 0.4 -2.4 0.4
v 0 -2.4 0
v 0.4 -2.4 0
v -0.4 -2 0.8
v 0 -2 0.8
v 0.4 -2 0.8
v 0.8 -2 0.8
v -0.4 -2 0.4
v 0 -2 0.4
v 0.4 -2 0.4
v 0.8 -2 0.4
v 0 -1.6 1.2
v 0.4 -1.6 1.2
v 0 -1.6 0.8
v 0.4 -1.6 0.8
v 0 -1.6 0.4
v 0.4 -1.6 0.4
v 0 -1.6 0
v 0.4 -1.6 0
v -0.4 -1.2 0.8
v 0 -1.2 0.8
v 0.4 -1.2 0.8
v 0.8 -1.2 0.8
v -0.4 -1.2 0.4
v 0 -1.2 0.4
v 0.4 -1.2 0.4
v 0.8 -1.2 0.4
v 0.4 -3.6 0.8
v 0.8 -3.6 0.8
v 0.4 -3.6 0.4
v 0.8 -3.6 0.4
v 0.8 -3.2 0.8
v 1.6 -3.2 0.8
v 0.8 -3.2 0.4
v 1.6 -3.2 0.4
v -0.4 -2.4 0.8
v 0 -2.4 0.8
v 0.4 -2.4 0.8
v 0.8 -2.4 0.8
v -0.4 -2.4 0.4
v 0 -2.4 0.4
v 0.4 -2.4 0.4
v 0.8 -2.4 0.4
v 0 -2 1.2
v 0.4 -2 1.2
v 0 -2 0.8
v 0.4 -2 0.8
v 0 -2 0.4
v 0.4 -2 0.4
v 0 -2 0
v 0.4 -2 0
v -0.4 -1.6 0.8
v 0 -1.6 0.8
v 0.4 -1.6 0.8
v 0.8 -1.6 0.8
v -0.4 -1.6 0.4
v 0 -1.6 0.4
v 0.4 -1.6 0.4
v 0.8 -1.6 0.4
v 0 -1.2 1.2
v 0.4 -1.2 1.2
v 0 -1.2 0.8
v 0.4 -1.2 0.8
v 0 -1.2 0.4
v 0.4 -1.2 0.4
v 0 -1.2 0
v 0.4 -1.2 0
v -0.4 -0.8 0.8
v 0 -0.8 0.8
v 0.4 -0.8 0.8
v 0.8 -0.8 0.8
v -0.4 -0.8 0.4
v 0 -0.8 0.4
v 0.4 -0.8 0.4
v 0.8 -0.8 0.4
v 0 -0.4 0.8
v 0.4 -0.4 0.8
v 0 -0.4 0.4
v 0.4 -0.4 0.4

# faces
f 3/1/1 2/1/1 1/1/1
f 4/1/1 2/1/1 3/1/1
f 7/1/1 6/1/1 5/1/1
f 8/1/1 6/1/1 7/1/1
f 11/1/1 10/1/1 9/1/1
f 12/1/1 10/1/1 11/1/1
f 15/2/1 14/2/1 13/2/1
f 16/2/1 14/2/1 15/2/1
f 17/3/1 16/3/1 15/3/1
f 18/2/1 14/2/1 16/2/1
f 18/3/1 16/3/1 17/3/1
f 19/2/1 18/2/1 17/2/1
f 19/2/1 14/2/1 18/2/1
f 20/2/1 14/2/1 19/2/1
f 21/2/1 19/2/1 17/2/1
f 21/3/1 20/3/1 19/3/1
f 22/3/1 20/3/1 21/3/1
f 23/2/1 21/2/1 17/2/1
f 23/2/1 22/2/1 21/2/1
f 24/2/1 22/2/1 23/2/1
f 29/1/1 26/1/1 25/1/1
f 30/2/1 27/2/1 26/2/1
f 30/1/1 26/1/1 29/1/1
f 31/1/1 28/1/1 27/1/1
f 31/2/1 27/2/1 30/2/1
f 32/1/1 28/1/1 31/1/1
f 37/1/1 34/1/1 33/1/1
f 38/2/1 35/2/1 34/2/1
f 38/1/1 34/1/1 37/1/1
f 39/1/1 36/1/1 35/1/1
f 39/2/1 35/2/1 38/2/1
f 40/1/1 36/1/1 39/1/1
f 43/1/1 42/1/1 41/1/1
f 44/1/1 42/1/1 43/1/1
f 47/4/1 46/4/1 45/4/1
f 48/4/1 46/4/1 47/4/1
f 49/2/2 50/2/2 51/2/2
f 51/2/2 50/2/2 52/2/2
f 49/2/2 51/2/2 53/2/2
f 51/3/2 52/3/2 53/3/2
f 53/3/2 52/3/2 54/3/2
f 49/2/2 53/2/2 55/2/2
f 53/2/2 54/2/2 55/2/2
f 55/2/2 54/2/2 56/2/2
f 55/3/2 56/3/2 57/3/2
f 56/2/2 54/2/2 58/2/2
f 57/3/2 56/3/2 58/3/2
f 57/2/2 58/2/2 59/2/2
f 58/2/2 54/2/2 60/2/2
f 59/2/2 58/2/2 60/2/2
f 61/2/2 62/2/2 63/2/2
f 63/2/2 62/2/2 64/2/2
f 65/1/2 66/1/2 69/1/2
f 66/2/2 67/2/2 70/2/2
f 69/1/2 66/1/2 70/1/2
f 67/1/2 68/1/2 71/1/2
f 70/2/2 67/2/2 71/2/2
f 71/1/2 68/1/2 72/1/2
f 73/1/2 74/1/2 77/1/2
f 74/2/2 75/2/2 78/2/2
f 77/1/2 74/1/2 78/1/2
f 75/1/2 76/1/2 79/1/2
f 78/2/2 75/2/2 79/2/2
f 79/1/2 76/1/2 80/1/2
f 81/1/2 82/1/2 83/1/2
f 83/1/2 82/1/2 84/1/2
f 85/1/2 86/1/2 87/1/2
f 87/1/2 86/1/2 88/1/2
f 89/1/2 90/1/2 91/1/2
f 91/1/2 90/1/2 92/1/2
f 93/1/2 94/1/2 95/1/2
f 95/1/2 94/1/2 96/1/2
f 97/4/2 98/4/2 99/4/2
f 99/4/2 98/4/2 100/4/2
f 101/4/2 102/4/2 103/4/2
f 103/4/2 102/4/2 104/4/2
f 109/1/3 106/1/3 105/1/3
f 110/1/3 106/1/3 109/1/3
f 111/1/3 108/1/3 107/1/3
f 112/1/3 108/1/3 111/1/3
f 122/1/3 114/1/3 113/1/3
f 123/1/3 114/1/3 122/1/3
f 124/1/3 116/1/3 115/1/3
f 125/1/3 116/1/3 124/1/3
f 126/1/3 118/1/3 117/1/3
f 127/1/3 118/1/3 126/1/3
f 129/3/3 121/3/3 120/3/3
f 129/2/3 120/2/3 119/2/3
f 130/2/3 123/2/3 122/2/3
f 130/3/3 121/3/3 129/3/3
f 130/2/3 122/2/3 121/2/3
f 131/2/3 130/2/3 129/2/3
f 131/2/3 123/2/3 130/2/3
f 132/2/3 123/2/3 131/2/3
f 133/2/3 129/2/3 119/2/3
f 133/2/3 131/2/3 129/2/3
f 134/3/3 132/3/3 131/3/3
f 134/2/3 131/2/3 133/2/3
f 135/2/3 123/2/3 132/2/3
f 135/3/3 132/3/3 134/3/3
f 136/2/3 123/2/3 135/2/3
f 137/2/3 123/2/3 136/2/3
f 138/2/3 123/2/3 137/2/3
f 139/2/3 123/2/3 138/2/3
f 140/2/3 125/2/3 124/2/3
f 141/2/3 125/2/3 140/2/3
f 142/2/3 127/2/3 126/2/3
f 143/1/3 128/1/3 127/1/3
f 143/2/3 127/2/3 142/2/3
f 144/1/3 128/1/3 143/1/3
f 145/4/3 137/4/3 136/4/3
f 146/4/3 137/4/3 145/4/3
f 147/4/3 137/4/3 146/4/3
f 149/1/3 139/1/3 138/1/3
f 150/1/3 139/1/3 149/1/3
f 151/1/3 141/1/3 140/1/3
f 152/1/3 141/1/3 151/1/3
f 153/1/3 143/1/3 142/1/3
f 154/1/3 143/1/3 153/1/3
f 155/4/3 148/4/3 147/4/3
f 155/3/3 146/3/3 145/3/3
f 155/4/3 147/4/3 146/4/3
f 156/4/3 148/4/3 155/4/3
f 157/4/3 145/4/3 136/4/3
f 157/3/3 155/3/3 145/3/3
f 157/3/3 156/3/3 155/3/3
f 158/3/3 156/3/3 157/3/3
f 159/4/3 157/4/3 136/4/3
f 159/4/3 158/4/3 157/4/3
f 160/4/3 158/4/3 159/4/3
f 161/3/3 156/3/3 158/3/3
f 161/4/3 158/4/3 160/4/3
f 162/4/3 148/4/3 156/4/3
f 162/3/3 156/3/3 161/3/3
f 163/4/3 161/4/3 160/4/3
f 163/4/3 162/4/3 161/4/3
f 164/4/3 148/4/3 162/4/3
f 164/4/3 162/4/3 163/4/3
f 165/1/4 166/1/4 174/1/4
f 174/1/4 166/1/4 175/1/4
f 167/1/4 168/1/4 176/1/4
f 176/1/4 168/1/4 177/1/4
f 169/1/4 170/1/4 178/1/4
f 178/1/4 170/1/4 179/1/4
f 171/2/4 172/2/4 181/2/4
f 181/2/4 172/2/4 182/2/4
f 172/3/4 173/3/4 183/3/4
f 182/2/4 172/2/4 183/2/4
f 174/2/4 175/2/4 184/2/4
f 183/3/4 173/3/4 184/3/4
f 173/2/4 174/2/4 184/2/4
f 171/2/4 181/2/4 185/2/4
f 181/3/4 182/3/4 186/3/4
f 185/2/4 181/2/4 186/2/4
f 182/2/4 183/2/4 187/2/4
f 186/3/4 182/3/4 187/3/4
f 183/2/4 184/2/4 187/2/4
f 184/2/4 175/2/4 188/2/4
f 187/2/4 184/2/4 188/2/4
f 188/2/4 175/2/4 189/2/4
f 189/2/4 175/2/4 190/2/4
f 190/2/4 175/2/4 191/2/4
f 191/2/4 175/2/4 192/2/4
f 192/2/4 175/2/4 193/2/4
f 176/2/4 177/2/4 194/2/4
f 194/2/4 177/2/4 195/2/4
f 178/2/4 179/2/4 196/2/4
f 179/1/4 180/1/4 197/1/4
f 196/2/4 179/2/4 197/2/4
f 197/1/4 180/1/4 198/1/4
f 190/4/4 191/4/4 199/4/4
f 192/1/4 193/1/4 201/1/4
f 201/1/4 193/1/4 202/1/4
f 194/1/4 195/1/4 203/1/4
f 203/1/4 195/1/4 204/1/4
f 196/1/4 197/1/4 205/1/4
f 205/1/4 197/1/4 206/1/4
f 199/4/4 200/4/4 207/4/4
f 189/3/4 190/3/4 207/3/4
f 190/4/4 199/4/4 207/4/4
f 207/4/4 200/4/4 208/4/4
f 188/4/4 189/4/4 209/4/4
f 189/3/4 207/3/4 209/3/4
f 207/3/4 208/3/4 209/3/4
f 209/3/4 208/3/4 210/3/4
f 188/4/4 209/4/4 211/4/4
f 209/4/4 210/4/4 211/4/4
f 211/4/4 210/4/4 212/4/4
f 210/3/4 208/3/4 213/3/4
f 212/4/4 210/4/4 213/4/4
f 208/4/4 200/4/4 214/4/4
f 213/3/4 208/3/4 214/3/4
f 212/4/4 213/4/4 215/4/4
f 213/4/4 214/4/4 215/4/4
f 214/4/4 200/4/4 216/4/4
f 215/4/4 214/4/4 216/4/4
f 217/1/4 218/1/4 221/1/4
f 221/1/4 218/1/4 222/1/4
f 219/1/4 220/1/4 223/1/4
f 223/1/4 220/1/4 224/1/4
f 227/2/5 226/2/5 225/2/5
f 228/2/5 226/2/5 227/2/5
f 231/4/5 230/4/5 229/4/5
f 232/4/5 230/4/5 231/4/5
f 235/4/5 234/4/5 233/4/5
f 236/4/5 234/4/5 235/4/5
f 241/1/5 238/1/5 237/1/5
f 242/1/5 238/1/5 241/1/5
f 243/1/5 240/1/5 239/1/5
f 244/1/5 240/1/5 243/1/5
f 247/1/5 246/1/5 245/1/5
f 248/1/5 246/1/5 247/1/5
f 251/1/5 250/1/5 249/1/5
f 252/1/5 250/1/5 251/1/5
f 257/1/5 254/1/5 253/1/5
f 258/1/5 254/1/5 257/1/5
f 259/1/5 256/1/5 255/1/5
f 260/1/5 256/1/5 259/1/5
f 263/1/5 262/1/5 261/1/5
f 264/1/5 262/1/5 263/1/5
f 267/1/5 266/1/5 265/1/5
f 268/1/5 266/1/5 267/1/5
f 273/1/5 270/1/5 269/1/5
f 274/1/5 270/1/5 273/1/5
f 275/1/5 272/1/5 271/1/5
f 276/1/5 272/1/5 275/1/5
f 277/4/6 278/4/6 279/4/6
f 279/4/6 278/4/6 280/4/6
f 281/4/6 282/4/6 283/4/6
f 283/4/6 282/4/6 284/4/6
f 285/1/6 286/1/6 289/1/6
f 289/1/6 286/1/6 290/1/6
f 287/1/6 288/1/6 291/1/6
f 291/1/6 288/1/6 292/1/6
f 293/1/6 294/1/6 295/1/6
f 295/1/6 294/1/6 296/1/6
f 297/1/6 298/1/6 299/1/6
f 299/1/6 298/1/6 300/1/6
f 301/1/6 302/1/6 305/1/6
f 305/1/6 302/1/6 306/1/6
f 303/1/6 304/1/6 307/1/6
f 307/1/6 304/1/6 308/1/6
f 309/1/6 310/1/6 311/1/6
f 311/1/6 310/1/6 312/1/6
f 313/1/6 314/1/6 315/1/6
f 315/1/6 314/1/6 316/1/6
f 317/1/6 318/1/6 321/1/6
f 321/1/6 318/1/6 322/1/6
f 319/1/6 320/1/6 323/1/6
f 323/1/6 320/1/6 324/1/6
f 325/1/6 326/1/6 327/1/6
f 327/1/6 326/1/6 328/1/6
