# MagicaVoxel @ Ephtracy

# group
o 

# material
mtllib bamboo_1,0,0.mtl
usemtl palette

# normals
vn -1 0 0
vn 1 0 0
vn 0 0 1
vn 0 0 -1
vn 0 -1 0
vn 0 1 0

# texcoords
vt 0.0371094 0.5
vt 0.626953 0.5
vt 0.720703 0.5

# verts
v -0.4 -0.8 0.2
v -0.4 -0.8 -0.4
v -0.4 2.5 0.2
v -0.4 2.5 -0.4
v -0.4 2.7 0.2
v -0.4 2.7 -0.4
v -0.4 5.8 0.2
v -0.4 5.8 -0.4
v -0.4 6 0.2
v -0.4 6 -0.4
v -0.4 9.7 0.2
v -0.4 9.7 -0.4
v -0.3 -0.9 0.2
v -0.3 -0.9 -0.3
v -0.3 -0.8 0.2
v -0.3 -0.8 -0.3
v -0.3 2.5 0.2
v -0.3 2.5 -0.3
v -0.3 2.7 0.2
v -0.3 2.7 -0.3
v -0.3 5.8 0.2
v -0.3 5.8 -0.3
v -0.3 6 0.2
v -0.3 6 -0.3
v -0.3 9.7 0.2
v -0.3 9.7 -0.3
v -0.3 9.8 0.2
v -0.3 9.8 -0.3
v -0.2 6.1 0.1
v -0.2 6.1 0
v -0.2 6.2 0.1
v -0.2 6.2 0
v 0 6.1 0.2
v 0 6.1 0.1
v 0 6.2 0.2
v 0 6.2 0.1
v 0.1 6.2 0.1
v 0.1 6.2 0
v 0.1 6.3 0.1
v 0.1 6.3 0
v 0.1 6.3 -0.1
v 0.1 6.4 0
v 0.1 6.4 -0.1
v 0.1 6.4 -0.2
v 0.1 6.4 -0.3
v 0.1 6.5 -0.2
v 0.1 6.5 -0.3
v 0.2 6.4 -0.1
v 0.2 6.4 -0.2
v 0.2 6.5 -0.1
v 0.2 6.5 -0.2
v 0.2 6.5 -0.3
v 0.2 6.6 -0.2
v 0.2 6.6 -0.3
v 0.3 -0.9 0.1
v 0.3 -0.9 -0.1
v 0.3 -0.8 0.1
v 0.3 -0.8 -0.1
v 0.3 -0.7 0.1
v 0.3 -0.7 -0.1
v 0.3 2.4 0.1
v 0.3 2.4 -0.1
v 0.3 2.5 0.1
v 0.3 2.5 -0.1
v 0.3 2.7 0.1
v 0.3 2.7 -0.1
v 0.3 2.8 0.1
v 0.3 2.8 -0.1
v 0.3 5.7 0.1
v 0.3 5.7 -0.1
v 0.3 5.8 0.1
v 0.3 5.8 -0.1
v 0.3 5.9 -0.1
v 0.3 6 0.1
v 0.3 6 -0.1
v 0.3 6.1 0.1
v 0.3 6.1 -0.1
v 0.3 9.6 0.1
v 0.3 9.6 -0.1
v 0.3 9.7 0.1
v 0.3 9.7 -0.1
v 0.3 9.8 0.1
v 0.3 9.8 -0.1
v 0.4 -0.7 -0.2
v 0.4 -0.7 -0.3
v 0.4 2.4 -0.2
v 0.4 2.4 -0.3
v 0.4 2.8 -0.2
v 0.4 2.8 -0.3
v 0.4 5.7 -0.2
v 0.4 5.7 -0.3
v 0.4 6.5 -0.2
v 0.4 6.5 -0.3
v 0.4 9.6 -0.2
v 0.4 9.6 -0.3
v 0.5 -0.7 -0.1
v 0.5 -0.7 -0.2
v 0.5 2.4 -0.1
v 0.5 2.4 -0.2
v 0.5 2.8 -0.1
v 0.5 2.8 -0.2
v 0.5 5.7 -0.1
v 0.5 5.7 -0.2
v 0.5 6.4 -0.1
v 0.5 6.4 -0.2
v 0.5 9.6 -0.1
v 0.5 9.6 -0.2
v 0.6 -0.7 0
v 0.6 -0.7 -0.1
v 0.6 2.4 0
v 0.6 2.4 -0.1
v 0.6 2.8 0
v 0.6 2.8 -0.1
v 0.6 5.7 0
v 0.6 5.7 -0.1
v 0.6 6.3 0
v 0.6 6.3 -0.1
v 0.6 9.6 0
v 0.6 9.6 -0.1
v 0.7 -0.7 0.2
v 0.7 -0.7 0
v 0.7 2.4 0.2
v 0.7 2.4 0
v 0.7 2.8 0.2
v 0.7 2.8 0
v 0.7 5.7 0.2
v 0.7 5.7 0
v 0.7 6.1 0.2
v 0.7 6.1 0
v 0.7 9.6 0.2
v 0.7 9.6 0
v -0.3 -0.7 0.2
v -0.3 -0.7 0
v -0.3 2.4 0.2
v -0.3 2.4 0
v -0.3 2.8 0.2
v -0.3 2.8 0
v -0.3 5.7 0.2
v -0.3 5.7 0
v -0.3 6.1 0.2
v -0.3 6.1 0
v -0.3 9.6 0.2
v -0.3 9.6 0
v -0.2 -0.7 0
v -0.2 -0.7 -0.1
v -0.2 2.4 0
v -0.2 2.4 -0.1
v -0.2 2.8 0
v -0.2 2.8 -0.1
v -0.2 5.7 0
v -0.2 5.7 -0.1
v -0.2 6.3 0
v -0.2 6.3 -0.1
v -0.2 9.6 0
v -0.2 9.6 -0.1
v -0.1 -0.7 -0.1
v -0.1 -0.7 -0.2
v -0.1 2.4 -0.1
v -0.1 2.4 -0.2
v -0.1 2.8 -0.1
v -0.1 2.8 -0.2
v -0.1 5.7 -0.1
v -0.1 5.7 -0.2
v -0.1 6.4 -0.1
v -0.1 6.4 -0.2
v -0.1 9.6 -0.1
v -0.1 9.6 -0.2
v 0 -0.7 -0.2
v 0 -0.7 -0.3
v 0 2.4 -0.2
v 0 2.4 -0.3
v 0 2.8 -0.2
v 0 2.8 -0.3
v 0 5.7 -0.2
v 0 5.7 -0.3
v 0 6.4 -0.2
v 0 6.4 -0.3
v 0 9.6 -0.2
v 0 9.6 -0.3
v 0.1 -0.9 0.1
v 0.1 -0.9 -0.1
v 0.1 -0.8 0.1
v 0.1 -0.8 -0.1
v 0.1 -0.7 0.1
v 0.1 -0.7 -0.1
v 0.1 2.4 0.1
v 0.1 2.4 -0.1
v 0.1 2.5 0.1
v 0.1 2.5 -0.1
v 0.1 2.7 0.1
v 0.1 2.7 -0.1
v 0.1 2.8 0.1
v 0.1 2.8 -0.1
v 0.1 5.7 0.1
v 0.1 5.7 -0.1
v 0.1 5.8 0.1
v 0.1 5.8 -0.1
v 0.1 5.9 -0.1
v 0.1 6 0.1
v 0.1 6 -0.1
v 0.1 6.1 0.1
v 0.1 6.1 -0.1
v 0.1 9.6 0.1
v 0.1 9.6 -0.1
v 0.1 9.7 0.1
v 0.1 9.7 -0.1
v 0.1 9.8 0.1
v 0.1 9.8 -0.1
v 0.3 6.2 0.1
v 0.3 6.2 0
v 0.3 6.3 0.1
v 0.3 6.3 0
v 0.3 6.3 -0.1
v 0.3 6.4 0
v 0.3 6.4 -0.1
v 0.3 6.4 -0.2
v 0.3 6.5 -0.1
v 0.3 6.5 -0.2
v 0.3 6.5 -0.3
v 0.3 6.6 -0.2
v 0.3 6.6 -0.3
v 0.4 6.1 0.2
v 0.4 6.1 0.1
v 0.4 6.2 0.2
v 0.4 6.2 0.1
v 0.6 6.1 0.1
v 0.6 6.1 0
v 0.6 6.2 0.1
v 0.6 6.2 0
v 0.7 -0.9 0.2
v 0.7 -0.9 -0.3
v 0.7 -0.8 0.2
v 0.7 -0.8 -0.3
v 0.7 2.5 0.2
v 0.7 2.5 -0.3
v 0.7 2.7 0.2
v 0.7 2.7 -0.3
v 0.7 5.8 0.2
v 0.7 5.8 -0.3
v 0.7 6 0.2
v 0.7 6 -0.3
v 0.7 9.7 0.2
v 0.7 9.7 -0.3
v 0.7 9.8 0.2
v 0.7 9.8 -0.3
v 0.8 -0.8 0.2
v 0.8 -0.8 -0.4
v 0.8 2.5 0.2
v 0.8 2.5 -0.4
v 0.8 2.7 0.2
v 0.8 2.7 -0.4
v 0.8 5.8 0.2
v 0.8 5.8 -0.4
v 0.8 6 0.2
v 0.8 6 -0.4
v 0.8 9.7 0.2
v 0.8 9.7 -0.4
v -0.4 -0.8 0.2
v -0.4 2.5 0.2
v -0.4 2.7 0.2
v -0.4 5.8 0.2
v -0.4 6 0.2
v -0.4 9.7 0.2
v -0.3 -0.9 0.2
v -0.3 -0.8 0.2
v -0.3 -0.7 0.2
v -0.3 2.4 0.2
v -0.3 2.5 0.2
v -0.3 2.7 0.2
v -0.3 2.8 0.2
v -0.3 5.7 0.2
v -0.3 5.8 0.2
v -0.3 6 0.2
v -0.3 6.1 0.2
v -0.3 9.6 0.2
v -0.3 9.7 0.2
v -0.3 9.8 0.2
v 0 6.1 0.2
v 0 6.2 0.2
v 0.4 6.1 0.2
v 0.4 6.2 0.2
v 0.7 -0.9 0.2
v 0.7 -0.8 0.2
v 0.7 -0.7 0.2
v 0.7 2.4 0.2
v 0.7 2.5 0.2
v 0.7 2.7 0.2
v 0.7 2.8 0.2
v 0.7 5.7 0.2
v 0.7 5.8 0.2
v 0.7 6 0.2
v 0.7 6.1 0.2
v 0.7 9.6 0.2
v 0.7 9.7 0.2
v 0.7 9.8 0.2
v 0.8 -0.8 0.2
v 0.8 2.5 0.2
v 0.8 2.7 0.2
v 0.8 5.8 0.2
v 0.8 6 0.2
v 0.8 9.7 0.2
v -0.2 6.1 0.1
v -0.2 6.2 0.1
v 0 6.1 0.1
v 0 6.2 0.1
v 0.1 6.2 0.1
v 0.1 6.3 0.1
v 0.3 6.2 0.1
v 0.3 6.3 0.1
v 0.4 6.1 0.1
v 0.4 6.2 0.1
v 0.6 6.1 0.1
v 0.6 6.2 0.1
v -0.3 -0.7 0
v -0.3 2.4 0
v -0.3 2.8 0
v -0.3 5.7 0
v -0.3 6.1 0
v -0.3 9.6 0
v -0.2 -0.7 0
v -0.2 2.4 0
v -0.2 2.8 0
v -0.2 5.7 0
v -0.2 6.1 0
v -0.2 6.2 0
v -0.2 6.3 0
v -0.2 9.6 0
v 0.1 6.2 0
v 0.1 6.3 0
v 0.1 6.4 0
v 0.3 6.2 0
v 0.3 6.3 0
v 0.3 6.4 0
v 0.6 -0.7 0
v 0.6 2.4 0
v 0.6 2.8 0
v 0.6 5.7 0
v 0.6 6.1 0
v 0.6 6.2 0
v 0.6 6.3 0
v 0.6 9.6 0
v 0.7 -0.7 0
v 0.7 2.4 0
v 0.7 2.8 0
v 0.7 5.7 0
v 0.7 6.1 0
v 0.7 9.6 0
v -0.2 -0.7 -0.1
v -0.2 2.4 -0.1
v -0.2 2.8 -0.1
v -0.2 5.7 -0.1
v -0.2 6.3 -0.1
v -0.2 9.6 -0.1
v -0.1 -0.7 -0.1
v -0.1 2.4 -0.1
v -0.1 2.8 -0.1
v -0.1 5.7 -0.1
v -0.1 6.3 -0.1
v -0.1 6.4 -0.1
v -0.1 9.6 -0.1
v 0.1 -0.9 -0.1
v 0.1 -0.8 -0.1
v 0.1 -0.7 -0.1
v 0.1 2.4 -0.1
v 0.1 2.5 -0.1
v 0.1 2.7 -0.1
v 0.1 2.8 -0.1
v 0.1 5.7 -0.1
v 0.1 5.8 -0.1
v 0.1 5.9 -0.1
v 0.1 6 -0.1
v 0.1 6.1 -0.1
v 0.1 6.3 -0.1
v 0.1 6.4 -0.1
v 0.1 9.6 -0.1
v 0.1 9.7 -0.1
v 0.1 9.8 -0.1
v 0.2 6.4 -0.1
v 0.2 6.5 -0.1
v 0.3 -0.9 -0.1
v 0.3 -0.8 -0.1
v 0.3 -0.7 -0.1
v 0.3 2.4 -0.1
v 0.3 2.5 -0.1
v 0.3 2.7 -0.1
v 0.3 2.8 -0.1
v 0.3 5.7 -0.1
v 0.3 5.8 -0.1
v 0.3 5.9 -0.1
v 0.3 6 -0.1
v 0.3 6.1 -0.1
v 0.3 6.3 -0.1
v 0.3 6.4 -0.1
v 0.3 6.5 -0.1
v 0.3 9.6 -0.1
v 0.3 9.7 -0.1
v 0.3 9.8 -0.1
v 0.5 -0.7 -0.1
v 0.5 2.4 -0.1
v 0.5 2.8 -0.1
v 0.5 5.7 -0.1
v 0.5 6.3 -0.1
v 0.5 6.4 -0.1
v 0.5 9.6 -0.1
v 0.6 -0.7 -0.1
v 0.6 2.4 -0.1
v 0.6 2.8 -0.1
v 0.6 5.7 -0.1
v 0.6 6.3 -0.1
v 0.6 9.6 -0.1
v -0.1 -0.7 -0.2
v -0.1 2.4 -0.2
v -0.1 2.8 -0.2
v -0.1 5.7 -0.2
v -0.1 6.4 -0.2
v -0.1 9.6 -0.2
v 0 -0.7 -0.2
v 0 2.4 -0.2
v 0 2.8 -0.2
v 0 5.7 -0.2
v 0 6.4 -0.2
v 0 9.6 -0.2
v 0.1 6.4 -0.2
v 0.1 6.5 -0.2
v 0.2 6.4 -0.2
v 0.2 6.5 -0.2
v 0.2 6.6 -0.2
v 0.3 6.4 -0.2
v 0.3 6.5 -0.2
v 0.3 6.6 -0.2
v 0.4 -0.7 -0.2
v 0.4 2.4 -0.2
v 0.4 2.8 -0.2
v 0.4 5.7 -0.2
v 0.4 6.4 -0.2
v 0.4 6.5 -0.2
v 0.4 9.6 -0.2
v 0.5 -0.7 -0.2
v 0.5 2.4 -0.2
v 0.5 2.8 -0.2
v 0.5 5.7 -0.2
v 0.5 6.4 -0.2
v 0.5 9.6 -0.2
v 0 -0.7 -0.3
v 0 2.4 -0.3
v 0 2.8 -0.3
v 0 5.7 -0.3
v 0 6.4 -0.3
v 0 9.6 -0.3
v 0.1 6.4 -0.3
v 0.1 6.5 -0.3
v 0.2 6.5 -0.3
v 0.2 6.6 -0.3
v 0.3 6.5 -0.3
v 0.3 6.6 -0.3
v 0.4 -0.7 -0.3
v 0.4 2.4 -0.3
v 0.4 2.8 -0.3
v 0.4 5.7 -0.3
v 0.4 6.5 -0.3
v 0.4 9.6 -0.3
v 0.1 -0.9 0.1
v 0.1 -0.8 0.1
v 0.1 -0.7 0.1
v 0.1 2.4 0.1
v 0.1 2.5 0.1
v 0.1 2.7 0.1
v 0.1 2.8 0.1
v 0.1 5.7 0.1
v 0.1 5.8 0.1
v 0.1 6 0.1
v 0.1 6.1 0.1
v 0.1 9.6 0.1
v 0.1 9.7 0.1
v 0.1 9.8 0.1
v 0.3 -0.9 0.1
v 0.3 -0.8 0.1
v 0.3 -0.7 0.1
v 0.3 2.4 0.1
v 0.3 2.5 0.1
v 0.3 2.7 0.1
v 0.3 2.8 0.1
v 0.3 5.7 0.1
v 0.3 5.8 0.1
v 0.3 6 0.1
v 0.3 6.1 0.1
v 0.3 9.6 0.1
v 0.3 9.7 0.1
v 0.3 9.8 0.1
v -0.3 -0.9 -0.3
v -0.3 -0.8 -0.3
v -0.3 2.5 -0.3
v -0.3 2.7 -0.3
v -0.3 5.8 -0.3
v -0.3 6 -0.3
v -0.3 9.7 -0.3
v -0.3 9.8 -0.3
v 0.7 -0.9 -0.3
v 0.7 -0.8 -0.3
v 0.7 2.5 -0.3
v 0.7 2.7 -0.3
v 0.7 5.8 -0.3
v 0.7 6 -0.3
v 0.7 9.7 -0.3
v 0.7 9.8 -0.3
v -0.4 -0.8 -0.4
v -0.4 2.5 -0.4
v -0.4 2.7 -0.4
v -0.4 5.8 -0.4
v -0.4 6 -0.4
v -0.4 9.7 -0.4
v 0.8 -0.8 -0.4
v 0.8 2.5 -0.4
v 0.8 2.7 -0.4
v 0.8 5.8 -0.4
v 0.8 6 -0.4
v 0.8 9.7 -0.4
v -0.3 -0.9 0.2
v 0.7 -0.9 0.2
v 0.1 -0.9 0.1
v 0.3 -0.9 0.1
v 0.1 -0.9 -0.1
v 0.3 -0.9 -0.1
v -0.3 -0.9 -0.3
v 0.7 -0.9 -0.3
v -0.4 -0.8 0.2
v -0.3 -0.8 0.2
v 0.7 -0.8 0.2
v 0.8 -0.8 0.2
v -0.3 -0.8 -0.3
v 0.7 -0.8 -0.3
v -0.4 -0.8 -0.4
v 0.8 -0.8 -0.4
v -0.3 2.4 0.2
v 0.7 2.4 0.2
v 0.1 2.4 0.1
v 0.3 2.4 0.1
v -0.3 2.4 0
v -0.2 2.4 0
v 0.6 2.4 0
v 0.7 2.4 0
v -0.2 2.4 -0.1
v -0.1 2.4 -0.1
v 0.1 2.4 -0.1
v 0.3 2.4 -0.1
v 0.5 2.4 -0.1
v 0.6 2.4 -0.1
v -0.1 2.4 -0.2
v 0 2.4 -0.2
v 0.4 2.4 -0.2
v 0.5 2.4 -0.2
v 0 2.4 -0.3
v 0.4 2.4 -0.3
v -0.4 2.7 0.2
v -0.3 2.7 0.2
v 0.7 2.7 0.2
v 0.8 2.7 0.2
v -0.3 2.7 -0.3
v 0.7 2.7 -0.3
v -0.4 2.7 -0.4
v 0.8 2.7 -0.4
v -0.3 5.7 0.2
v 0.7 5.7 0.2
v 0.1 5.7 0.1
v 0.3 5.7 0.1
v -0.3 5.7 0
v -0.2 5.7 0
v 0.6 5.7 0
v 0.7 5.7 0
v -0.2 5.7 -0.1
v -0.1 5.7 -0.1
v 0.1 5.7 -0.1
v 0.3 5.7 -0.1
v 0.5 5.7 -0.1
v 0.6 5.7 -0.1
v -0.1 5.7 -0.2
v 0 5.7 -0.2
v 0.4 5.7 -0.2
v 0.5 5.7 -0.2
v 0 5.7 -0.3
v 0.4 5.7 -0.3
v -0.4 6 0.2
v -0.3 6 0.2
v 0.7 6 0.2
v 0.8 6 0.2
v -0.3 6 -0.3
v 0.7 6 -0.3
v -0.4 6 -0.4
v 0.8 6 -0.4
v 0.1 6.1 0.1
v 0.3 6.1 0.1
v 0.1 6.1 -0.1
v 0.3 6.1 -0.1
v -0.3 9.6 0.2
v 0.7 9.6 0.2
v 0.1 9.6 0.1
v 0.3 9.6 0.1
v -0.3 9.6 0
v -0.2 9.6 0
v 0.6 9.6 0
v 0.7 9.6 0
v -0.2 9.6 -0.1
v -0.1 9.6 -0.1
v 0.1 9.6 -0.1
v 0.3 9.6 -0.1
v 0.5 9.6 -0.1
v 0.6 9.6 -0.1
v -0.1 9.6 -0.2
v 0 9.6 -0.2
v 0.4 9.6 -0.2
v 0.5 9.6 -0.2
v 0 9.6 -0.3
v 0.4 9.6 -0.3
v -0.3 -0.7 0.2
v 0.7 -0.7 0.2
v 0.1 -0.7 0.1
v 0.3 -0.7 0.1
v -0.3 -0.7 0
v -0.2 -0.7 0
v 0.6 -0.7 0
v 0.7 -0.7 0
v -0.2 -0.7 -0.1
v -0.1 -0.7 -0.1
v 0.1 -0.7 -0.1
v 0.3 -0.7 -0.1
v 0.5 -0.7 -0.1
v 0.6 -0.7 -0.1
v -0.1 -0.7 -0.2
v 0 -0.7 -0.2
v 0.4 -0.7 -0.2
v 0.5 -0.7 -0.2
v 0 -0.7 -0.3
v 0.4 -0.7 -0.3
v -0.4 2.5 0.2
v -0.3 2.5 0.2
v 0.7 2.5 0.2
v 0.8 2.5 0.2
v -0.3 2.5 -0.3
v 0.7 2.5 -0.3
v -0.4 2.5 -0.4
v 0.8 2.5 -0.4
v -0.3 2.8 0.2
v 0.7 2.8 0.2
v 0.1 2.8 0.1
v 0.3 2.8 0.1
v -0.3 2.8 0
v -0.2 2.8 0
v 0.6 2.8 0
v 0.7 2.8 0
v -0.2 2.8 -0.1
v -0.1 2.8 -0.1
v 0.1 2.8 -0.1
v 0.3 2.8 -0.1
v 0.5 2.8 -0.1
v 0.6 2.8 -0.1
v -0.1 2.8 -0.2
v 0 2.8 -0.2
v 0.4 2.8 -0.2
v 0.5 2.8 -0.2
v 0 2.8 -0.3
v 0.4 2.8 -0.3
v -0.4 5.8 0.2
v -0.3 5.8 0.2
v 0.7 5.8 0.2
v 0.8 5.8 0.2
v -0.3 5.8 -0.3
v 0.7 5.8 -0.3
v -0.4 5.8 -0.4
v 0.8 5.8 -0.4
v -0.3 6.1 0.2
v 0 6.1 0.2
v 0.4 6.1 0.2
v 0.7 6.1 0.2
v -0.2 6.1 0.1
v 0 6.1 0.1
v 0.4 6.1 0.1
v 0.6 6.1 0.1
v -0.3 6.1 0
v -0.2 6.1 0
v 0.6 6.1 0
v 0.7 6.1 0
v 0 6.2 0.2
v 0.4 6.2 0.2
v -0.2 6.2 0.1
v 0 6.2 0.1
v 0.1 6.2 0.1
v 0.3 6.2 0.1
v 0.4 6.2 0.1
v 0.6 6.2 0.1
v -0.2 6.2 0
v 0.1 6.2 0
v 0.3 6.2 0
v 0.6 6.2 0
v 0.1 6.3 0.1
v 0.3 6.3 0.1
v -0.2 6.3 0
v 0.1 6.3 0
v 0.3 6.3 0
v 0.6 6.3 0
v -0.2 6.3 -0.1
v -0.1 6.3 -0.1
v 0.1 6.3 -0.1
v 0.3 6.3 -0.1
v 0.5 6.3 -0.1
v 0.6 6.3 -0.1
v 0.1 6.4 0
v 0.3 6.4 0
v -0.1 6.4 -0.1
v 0.1 6.4 -0.1
v 0.2 6.4 -0.1
v 0.3 6.4 -0.1
v 0.5 6.4 -0.1
v -0.1 6.4 -0.2
v 0 6.4 -0.2
v 0.1 6.4 -0.2
v 0.2 6.4 -0.2
v 0.3 6.4 -0.2
v 0.4 6.4 -0.2
v 0.5 6.4 -0.2
v 0 6.4 -0.3
v 0.1 6.4 -0.3
v 0.2 6.5 -0.1
v 0.3 6.5 -0.1
v 0.1 6.5 -0.2
v 0.2 6.5 -0.2
v 0.3 6.5 -0.2
v 0.4 6.5 -0.2
v 0.1 6.5 -0.3
v 0.2 6.5 -0.3
v 0.3 6.5 -0.3
v 0.4 6.5 -0.3
v 0.2 6.6 -0.2
v 0.3 6.6 -0.2
v 0.2 6.6 -0.3
v 0.3 6.6 -0.3
v -0.4 9.7 0.2
v -0.3 9.7 0.2
v 0.7 9.7 0.2
v 0.8 9.7 0.2
v -0.3 9.7 -0.3
v 0.7 9.7 -0.3
v -0.4 9.7 -0.4
v 0.8 9.7 -0.4
v -0.3 9.8 0.2
v 0.7 9.8 0.2
v 0.1 9.8 0.1
v 0.3 9.8 0.1
v 0.1 9.8 -0.1
v 0.3 9.8 -0.1
v -0.3 9.8 -0.3
v 0.7 9.8 -0.3

# faces
f 3/2/1 2/2/1 1/2/1
f 4/2/1 2/2/1 3/2/1
f 7/2/1 6/2/1 5/2/1
f 8/2/1 6/2/1 7/2/1
f 11/2/1 10/2/1 9/2/1
f 12/2/1 10/2/1 11/2/1
f 15/3/1 14/3/1 13/3/1
f 16/3/1 14/3/1 15/3/1
f 19/3/1 18/3/1 17/3/1
f 20/3/1 18/3/1 19/3/1
f 23/3/1 22/3/1 21/3/1
f 24/3/1 22/3/1 23/3/1
f 27/3/1 26/3/1 25/3/1
f 28/3/1 26/3/1 27/3/1
f 31/1/1 30/1/1 29/1/1
f 32/1/1 30/1/1 31/1/1
f 35/1/1 34/1/1 33/1/1
f 36/1/1 34/1/1 35/1/1
f 39/1/1 38/1/1 37/1/1
f 40/1/1 38/1/1 39/1/1
f 42/1/1 41/1/1 40/1/1
f 43/1/1 41/1/1 42/1/1
f 46/1/1 45/1/1 44/1/1
f 47/1/1 45/1/1 46/1/1
f 50/1/1 49/1/1 48/1/1
f 51/1/1 49/1/1 50/1/1
f 53/1/1 52/1/1 51/1/1
f 54/1/1 52/1/1 53/1/1
f 57/3/1 56/3/1 55/3/1
f 58/3/1 56/3/1 57/3/1
f 59/2/1 58/2/1 57/2/1
f 60/2/1 58/2/1 59/2/1
f 63/2/1 62/2/1 61/2/1
f 64/2/1 62/2/1 63/2/1
f 65/3/1 64/3/1 63/3/1
f 66/3/1 64/3/1 65/3/1
f 67/2/1 66/2/1 65/2/1
f 68/2/1 66/2/1 67/2/1
f 71/2/1 70/2/1 69/2/1
f 72/2/1 70/2/1 71/2/1
f 73/3/1 72/3/1 71/3/1
f 74/3/1 73/3/1 71/3/1
f 75/3/1 73/3/1 74/3/1
f 76/2/1 75/2/1 74/2/1
f 77/2/1 75/2/1 76/2/1
f 80/2/1 79/2/1 78/2/1
f 81/2/1 79/2/1 80/2/1
f 82/3/1 81/3/1 80/3/1
f 83/3/1 81/3/1 82/3/1
f 86/2/1 85/2/1 84/2/1
f 87/2/1 85/2/1 86/2/1
f 90/2/1 89/2/1 88/2/1
f 91/2/1 89/2/1 90/2/1
f 94/2/1 93/2/1 92/2/1
f 95/2/1 93/2/1 94/2/1
f 98/2/1 97/2/1 96/2/1
f 99/2/1 97/2/1 98/2/1
f 102/2/1 101/2/1 100/2/1
f 103/2/1 101/2/1 102/2/1
f 106/2/1 105/2/1 104/2/1
f 107/2/1 105/2/1 106/2/1
f 110/2/1 109/2/1 108/2/1
f 111/2/1 109/2/1 110/2/1
f 114/2/1 113/2/1 112/2/1
f 115/2/1 113/2/1 114/2/1
f 118/2/1 117/2/1 116/2/1
f 119/2/1 117/2/1 118/2/1
f 122/2/1 121/2/1 120/2/1
f 123/2/1 121/2/1 122/2/1
f 126/2/1 125/2/1 124/2/1
f 127/2/1 125/2/1 126/2/1
f 130/2/1 129/2/1 128/2/1
f 131/2/1 129/2/1 130/2/1
f 132/2/2 133/2/2 134/2/2
f 134/2/2 133/2/2 135/2/2
f 136/2/2 137/2/2 138/2/2
f 138/2/2 137/2/2 139/2/2
f 140/2/2 141/2/2 142/2/2
f 142/2/2 141/2/2 143/2/2
f 144/2/2 145/2/2 146/2/2
f 146/2/2 145/2/2 147/2/2
f 148/2/2 149/2/2 150/2/2
f 150/2/2 149/2/2 151/2/2
f 152/2/2 153/2/2 154/2/2
f 154/2/2 153/2/2 155/2/2
f 156/2/2 157/2/2 158/2/2
f 158/2/2 157/2/2 159/2/2
f 160/2/2 161/2/2 162/2/2
f 162/2/2 161/2/2 163/2/2
f 164/2/2 165/2/2 166/2/2
f 166/2/2 165/2/2 167/2/2
f 168/2/2 169/2/2 170/2/2
f 170/2/2 169/2/2 171/2/2
f 172/2/2 173/2/2 174/2/2
f 174/2/2 173/2/2 175/2/2
f 176/2/2 177/2/2 178/2/2
f 178/2/2 177/2/2 179/2/2
f 180/3/2 181/3/2 182/3/2
f 182/3/2 181/3/2 183/3/2
f 182/2/2 183/2/2 184/2/2
f 184/2/2 183/2/2 185/2/2
f 186/2/2 187/2/2 188/2/2
f 188/2/2 187/2/2 189/2/2
f 188/3/2 189/3/2 190/3/2
f 190/3/2 189/3/2 191/3/2
f 190/2/2 191/2/2 192/2/2
f 192/2/2 191/2/2 193/2/2
f 194/2/2 195/2/2 196/2/2
f 196/2/2 195/2/2 197/2/2
f 196/3/2 197/3/2 198/3/2
f 196/3/2 198/3/2 199/3/2
f 199/3/2 198/3/2 200/3/2
f 199/2/2 200/2/2 201/2/2
f 201/2/2 200/2/2 202/2/2
f 203/2/2 204/2/2 205/2/2
f 205/2/2 204/2/2 206/2/2
f 205/3/2 206/3/2 207/3/2
f 207/3/2 206/3/2 208/3/2
f 209/1/2 210/1/2 211/1/2
f 211/1/2 210/1/2 212/1/2
f 212/1/2 213/1/2 214/1/2
f 214/1/2 213/1/2 215/1/2
f 215/1/2 216/1/2 217/1/2
f 217/1/2 216/1/2 218/1/2
f 218/1/2 219/1/2 220/1/2
f 220/1/2 219/1/2 221/1/2
f 222/1/2 223/1/2 224/1/2
f 224/1/2 223/1/2 225/1/2
f 226/1/2 227/1/2 228/1/2
f 228/1/2 227/1/2 229/1/2
f 230/3/2 231/3/2 232/3/2
f 232/3/2 231/3/2 233/3/2
f 234/3/2 235/3/2 236/3/2
f 236/3/2 235/3/2 237/3/2
f 238/3/2 239/3/2 240/3/2
f 240/3/2 239/3/2 241/3/2
f 242/3/2 243/3/2 244/3/2
f 244/3/2 243/3/2 245/3/2
f 246/2/2 247/2/2 248/2/2
f 248/2/2 247/2/2 249/2/2
f 250/2/2 251/2/2 252/2/2
f 252/2/2 251/2/2 253/2/2
f 254/2/2 255/2/2 256/2/2
f 256/2/2 255/2/2 257/2/2
f 265/2/3 259/2/3 258/2/3
f 266/2/3 259/2/3 265/2/3
f 267/2/3 259/2/3 266/2/3
f 268/2/3 259/2/3 267/2/3
f 269/2/3 261/2/3 260/2/3
f 270/2/3 261/2/3 269/2/3
f 271/2/3 261/2/3 270/2/3
f 272/2/3 261/2/3 271/2/3
f 273/2/3 263/2/3 262/2/3
f 274/2/3 263/2/3 273/2/3
f 275/2/3 263/2/3 274/2/3
f 276/2/3 263/2/3 275/2/3
f 278/2/3 274/2/3 273/2/3
f 280/2/3 278/2/3 273/2/3
f 280/1/3 279/1/3 278/1/3
f 281/1/3 279/1/3 280/1/3
f 282/3/3 265/3/3 264/3/3
f 283/2/3 266/2/3 265/2/3
f 283/3/3 265/3/3 282/3/3
f 284/2/3 266/2/3 283/2/3
f 285/2/3 268/2/3 267/2/3
f 286/3/3 269/3/3 268/3/3
f 286/2/3 268/2/3 285/2/3
f 287/2/3 270/2/3 269/2/3
f 287/3/3 269/3/3 286/3/3
f 288/2/3 270/2/3 287/2/3
f 289/2/3 272/2/3 271/2/3
f 290/3/3 273/3/3 272/3/3
f 290/2/3 272/2/3 289/2/3
f 291/2/3 280/2/3 273/2/3
f 291/3/3 273/3/3 290/3/3
f 292/2/3 280/2/3 291/2/3
f 293/2/3 276/2/3 275/2/3
f 294/3/3 277/3/3 276/3/3
f 294/2/3 276/2/3 293/2/3
f 295/3/3 277/3/3 294/3/3
f 296/2/3 284/2/3 283/2/3
f 296/2/3 285/2/3 284/2/3
f 296/2/3 286/2/3 285/2/3
f 297/2/3 286/2/3 296/2/3
f 298/2/3 288/2/3 287/2/3
f 298/2/3 289/2/3 288/2/3
f 298/2/3 290/2/3 289/2/3
f 299/2/3 290/2/3 298/2/3
f 300/2/3 292/2/3 291/2/3
f 300/2/3 293/2/3 292/2/3
f 300/2/3 294/2/3 293/2/3
f 301/2/3 294/2/3 300/2/3
f 304/1/3 303/1/3 302/1/3
f 305/1/3 303/1/3 304/1/3
f 308/1/3 307/1/3 306/1/3
f 309/1/3 307/1/3 308/1/3
f 312/1/3 311/1/3 310/1/3
f 313/1/3 311/1/3 312/1/3
f 320/2/3 315/2/3 314/2/3
f 321/2/3 315/2/3 320/2/3
f 322/2/3 317/2/3 316/2/3
f 323/2/3 317/2/3 322/2/3
f 324/2/3 319/2/3 318/2/3
f 325/2/3 319/2/3 324/2/3
f 326/2/3 319/2/3 325/2/3
f 327/2/3 319/2/3 326/2/3
f 328/1/3 326/1/3 325/1/3
f 329/1/3 326/1/3 328/1/3
f 332/1/3 330/1/3 329/1/3
f 333/1/3 330/1/3 332/1/3
f 339/1/3 332/1/3 331/1/3
f 340/1/3 332/1/3 339/1/3
f 342/2/3 335/2/3 334/2/3
f 343/2/3 335/2/3 342/2/3
f 344/2/3 337/2/3 336/2/3
f 345/2/3 337/2/3 344/2/3
f 346/2/3 340/2/3 339/2/3
f 346/2/3 341/2/3 340/2/3
f 346/2/3 339/2/3 338/2/3
f 347/2/3 341/2/3 346/2/3
f 354/2/3 349/2/3 348/2/3
f 355/2/3 349/2/3 354/2/3
f 356/2/3 351/2/3 350/2/3
f 357/2/3 351/2/3 356/2/3
f 358/2/3 353/2/3 352/2/3
f 359/2/3 353/2/3 358/2/3
f 360/2/3 353/2/3 359/2/3
f 373/1/3 359/1/3 358/1/3
f 374/1/3 359/1/3 373/1/3
f 380/3/3 362/3/3 361/3/3
f 381/2/3 363/2/3 362/2/3
f 381/3/3 362/3/3 380/3/3
f 382/2/3 363/2/3 381/2/3
f 383/2/3 365/2/3 364/2/3
f 384/3/3 366/3/3 365/3/3
f 384/2/3 365/2/3 383/2/3
f 385/2/3 367/2/3 366/2/3
f 385/3/3 366/3/3 384/3/3
f 386/2/3 367/2/3 385/2/3
f 387/2/3 369/2/3 368/2/3
f 387/2/3 370/2/3 369/2/3
f 388/2/3 370/2/3 387/2/3
f 389/3/3 371/3/3 370/3/3
f 389/2/3 370/2/3 388/2/3
f 390/2/3 372/2/3 371/2/3
f 390/3/3 371/3/3 389/3/3
f 391/2/3 372/2/3 390/2/3
f 393/1/3 379/1/3 378/1/3
f 394/1/3 379/1/3 393/1/3
f 395/2/3 376/2/3 375/2/3
f 396/3/3 377/3/3 376/3/3
f 396/2/3 376/2/3 395/2/3
f 397/3/3 377/3/3 396/3/3
f 402/1/3 393/1/3 392/1/3
f 403/1/3 393/1/3 402/1/3
f 405/2/3 399/2/3 398/2/3
f 406/2/3 399/2/3 405/2/3
f 407/2/3 401/2/3 400/2/3
f 408/2/3 401/2/3 407/2/3
f 409/2/3 404/2/3 403/2/3
f 409/2/3 403/2/3 402/2/3
f 410/2/3 404/2/3 409/2/3
f 417/2/3 412/2/3 411/2/3
f 418/2/3 412/2/3 417/2/3
f 419/2/3 414/2/3 413/2/3
f 420/2/3 414/2/3 419/2/3
f 421/2/3 416/2/3 415/2/3
f 422/2/3 416/2/3 421/2/3
f 425/1/3 424/1/3 423/1/3
f 426/1/3 424/1/3 425/1/3
f 429/1/3 427/1/3 426/1/3
f 430/1/3 427/1/3 429/1/3
f 435/1/3 429/1/3 428/1/3
f 436/1/3 429/1/3 435/1/3
f 438/2/3 432/2/3 431/2/3
f 439/2/3 432/2/3 438/2/3
f 440/2/3 434/2/3 433/2/3
f 441/2/3 434/2/3 440/2/3
f 442/2/3 436/2/3 435/2/3
f 442/2/3 437/2/3 436/2/3
f 443/2/3 437/2/3 442/2/3
f 450/2/3 449/2/3 448/2/3
f 451/2/3 449/2/3 450/2/3
f 452/2/3 449/2/3 451/2/3
f 453/2/3 449/2/3 452/2/3
f 455/2/3 449/2/3 453/2/3
f 456/2/3 445/2/3 444/2/3
f 457/2/3 445/2/3 456/2/3
f 458/2/3 447/2/3 446/2/3
f 459/2/3 447/2/3 458/2/3
f 460/2/3 455/2/3 454/2/3
f 461/2/3 449/2/3 455/2/3
f 461/2/3 455/2/3 460/2/3
f 462/3/4 463/3/4 476/3/4
f 463/2/4 464/2/4 477/2/4
f 476/3/4 463/3/4 477/3/4
f 477/2/4 464/2/4 478/2/4
f 465/2/4 466/2/4 479/2/4
f 466/3/4 467/3/4 480/3/4
f 479/2/4 466/2/4 480/2/4
f 467/2/4 468/2/4 481/2/4
f 480/3/4 467/3/4 481/3/4
f 481/2/4 468/2/4 482/2/4
f 469/2/4 470/2/4 483/2/4
f 470/3/4 471/3/4 484/3/4
f 483/2/4 470/2/4 484/2/4
f 471/2/4 472/2/4 485/2/4
f 484/3/4 471/3/4 485/3/4
f 485/2/4 472/2/4 486/2/4
f 473/2/4 474/2/4 487/2/4
f 474/3/4 475/3/4 488/3/4
f 487/2/4 474/2/4 488/2/4
f 488/3/4 475/3/4 489/3/4
f 490/3/4 491/3/4 498/3/4
f 498/3/4 491/3/4 499/3/4
f 492/3/4 493/3/4 500/3/4
f 500/3/4 493/3/4 501/3/4
f 494/3/4 495/3/4 502/3/4
f 502/3/4 495/3/4 503/3/4
f 496/3/4 497/3/4 504/3/4
f 504/3/4 497/3/4 505/3/4
f 506/2/4 507/2/4 512/2/4
f 512/2/4 507/2/4 513/2/4
f 508/2/4 509/2/4 514/2/4
f 514/2/4 509/2/4 515/2/4
f 510/2/4 511/2/4 516/2/4
f 516/2/4 511/2/4 517/2/4
f 520/3/5 519/3/5 518/3/5
f 521/3/5 519/3/5 520/3/5
f 522/3/5 520/3/5 518/3/5
f 523/3/5 519/3/5 521/3/5
f 524/3/5 522/3/5 518/3/5
f 524/3/5 523/3/5 522/3/5
f 525/3/5 519/3/5 523/3/5
f 525/3/5 523/3/5 524/3/5
f 530/2/5 527/2/5 526/2/5
f 531/2/5 529/2/5 528/2/5
f 532/2/5 530/2/5 526/2/5
f 532/2/5 531/2/5 530/2/5
f 533/2/5 529/2/5 531/2/5
f 533/2/5 531/2/5 532/2/5
f 536/2/5 535/2/5 534/2/5
f 537/2/5 535/2/5 536/2/5
f 538/2/5 536/2/5 534/2/5
f 539/2/5 536/2/5 538/2/5
f 540/2/5 535/2/5 537/2/5
f 541/2/5 535/2/5 540/2/5
f 542/2/5 536/2/5 539/2/5
f 543/2/5 536/2/5 542/2/5
f 544/2/5 536/2/5 543/2/5
f 545/2/5 540/2/5 537/2/5
f 546/2/5 540/2/5 545/2/5
f 547/2/5 540/2/5 546/2/5
f 548/2/5 544/2/5 543/2/5
f 548/2/5 546/2/5 545/2/5
f 548/2/5 545/2/5 544/2/5
f 549/2/5 546/2/5 548/2/5
f 550/2/5 546/2/5 549/2/5
f 551/2/5 546/2/5 550/2/5
f 552/2/5 550/2/5 549/2/5
f 553/2/5 550/2/5 552/2/5
f 558/2/5 555/2/5 554/2/5
f 559/2/5 557/2/5 556/2/5
f 560/2/5 558/2/5 554/2/5
f 560/2/5 559/2/5 558/2/5
f 561/2/5 557/2/5 559/2/5
f 561/2/5 559/2/5 560/2/5
f 564/2/5 563/2/5 562/2/5
f 565/2/5 563/2/5 564/2/5
f 566/2/5 564/2/5 562/2/5
f 567/2/5 564/2/5 566/2/5
f 568/2/5 563/2/5 565/2/5
f 569/2/5 563/2/5 568/2/5
f 570/2/5 564/2/5 567/2/5
f 571/2/5 564/2/5 570/2/5
f 572/2/5 564/2/5 571/2/5
f 573/2/5 568/2/5 565/2/5
f 574/2/5 568/2/5 573/2/5
f 575/2/5 568/2/5 574/2/5
f 576/2/5 572/2/5 571/2/5
f 576/2/5 574/2/5 573/2/5
f 576/2/5 573/2/5 572/2/5
f 577/2/5 574/2/5 576/2/5
f 578/2/5 574/2/5 577/2/5
f 579/2/5 574/2/5 578/2/5
f 580/2/5 578/2/5 577/2/5
f 581/2/5 578/2/5 580/2/5
f 586/2/5 583/2/5 582/2/5
f 587/2/5 585/2/5 584/2/5
f 588/2/5 586/2/5 582/2/5
f 588/2/5 587/2/5 586/2/5
f 589/2/5 585/2/5 587/2/5
f 589/2/5 587/2/5 588/2/5
f 592/1/5 591/1/5 590/1/5
f 593/1/5 591/1/5 592/1/5
f 596/2/5 595/2/5 594/2/5
f 597/2/5 595/2/5 596/2/5
f 598/2/5 596/2/5 594/2/5
f 599/2/5 596/2/5 598/2/5
f 600/2/5 595/2/5 597/2/5
f 601/2/5 595/2/5 600/2/5
f 602/2/5 596/2/5 599/2/5
f 603/2/5 596/2/5 602/2/5
f 604/2/5 596/2/5 603/2/5
f 605/2/5 600/2/5 597/2/5
f 606/2/5 600/2/5 605/2/5
f 607/2/5 600/2/5 606/2/5
f 608/2/5 604/2/5 603/2/5
f 608/2/5 606/2/5 605/2/5
f 608/2/5 605/2/5 604/2/5
f 609/2/5 606/2/5 608/2/5
f 610/2/5 606/2/5 609/2/5
f 611/2/5 606/2/5 610/2/5
f 612/2/5 610/2/5 609/2/5
f 613/2/5 610/2/5 612/2/5
f 614/2/6 615/2/6 616/2/6
f 616/2/6 615/2/6 617/2/6
f 614/2/6 616/2/6 618/2/6
f 618/2/6 616/2/6 619/2/6
f 617/2/6 615/2/6 620/2/6
f 620/2/6 615/2/6 621/2/6
f 619/2/6 616/2/6 622/2/6
f 622/2/6 616/2/6 623/2/6
f 623/2/6 616/2/6 624/2/6
f 617/2/6 620/2/6 625/2/6
f 625/2/6 620/2/6 626/2/6
f 626/2/6 620/2/6 627/2/6
f 623/2/6 624/2/6 628/2/6
f 625/2/6 626/2/6 628/2/6
f 624/2/6 625/2/6 628/2/6
f 628/2/6 626/2/6 629/2/6
f 629/2/6 626/2/6 630/2/6
f 630/2/6 626/2/6 631/2/6
f 629/2/6 630/2/6 632/2/6
f 632/2/6 630/2/6 633/2/6
f 634/2/6 635/2/6 638/2/6
f 636/2/6 637/2/6 639/2/6
f 634/2/6 638/2/6 640/2/6
f 638/2/6 639/2/6 640/2/6
f 639/2/6 637/2/6 641/2/6
f 640/2/6 639/2/6 641/2/6
f 642/2/6 643/2/6 644/2/6
f 644/2/6 643/2/6 645/2/6
f 642/2/6 644/2/6 646/2/6
f 646/2/6 644/2/6 647/2/6
f 645/2/6 643/2/6 648/2/6
f 648/2/6 643/2/6 649/2/6
f 647/2/6 644/2/6 650/2/6
f 650/2/6 644/2/6 651/2/6
f 651/2/6 644/2/6 652/2/6
f 645/2/6 648/2/6 653/2/6
f 653/2/6 648/2/6 654/2/6
f 654/2/6 648/2/6 655/2/6
f 651/2/6 652/2/6 656/2/6
f 653/2/6 654/2/6 656/2/6
f 652/2/6 653/2/6 656/2/6
f 656/2/6 654/2/6 657/2/6
f 657/2/6 654/2/6 658/2/6
f 658/2/6 654/2/6 659/2/6
f 657/2/6 658/2/6 660/2/6
f 660/2/6 658/2/6 661/2/6
f 662/2/6 663/2/6 666/2/6
f 664/2/6 665/2/6 667/2/6
f 662/2/6 666/2/6 668/2/6
f 666/2/6 667/2/6 668/2/6
f 667/2/6 665/2/6 669/2/6
f 668/2/6 667/2/6 669/2/6
f 670/2/6 671/2/6 674/2/6
f 674/2/6 671/2/6 675/2/6
f 672/2/6 673/2/6 676/2/6
f 676/2/6 673/2/6 677/2/6
f 670/2/6 674/2/6 678/2/6
f 678/2/6 674/2/6 679/2/6
f 677/2/6 673/2/6 680/2/6
f 680/2/6 673/2/6 681/2/6
f 682/1/6 683/1/6 685/1/6
f 685/1/6 683/1/6 686/1/6
f 686/1/6 683/1/6 687/1/6
f 687/1/6 683/1/6 688/1/6
f 684/1/6 685/1/6 690/1/6
f 685/1/6 686/1/6 690/1/6
f 690/1/6 686/1/6 691/1/6
f 688/1/6 689/1/6 692/1/6
f 687/1/6 688/1/6 692/1/6
f 692/1/6 689/1/6 693/1/6
f 694/1/6 695/1/6 697/1/6
f 697/1/6 695/1/6 698/1/6
f 696/1/6 697/1/6 700/1/6
f 700/1/6 697/1/6 701/1/6
f 701/1/6 697/1/6 702/1/6
f 698/1/6 699/1/6 703/1/6
f 703/1/6 699/1/6 704/1/6
f 704/1/6 699/1/6 705/1/6
f 706/1/6 707/1/6 709/1/6
f 709/1/6 707/1/6 710/1/6
f 710/1/6 707/1/6 711/1/6
f 708/1/6 709/1/6 713/1/6
f 709/1/6 710/1/6 713/1/6
f 713/1/6 710/1/6 714/1/6
f 714/1/6 710/1/6 715/1/6
f 715/1/6 710/1/6 716/1/6
f 711/1/6 712/1/6 717/1/6
f 717/1/6 712/1/6 718/1/6
f 718/1/6 712/1/6 719/1/6
f 714/1/6 715/1/6 720/1/6
f 720/1/6 715/1/6 721/1/6
f 722/1/6 723/1/6 725/1/6
f 725/1/6 723/1/6 726/1/6
f 724/1/6 725/1/6 728/1/6
f 728/1/6 725/1/6 729/1/6
f 726/1/6 727/1/6 730/1/6
f 730/1/6 727/1/6 731/1/6
f 732/1/6 733/1/6 734/1/6
f 734/1/6 733/1/6 735/1/6
f 736/2/6 737/2/6 740/2/6
f 738/2/6 739/2/6 741/2/6
f 736/2/6 740/2/6 742/2/6
f 740/2/6 741/2/6 742/2/6
f 741/2/6 739/2/6 743/2/6
f 742/2/6 741/2/6 743/2/6
f 744/3/6 745/3/6 746/3/6
f 746/3/6 745/3/6 747/3/6
f 744/3/6 746/3/6 748/3/6
f 747/3/6 745/3/6 749/3/6
f 744/3/6 748/3/6 750/3/6
f 748/3/6 749/3/6 750/3/6
f 749/3/6 745/3/6 751/3/6
f 750/3/6 749/3/6 751/3/6
