# MagicaVoxel @ Ephtracy

# group
o 

# material
mtllib choco.mtl
usemtl palette

# normals
vn -1 0 0
vn 1 0 0
vn 0 0 1
vn 0 0 -1
vn 0 -1 0
vn 0 1 0

# texcoords
vt 0.873047 0.5
vt 0.978516 0.5
vt 0.982422 0.5

# verts
v -1.9 0 0.7
v -1.9 0 -1.4
v -1.9 0.3 0.7
v -1.9 0.3 -1.4
v 1.3 0.2 0.6
v 1.3 0.2 0.2
v 1.3 0.2 0.1
v 1.3 0.2 -0.3
v 1.3 0.2 -0.4
v 1.3 0.2 -0.8
v 1.3 0.2 -0.9
v 1.3 0.2 -1.3
v 1.3 0.3 0.6
v 1.3 0.3 0.2
v 1.3 0.3 0.1
v 1.3 0.3 -0.3
v 1.3 0.3 -0.4
v 1.3 0.3 -0.8
v 1.3 0.3 -0.9
v 1.3 0.3 -1.3
v 1.1 0 0.7
v 1.1 0 0.6
v 1.1 0 -1.3
v 1.1 0 -1.4
v 1.1 0.2 0.2
v 1.1 0.2 0.1
v 1.1 0.2 -0.3
v 1.1 0.2 -0.4
v 1.1 0.2 -0.8
v 1.1 0.2 -0.9
v 1.1 0.3 0.7
v 1.1 0.3 0.6
v 1.1 0.3 0.2
v 1.1 0.3 0.1
v 1.1 0.3 -0.3
v 1.1 0.3 -0.4
v 1.1 0.3 -0.8
v 1.1 0.3 -0.9
v 1.1 0.3 -1.3
v 1.1 0.3 -1.4
v 1.2 0.2 0.6
v 1.2 0.2 0.2
v 1.2 0.2 0.1
v 1.2 0.2 -0.3
v 1.2 0.2 -0.4
v 1.2 0.2 -0.8
v 1.2 0.2 -0.9
v 1.2 0.2 -1.3
v 1.2 0.3 0.6
v 1.2 0.3 0.2
v 1.2 0.3 0.1
v 1.2 0.3 -0.3
v 1.2 0.3 -0.4
v 1.2 0.3 -0.8
v 1.2 0.3 -0.9
v 1.2 0.3 -1.3
v 1.9 0 0.6
v 1.9 0 -1.3
v 1.9 0.2 0.2
v 1.9 0.2 0.1
v 1.9 0.2 -0.3
v 1.9 0.2 -0.4
v 1.9 0.2 -0.8
v 1.9 0.2 -0.9
v 1.9 0.3 0.6
v 1.9 0.3 0.2
v 1.9 0.3 0.1
v 1.9 0.3 -0.3
v 1.9 0.3 -0.4
v 1.9 0.3 -0.8
v 1.9 0.3 -0.9
v 1.9 0.3 -1.3
v -1.9 0 0.7
v -1.9 0.3 0.7
v 1.1 0 0.7
v 1.1 0.3 0.7
v 1.1 0 0.6
v 1.1 0.3 0.6
v 1.2 0.2 0.6
v 1.2 0.3 0.6
v 1.3 0.2 0.6
v 1.3 0.3 0.6
v 1.9 0 0.6
v 1.9 0.3 0.6
v 1.1 0.2 0.1
v 1.1 0.3 0.1
v 1.2 0.2 0.1
v 1.2 0.3 0.1
v 1.3 0.2 0.1
v 1.3 0.3 0.1
v 1.9 0.2 0.1
v 1.9 0.3 0.1
v 1.1 0.2 -0.4
v 1.1 0.3 -0.4
v 1.2 0.2 -0.4
v 1.2 0.3 -0.4
v 1.3 0.2 -0.4
v 1.3 0.3 -0.4
v 1.9 0.2 -0.4
v 1.9 0.3 -0.4
v 1.1 0.2 -0.9
v 1.1 0.3 -0.9
v 1.2 0.2 -0.9
v 1.2 0.3 -0.9
v 1.3 0.2 -0.9
v 1.3 0.3 -0.9
v 1.9 0.2 -0.9
v 1.9 0.3 -0.9
v 1.1 0.2 0.2
v 1.1 0.3 0.2
v 1.2 0.2 0.2
v 1.2 0.3 0.2
v 1.3 0.2 0.2
v 1.3 0.3 0.2
v 1.9 0.2 0.2
v 1.9 0.3 0.2
v 1.1 0.2 -0.3
v 1.1 0.3 -0.3
v 1.2 0.2 -0.3
v 1.2 0.3 -0.3
v 1.3 0.2 -0.3
v 1.3 0.3 -0.3
v 1.9 0.2 -0.3
v 1.9 0.3 -0.3
v 1.1 0.2 -0.8
v 1.1 0.3 -0.8
v 1.2 0.2 -0.8
v 1.2 0.3 -0.8
v 1.3 0.2 -0.8
v 1.3 0.3 -0.8
v 1.9 0.2 -0.8
v 1.9 0.3 -0.8
v 1.1 0 -1.3
v 1.1 0.3 -1.3
v 1.2 0.2 -1.3
v 1.2 0.3 -1.3
v 1.3 0.2 -1.3
v 1.3 0.3 -1.3
v 1.9 0 -1.3
v 1.9 0.3 -1.3
v -1.9 0 -1.4
v -1.9 0.3 -1.4
v 1.1 0 -1.4
v 1.1 0.3 -1.4
v -1.9 0 0.7
v 1.1 0 0.7
v 1.1 0 0.6
v 1.9 0 0.6
v 1.1 0 -1.3
v 1.9 0 -1.3
v -1.9 0 -1.4
v 1.1 0 -1.4
v 1.2 0.2 0.6
v 1.3 0.2 0.6
v 1.1 0.2 0.2
v 1.2 0.2 0.2
v 1.3 0.2 0.2
v 1.9 0.2 0.2
v 1.1 0.2 0.1
v 1.2 0.2 0.1
v 1.3 0.2 0.1
v 1.9 0.2 0.1
v 1.1 0.2 -0.3
v 1.2 0.2 -0.3
v 1.3 0.2 -0.3
v 1.9 0.2 -0.3
v 1.1 0.2 -0.4
v 1.2 0.2 -0.4
v 1.3 0.2 -0.4
v 1.9 0.2 -0.4
v 1.1 0.2 -0.8
v 1.2 0.2 -0.8
v 1.3 0.2 -0.8
v 1.9 0.2 -0.8
v 1.1 0.2 -0.9
v 1.2 0.2 -0.9
v 1.3 0.2 -0.9
v 1.9 0.2 -0.9
v 1.2 0.2 -1.3
v 1.3 0.2 -1.3
v -1.9 0.3 0.7
v 1.1 0.3 0.7
v 1.1 0.3 0.6
v 1.2 0.3 0.6
v 1.3 0.3 0.6
v 1.9 0.3 0.6
v 0.8 0.3 0.5
v 0.9 0.3 0.5
v -0.6 0.3 0.4
v -0.5 0.3 0.4
v 0.2 0.3 0.3
v 0.3 0.3 0.3
v 0.8 0.3 0.3
v 0.9 0.3 0.3
v -1.5 0.3 0.2
v -1.4 0.3 0.2
v -0.6 0.3 0.2
v -0.5 0.3 0.2
v 0.2 0.3 0.2
v 0.3 0.3 0.2
v 1.1 0.3 0.2
v 1.2 0.3 0.2
v 1.3 0.3 0.2
v 1.9 0.3 0.2
v 1.1 0.3 0.1
v 1.2 0.3 0.1
v 1.3 0.3 0.1
v 1.9 0.3 0.1
v -1.5 0.3 -5.96046e-08
v -1.4 0.3 -5.96046e-08
v -0.3 0.3 -0.1
v -0.2 0.3 -0.1
v -0.3 0.3 -0.2
v -0.2 0.3 -0.2
v -1 0.3 -0.3
v -0.9 0.3 -0.3
v 0.4 0.3 -0.3
v 0.5 0.3 -0.3
v 1.1 0.3 -0.3
v 1.2 0.3 -0.3
v 1.3 0.3 -0.3
v 1.9 0.3 -0.3
v 1.1 0.3 -0.4
v 1.2 0.3 -0.4
v 1.3 0.3 -0.4
v 1.9 0.3 -0.4
v -1 0.3 -0.5
v -0.9 0.3 -0.5
v 0.4 0.3 -0.5
v 0.5 0.3 -0.5
v -1.7 0.3 -0.8
v -1.6 0.3 -0.8
v -1.3 0.3 -0.8
v -1.2 0.3 -0.8
v 0.1 0.3 -0.8
v 0.2 0.3 -0.8
v 1.1 0.3 -0.8
v 1.2 0.3 -0.8
v 1.3 0.3 -0.8
v 1.9 0.3 -0.8
v -1.3 0.3 -0.9
v -1.2 0.3 -0.9
v -0.7 0.3 -0.9
v -0.6 0.3 -0.9
v 0.1 0.3 -0.9
v 0.2 0.3 -0.9
v 1.1 0.3 -0.9
v 1.2 0.3 -0.9
v 1.3 0.3 -0.9
v 1.9 0.3 -0.9
v -1.7 0.3 -1
v -1.6 0.3 -1
v 0.8 0.3 -1
v 0.9 0.3 -1
v -0.7 0.3 -1.1
v -0.6 0.3 -1.1
v 0.8 0.3 -1.2
v 0.9 0.3 -1.2
v 1.1 0.3 -1.3
v 1.2 0.3 -1.3
v 1.3 0.3 -1.3
v 1.9 0.3 -1.3
v -1.9 0.3 -1.4
v 1.1 0.3 -1.4

# faces
f 3/2/1 2/2/1 1/2/1
f 4/2/1 2/2/1 3/2/1
f 13/1/1 6/1/1 5/1/1
f 14/1/1 6/1/1 13/1/1
f 15/1/1 8/1/1 7/1/1
f 16/1/1 8/1/1 15/1/1
f 17/1/1 10/1/1 9/1/1
f 18/1/1 10/1/1 17/1/1
f 19/1/1 12/1/1 11/1/1
f 20/1/1 12/1/1 19/1/1
f 21/2/2 22/2/2 31/2/2
f 31/2/2 22/2/2 32/2/2
f 25/2/2 26/2/2 33/2/2
f 33/2/2 26/2/2 34/2/2
f 27/2/2 28/2/2 35/2/2
f 35/2/2 28/2/2 36/2/2
f 29/2/2 30/2/2 37/2/2
f 37/2/2 30/2/2 38/2/2
f 23/2/2 24/2/2 39/2/2
f 39/2/2 24/2/2 40/2/2
f 41/1/2 42/1/2 49/1/2
f 49/1/2 42/1/2 50/1/2
f 43/1/2 44/1/2 51/1/2
f 51/1/2 44/1/2 52/1/2
f 45/1/2 46/1/2 53/1/2
f 53/1/2 46/1/2 54/1/2
f 47/1/2 48/1/2 55/1/2
f 55/1/2 48/1/2 56/1/2
f 57/1/2 58/1/2 59/1/2
f 59/1/2 58/1/2 60/1/2
f 60/1/2 58/1/2 61/1/2
f 61/1/2 58/1/2 62/1/2
f 62/1/2 58/1/2 63/1/2
f 63/1/2 58/1/2 64/1/2
f 57/1/2 59/1/2 65/1/2
f 65/1/2 59/1/2 66/1/2
f 60/1/2 61/1/2 67/1/2
f 67/1/2 61/1/2 68/1/2
f 62/1/2 63/1/2 69/1/2
f 69/1/2 63/1/2 70/1/2
f 64/1/2 58/1/2 71/1/2
f 71/1/2 58/1/2 72/1/2
f 75/2/3 74/2/3 73/2/3
f 76/2/3 74/2/3 75/2/3
f 79/1/3 78/1/3 77/1/3
f 80/1/3 78/1/3 79/1/3
f 81/1/3 79/1/3 77/1/3
f 83/1/3 81/1/3 77/1/3
f 83/1/3 82/1/3 81/1/3
f 84/1/3 82/1/3 83/1/3
f 87/1/3 86/1/3 85/1/3
f 88/1/3 86/1/3 87/1/3
f 91/1/3 90/1/3 89/1/3
f 92/1/3 90/1/3 91/1/3
f 95/1/3 94/1/3 93/1/3
f 96/1/3 94/1/3 95/1/3
f 99/1/3 98/1/3 97/1/3
f 100/1/3 98/1/3 99/1/3
f 103/1/3 102/1/3 101/1/3
f 104/1/3 102/1/3 103/1/3
f 107/1/3 106/1/3 105/1/3
f 108/1/3 106/1/3 107/1/3
f 109/1/4 110/1/4 111/1/4
f 111/1/4 110/1/4 112/1/4
f 113/1/4 114/1/4 115/1/4
f 115/1/4 114/1/4 116/1/4
f 117/1/4 118/1/4 119/1/4
f 119/1/4 118/1/4 120/1/4
f 121/1/4 122/1/4 123/1/4
f 123/1/4 122/1/4 124/1/4
f 125/1/4 126/1/4 127/1/4
f 127/1/4 126/1/4 128/1/4
f 129/1/4 130/1/4 131/1/4
f 131/1/4 130/1/4 132/1/4
f 133/1/4 134/1/4 135/1/4
f 135/1/4 134/1/4 136/1/4
f 133/1/4 135/1/4 137/1/4
f 133/1/4 137/1/4 139/1/4
f 137/1/4 138/1/4 139/1/4
f 139/1/4 138/1/4 140/1/4
f 141/2/4 142/2/4 143/2/4
f 143/2/4 142/2/4 144/2/4
f 147/2/5 146/2/5 145/2/5
f 149/2/5 147/2/5 145/2/5
f 149/1/5 148/1/5 147/1/5
f 150/1/5 148/1/5 149/1/5
f 151/2/5 149/2/5 145/2/5
f 152/2/5 149/2/5 151/2/5
f 153/1/6 154/1/6 156/1/6
f 156/1/6 154/1/6 157/1/6
f 155/1/6 156/1/6 159/1/6
f 157/1/6 158/1/6 159/1/6
f 156/1/6 157/1/6 159/1/6
f 159/1/6 158/1/6 160/1/6
f 160/1/6 158/1/6 161/1/6
f 161/1/6 158/1/6 162/1/6
f 160/1/6 161/1/6 164/1/6
f 164/1/6 161/1/6 165/1/6
f 163/1/6 164/1/6 167/1/6
f 165/1/6 166/1/6 167/1/6
f 164/1/6 165/1/6 167/1/6
f 167/1/6 166/1/6 168/1/6
f 168/1/6 166/1/6 169/1/6
f 169/1/6 166/1/6 170/1/6
f 168/1/6 169/1/6 172/1/6
f 172/1/6 169/1/6 173/1/6
f 171/1/6 172/1/6 175/1/6
f 173/1/6 174/1/6 175/1/6
f 172/1/6 173/1/6 175/1/6
f 175/1/6 174/1/6 176/1/6
f 176/1/6 174/1/6 177/1/6
f 177/1/6 174/1/6 178/1/6
f 176/1/6 177/1/6 179/1/6
f 179/1/6 177/1/6 180/1/6
f 181/2/6 182/2/6 183/2/6
f 181/2/6 183/2/6 187/2/6
f 187/2/6 183/2/6 188/2/6
f 181/2/6 187/2/6 189/2/6
f 189/2/6 187/2/6 190/2/6
f 190/2/6 187/2/6 191/2/6
f 191/2/6 187/2/6 192/2/6
f 187/3/6 188/3/6 193/3/6
f 192/2/6 187/2/6 193/2/6
f 188/2/6 183/2/6 194/2/6
f 193/3/6 188/3/6 194/3/6
f 181/2/6 189/2/6 195/2/6
f 195/2/6 189/2/6 196/2/6
f 189/3/6 190/3/6 197/3/6
f 196/2/6 189/2/6 197/2/6
f 190/2/6 191/2/6 198/2/6
f 197/3/6 190/3/6 198/3/6
f 191/3/6 192/3/6 199/3/6
f 198/2/6 191/2/6 199/2/6
f 192/2/6 193/2/6 200/2/6
f 199/3/6 192/3/6 200/3/6
f 193/2/6 194/2/6 200/2/6
f 183/1/6 184/1/6 201/1/6
f 200/2/6 194/2/6 201/2/6
f 194/2/6 183/2/6 201/2/6
f 201/1/6 184/1/6 202/1/6
f 185/1/6 186/1/6 203/1/6
f 203/1/6 186/1/6 204/1/6
f 199/2/6 200/2/6 205/2/6
f 198/2/6 199/2/6 205/2/6
f 200/2/6 201/2/6 205/2/6
f 196/2/6 197/2/6 205/2/6
f 197/2/6 198/2/6 205/2/6
f 195/3/6 196/3/6 209/3/6
f 181/2/6 195/2/6 209/2/6
f 196/2/6 205/2/6 210/2/6
f 209/3/6 196/3/6 210/3/6
f 209/2/6 210/2/6 211/2/6
f 210/2/6 205/2/6 211/2/6
f 211/2/6 205/2/6 212/2/6
f 209/2/6 211/2/6 213/2/6
f 211/3/6 212/3/6 213/3/6
f 212/2/6 205/2/6 214/2/6
f 213/3/6 212/3/6 214/3/6
f 209/2/6 213/2/6 215/2/6
f 213/2/6 214/2/6 215/2/6
f 215/2/6 214/2/6 216/2/6
f 214/2/6 205/2/6 217/2/6
f 216/2/6 214/2/6 217/2/6
f 217/2/6 205/2/6 218/2/6
f 205/1/6 206/1/6 219/1/6
f 218/2/6 205/2/6 219/2/6
f 219/1/6 206/1/6 220/1/6
f 207/1/6 208/1/6 221/1/6
f 221/1/6 208/1/6 222/1/6
f 218/2/6 219/2/6 223/2/6
f 215/3/6 216/3/6 227/3/6
f 209/2/6 215/2/6 227/2/6
f 216/2/6 217/2/6 228/2/6
f 227/3/6 216/3/6 228/3/6
f 217/3/6 218/3/6 229/3/6
f 228/2/6 217/2/6 229/2/6
f 218/2/6 223/2/6 230/2/6
f 229/3/6 218/3/6 230/3/6
f 227/2/6 228/2/6 231/2/6
f 181/2/6 209/2/6 231/2/6
f 229/2/6 230/2/6 231/2/6
f 228/2/6 229/2/6 231/2/6
f 209/2/6 227/2/6 231/2/6
f 231/2/6 230/2/6 232/2/6
f 232/2/6 230/2/6 233/2/6
f 233/2/6 230/2/6 234/2/6
f 234/2/6 230/2/6 235/2/6
f 235/2/6 230/2/6 236/2/6
f 230/2/6 223/2/6 237/2/6
f 236/2/6 230/2/6 237/2/6
f 223/1/6 224/1/6 237/1/6
f 237/1/6 224/1/6 238/1/6
f 225/1/6 226/1/6 239/1/6
f 239/1/6 226/1/6 240/1/6
f 232/2/6 233/2/6 241/2/6
f 233/3/6 234/3/6 241/3/6
f 234/2/6 235/2/6 242/2/6
f 241/3/6 234/3/6 242/3/6
f 242/2/6 235/2/6 243/2/6
f 243/2/6 235/2/6 244/2/6
f 235/3/6 236/3/6 245/3/6
f 244/2/6 235/2/6 245/2/6
f 236/2/6 237/2/6 246/2/6
f 245/3/6 236/3/6 246/3/6
f 246/2/6 237/2/6 247/2/6
f 181/2/6 231/2/6 251/2/6
f 231/3/6 232/3/6 251/3/6
f 232/2/6 241/2/6 252/2/6
f 251/3/6 232/3/6 252/3/6
f 241/2/6 242/2/6 252/2/6
f 242/2/6 243/2/6 252/2/6
f 244/2/6 245/2/6 253/2/6
f 246/2/6 247/2/6 253/2/6
f 245/2/6 246/2/6 253/2/6
f 253/2/6 247/2/6 254/2/6
f 243/3/6 244/3/6 255/3/6
f 252/2/6 243/2/6 255/2/6
f 251/2/6 252/2/6 255/2/6
f 244/2/6 253/2/6 256/2/6
f 255/3/6 244/3/6 256/3/6
f 253/3/6 254/3/6 257/3/6
f 256/2/6 253/2/6 257/2/6
f 255/2/6 256/2/6 257/2/6
f 254/2/6 247/2/6 258/2/6
f 257/3/6 254/3/6 258/3/6
f 247/1/6 248/1/6 259/1/6
f 258/2/6 247/2/6 259/2/6
f 257/2/6 258/2/6 259/2/6
f 259/1/6 248/1/6 260/1/6
f 249/1/6 250/1/6 261/1/6
f 261/1/6 250/1/6 262/1/6
f 255/2/6 257/2/6 263/2/6
f 181/2/6 251/2/6 263/2/6
f 257/2/6 259/2/6 263/2/6
f 251/2/6 255/2/6 263/2/6
f 263/2/6 259/2/6 264/2/6
