# MagicaVoxel @ Ephtracy

# group
o 

# material
mtllib lantern.mtl
usemtl palette

# normals
vn -1 0 0
vn 1 0 0
vn 0 0 1
vn 0 0 -1
vn 0 -1 0
vn 0 1 0

# texcoords
vt 0.00585938 0.5
vt 0.857422 0.5
vt 0.978516 0.5
vt 0.982422 0.5
vt 0.986328 0.5

# verts
v -0.3 0.2 0.1
v -0.3 0.2 -0.1
v -0.3 0.3 0.1
v -0.3 0.3 -0.1
v -0.3 0.9 0.1
v -0.3 0.9 -0.1
v -0.3 1.1 0.1
v -0.3 1.1 -0.1
v -0.3 1.4 0.3
v -0.3 1.4 -0.3
v -0.3 1.5 0.3
v -0.3 1.5 -0.3
v -0.3 2 0.3
v -0.3 2 -0.3
v -0.2 0.1 0.2
v -0.2 0.1 -0.2
v -0.2 0.2 0.1
v -0.2 0.2 -0.1
v -0.2 0.3 0.1
v -0.2 0.3 -0.1
v -0.2 0.6 0.1
v -0.2 0.6 -0.1
v -0.2 0.9 0.1
v -0.2 0.9 -0.1
v -0.2 1.1 0.1
v -0.2 1.1 -0.1
v -0.2 1.4 0.2
v -0.2 1.4 -0.2
v 0.2 0.1 0.2
v 0.2 0.1 -0.2
v 0.2 1.4 0.2
v 0.2 1.4 -0.2
v 0.3 1.4 0.3
v 0.3 1.4 -0.3
v 0.3 1.5 0.3
v 0.3 1.5 -0.3
v 0.3 2 0.3
v 0.3 2 -0.3
v -0.3 1.4 0.3
v -0.3 1.5 0.3
v -0.3 2 0.3
v 0.3 1.4 0.3
v 0.3 1.5 0.3
v 0.3 2 0.3
v -0.2 0.1 0.2
v -0.2 1.4 0.2
v 0.2 0.1 0.2
v 0.2 1.4 0.2
v -0.3 0.2 0.1
v -0.3 0.3 0.1
v -0.3 0.9 0.1
v -0.3 1.1 0.1
v -0.2 0.2 0.1
v -0.2 0.3 0.1
v -0.2 0.9 0.1
v -0.2 1.1 0.1
v -0.3 0.2 -0.1
v -0.3 0.3 -0.1
v -0.3 0.9 -0.1
v -0.3 1.1 -0.1
v -0.2 0.2 -0.1
v -0.2 0.3 -0.1
v -0.2 0.9 -0.1
v -0.2 1.1 -0.1
v -0.2 0.1 -0.2
v -0.2 1.4 -0.2
v 0.2 0.1 -0.2
v 0.2 1.4 -0.2
v -0.3 1.4 -0.3
v -0.3 1.5 -0.3
v -0.3 2 -0.3
v 0.3 1.4 -0.3
v 0.3 1.5 -0.3
v 0.3 2 -0.3
v -0.2 0.1 0.2
v 0.2 0.1 0.2
v -0.2 0.1 -0.2
v 0.2 0.1 -0.2
v -0.3 0.2 0.1
v -0.2 0.2 0.1
v -0.3 0.2 -0.1
v -0.2 0.2 -0.1
v -0.3 0.9 0.1
v -0.2 0.9 0.1
v -0.3 0.9 -0.1
v -0.2 0.9 -0.1
v -0.3 1.4 0.3
v 0.3 1.4 0.3
v -0.2 1.4 0.2
v 0.2 1.4 0.2
v -0.2 1.4 -0.2
v 0.2 1.4 -0.2
v -0.3 1.4 -0.3
v 0.3 1.4 -0.3
v -0.3 0.3 0.1
v -0.2 0.3 0.1
v -0.3 0.3 -0.1
v -0.2 0.3 -0.1
v -0.3 1.1 0.1
v -0.2 1.1 0.1
v -0.3 1.1 -0.1
v -0.2 1.1 -0.1
v -0.3 2 0.3
v 0.3 2 0.3
v -0.2 2 0.2
v 0.2 2 0.2
v -0.2 2 -0.2
v 0.2 2 -0.2
v -0.3 2 -0.3
v 0.3 2 -0.3

# faces
f 3/4/1 2/4/1 1/4/1
f 4/4/1 2/4/1 3/4/1
f 7/3/1 6/3/1 5/3/1
f 8/3/1 6/3/1 7/3/1
f 11/2/1 10/2/1 9/2/1
f 12/2/1 10/2/1 11/2/1
f 13/5/1 12/5/1 11/5/1
f 14/5/1 12/5/1 13/5/1
f 17/5/1 16/5/1 15/5/1
f 18/5/1 16/5/1 17/5/1
f 19/5/1 17/5/1 15/5/1
f 20/5/1 16/5/1 18/5/1
f 21/5/1 19/5/1 15/5/1
f 21/4/1 20/4/1 19/4/1
f 22/5/1 16/5/1 20/5/1
f 22/4/1 20/4/1 21/4/1
f 23/5/1 21/5/1 15/5/1
f 23/5/1 22/5/1 21/5/1
f 24/5/1 16/5/1 22/5/1
f 24/5/1 22/5/1 23/5/1
f 25/5/1 23/5/1 15/5/1
f 26/5/1 16/5/1 24/5/1
f 27/5/1 25/5/1 15/5/1
f 27/5/1 26/5/1 25/5/1
f 28/5/1 16/5/1 26/5/1
f 28/5/1 26/5/1 27/5/1
f 29/5/2 30/5/2 31/5/2
f 31/5/2 30/5/2 32/5/2
f 33/2/2 34/2/2 35/2/2
f 35/2/2 34/2/2 36/2/2
f 35/5/2 36/5/2 37/5/2
f 37/5/2 36/5/2 38/5/2
f 42/2/3 40/2/3 39/2/3
f 43/5/3 41/5/3 40/5/3
f 43/2/3 40/2/3 42/2/3
f 44/5/3 41/5/3 43/5/3
f 47/5/3 46/5/3 45/5/3
f 48/5/3 46/5/3 47/5/3
f 53/4/3 50/4/3 49/4/3
f 54/4/3 50/4/3 53/4/3
f 55/3/3 52/3/3 51/3/3
f 56/3/3 52/3/3 55/3/3
f 57/4/4 58/4/4 61/4/4
f 61/4/4 58/4/4 62/4/4
f 59/3/4 60/3/4 63/3/4
f 63/3/4 60/3/4 64/3/4
f 65/5/4 66/5/4 67/5/4
f 67/5/4 66/5/4 68/5/4
f 69/2/4 70/2/4 72/2/4
f 70/5/4 71/5/4 73/5/4
f 72/2/4 70/2/4 73/2/4
f 73/5/4 71/5/4 74/5/4
f 77/5/5 76/5/5 75/5/5
f 78/5/5 76/5/5 77/5/5
f 81/4/5 80/4/5 79/4/5
f 82/4/5 80/4/5 81/4/5
f 85/3/5 84/3/5 83/3/5
f 86/3/5 84/3/5 85/3/5
f 89/2/5 88/2/5 87/2/5
f 90/2/5 88/2/5 89/2/5
f 91/2/5 89/2/5 87/2/5
f 92/2/5 88/2/5 90/2/5
f 93/2/5 91/2/5 87/2/5
f 93/2/5 92/2/5 91/2/5
f 94/2/5 88/2/5 92/2/5
f 94/2/5 92/2/5 93/2/5
f 95/4/6 96/4/6 97/4/6
f 97/4/6 96/4/6 98/4/6
f 99/3/6 100/3/6 101/3/6
f 101/3/6 100/3/6 102/3/6
f 103/5/6 104/5/6 105/5/6
f 105/5/6 104/5/6 106/5/6
f 103/5/6 105/5/6 107/5/6
f 105/1/6 106/1/6 107/1/6
f 106/5/6 104/5/6 108/5/6
f 107/1/6 106/1/6 108/1/6
f 103/5/6 107/5/6 109/5/6
f 107/5/6 108/5/6 109/5/6
f 108/5/6 104/5/6 110/5/6
f 109/5/6 108/5/6 110/5/6
