# MagicaVoxel @ Ephtracy

# group
o 

# material
mtllib bamboo.mtl
usemtl palette

# normals
vn -1 0 0
vn 1 0 0
vn 0 0 1
vn 0 0 -1
vn 0 -1 0
vn 0 1 0

# texcoords
vt 0.626953 0.5
vt 0.720703 0.5

# verts
v -0.4 -8.8 0.8
v -0.4 -8.8 -0.4
v -0.4 -4.4 0.8
v -0.4 -4.4 -0.4
v -0.4 -4.2 0.8
v -0.4 -4.2 -0.4
v -0.4 -1 0.8
v -0.4 -1 -0.4
v -0.4 -0.8 0.8
v -0.4 -0.8 -0.4
v -0.4 2.5 0.8
v -0.4 2.5 -0.4
v -0.4 2.7 0.8
v -0.4 2.7 -0.4
v -0.4 5.8 0.8
v -0.4 5.8 -0.4
v -0.4 6 0.8
v -0.4 6 -0.4
v -0.4 9.7 0.8
v -0.4 9.7 -0.4
v -0.4 9.9 0.8
v -0.4 9.9 -0.4
v -0.4 13.2 0.8
v -0.4 13.2 -0.4
v -0.4 13.4 0.8
v -0.4 13.4 -0.4
v -0.4 16.8 0.8
v -0.4 16.8 -0.4
v -0.3 -4.4 0.7
v -0.3 -4.4 -0.3
v -0.3 -4.2 0.7
v -0.3 -4.2 -0.3
v -0.3 -1 0.7
v -0.3 -1 -0.3
v -0.3 -0.8 0.7
v -0.3 -0.8 -0.3
v -0.3 2.5 0.7
v -0.3 2.5 -0.3
v -0.3 2.7 0.7
v -0.3 2.7 -0.3
v -0.3 5.8 0.7
v -0.3 5.8 -0.3
v -0.3 6 0.7
v -0.3 6 -0.3
v -0.3 9.7 0.7
v -0.3 9.7 0.1
v -0.3 9.7 -0.3
v -0.3 9.8 0.1
v -0.3 9.8 -0.3
v -0.3 9.9 0.7
v -0.3 9.9 -0.3
v -0.3 13.2 0.7
v -0.3 13.2 0.6
v -0.3 13.2 -0.3
v -0.3 13.3 0.7
v -0.3 13.3 0.6
v -0.3 13.4 0.7
v -0.3 13.4 -0.3
v 0.7 -4.4 0.7
v 0.7 -4.4 -0.3
v 0.7 -4.2 0.7
v 0.7 -4.2 -0.3
v 0.7 -1 0.7
v 0.7 -1 -0.3
v 0.7 -0.8 0.7
v 0.7 -0.8 -0.3
v 0.7 2.5 0.7
v 0.7 2.5 -0.3
v 0.7 2.7 0.7
v 0.7 2.7 -0.3
v 0.7 5.8 0.7
v 0.7 5.8 -0.3
v 0.7 6 0.7
v 0.7 6 -0.3
v 0.7 9.7 0.7
v 0.7 9.7 0.1
v 0.7 9.7 -0.3
v 0.7 9.8 0.1
v 0.7 9.8 -0.3
v 0.7 9.9 0.7
v 0.7 9.9 -0.3
v 0.7 13.2 0.7
v 0.7 13.2 0.6
v 0.7 13.2 -0.3
v 0.7 13.3 0.7
v 0.7 13.3 0.6
v 0.7 13.4 0.7
v 0.7 13.4 -0.3
v 0.8 -8.8 0.8
v 0.8 -8.8 -0.4
v 0.8 -4.4 0.8
v 0.8 -4.4 -0.4
v 0.8 -4.2 0.8
v 0.8 -4.2 -0.4
v 0.8 -1 0.8
v 0.8 -1 -0.4
v 0.8 -0.8 0.8
v 0.8 -0.8 -0.4
v 0.8 2.5 0.8
v 0.8 2.5 -0.4
v 0.8 2.7 0.8
v 0.8 2.7 -0.4
v 0.8 5.8 0.8
v 0.8 5.8 -0.4
v 0.8 6 0.8
v 0.8 6 -0.4
v 0.8 9.7 0.8
v 0.8 9.7 -0.4
v 0.8 9.9 0.8
v 0.8 9.9 -0.4
v 0.8 13.2 0.8
v 0.8 13.2 -0.4
v 0.8 13.4 0.8
v 0.8 13.4 -0.4
v 0.8 16.8 0.8
v 0.8 16.8 -0.4
v -0.4 -8.8 0.8
v -0.4 -4.4 0.8
v -0.4 -4.2 0.8
v -0.4 -1 0.8
v -0.4 -0.8 0.8
v -0.4 2.5 0.8
v -0.4 2.7 0.8
v -0.4 5.8 0.8
v -0.4 6 0.8
v -0.4 9.7 0.8
v -0.4 9.9 0.8
v -0.4 13.2 0.8
v -0.4 13.4 0.8
v -0.4 16.8 0.8
v 0.8 -8.8 0.8
v 0.8 -4.4 0.8
v 0.8 -4.2 0.8
v 0.8 -1 0.8
v 0.8 -0.8 0.8
v 0.8 2.5 0.8
v 0.8 2.7 0.8
v 0.8 5.8 0.8
v 0.8 6 0.8
v 0.8 9.7 0.8
v 0.8 9.9 0.8
v 0.8 13.2 0.8
v 0.8 13.4 0.8
v 0.8 16.8 0.8
v -0.3 -4.4 0.7
v -0.3 -4.2 0.7
v -0.3 -1 0.7
v -0.3 -0.8 0.7
v -0.3 2.5 0.7
v -0.3 2.7 0.7
v -0.3 5.8 0.7
v -0.3 6 0.7
v -0.3 9.7 0.7
v -0.3 9.9 0.7
v -0.3 13.2 0.7
v -0.3 13.3 0.7
v -0.3 13.4 0.7
v 0.7 -4.4 0.7
v 0.7 -4.2 0.7
v 0.7 -1 0.7
v 0.7 -0.8 0.7
v 0.7 2.5 0.7
v 0.7 2.7 0.7
v 0.7 5.8 0.7
v 0.7 6 0.7
v 0.7 9.7 0.7
v 0.7 9.9 0.7
v 0.7 13.2 0.7
v 0.7 13.3 0.7
v 0.7 13.4 0.7
v -0.3 -4.4 -0.3
v -0.3 -4.2 -0.3
v -0.3 -1 -0.3
v -0.3 -0.8 -0.3
v -0.3 2.5 -0.3
v -0.3 2.7 -0.3
v -0.3 5.8 -0.3
v -0.3 6 -0.3
v -0.3 9.7 -0.3
v -0.3 9.8 -0.3
v -0.3 9.9 -0.3
v -0.3 13.2 -0.3
v -0.3 13.4 -0.3
v 0.7 -4.4 -0.3
v 0.7 -4.2 -0.3
v 0.7 -1 -0.3
v 0.7 -0.8 -0.3
v 0.7 2.5 -0.3
v 0.7 2.7 -0.3
v 0.7 5.8 -0.3
v 0.7 6 -0.3
v 0.7 9.7 -0.3
v 0.7 9.8 -0.3
v 0.7 9.9 -0.3
v 0.7 13.2 -0.3
v 0.7 13.4 -0.3
v -0.4 -8.8 -0.4
v -0.4 -4.4 -0.4
v -0.4 -4.2 -0.4
v -0.4 -1 -0.4
v -0.4 -0.8 -0.4
v -0.4 2.5 -0.4
v -0.4 2.7 -0.4
v -0.4 5.8 -0.4
v -0.4 6 -0.4
v -0.4 9.7 -0.4
v -0.4 9.9 -0.4
v -0.4 13.2 -0.4
v -0.4 13.4 -0.4
v -0.4 16.8 -0.4
v 0.8 -8.8 -0.4
v 0.8 -4.4 -0.4
v 0.8 -4.2 -0.4
v 0.8 -1 -0.4
v 0.8 -0.8 -0.4
v 0.8 2.5 -0.4
v 0.8 2.7 -0.4
v 0.8 5.8 -0.4
v 0.8 6 -0.4
v 0.8 9.7 -0.4
v 0.8 9.9 -0.4
v 0.8 13.2 -0.4
v 0.8 13.4 -0.4
v 0.8 16.8 -0.4
v -0.4 -8.8 0.8
v 0.8 -8.8 0.8
v -0.4 -8.8 -0.4
v 0.8 -8.8 -0.4
v -0.4 -4.2 0.8
v 0.8 -4.2 0.8
v -0.3 -4.2 0.7
v 0.7 -4.2 0.7
v -0.3 -4.2 -0.3
v 0.7 -4.2 -0.3
v -0.4 -4.2 -0.4
v 0.8 -4.2 -0.4
v -0.4 -0.8 0.8
v 0.8 -0.8 0.8
v -0.3 -0.8 0.7
v 0.7 -0.8 0.7
v -0.3 -0.8 -0.3
v 0.7 -0.8 -0.3
v -0.4 -0.8 -0.4
v 0.8 -0.8 -0.4
v -0.4 2.7 0.8
v 0.8 2.7 0.8
v -0.3 2.7 0.7
v 0.7 2.7 0.7
v -0.3 2.7 -0.3
v 0.7 2.7 -0.3
v -0.4 2.7 -0.4
v 0.8 2.7 -0.4
v -0.4 6 0.8
v 0.8 6 0.8
v -0.3 6 0.7
v 0.7 6 0.7
v -0.3 6 -0.3
v 0.7 6 -0.3
v -0.4 6 -0.4
v 0.8 6 -0.4
v -0.4 9.9 0.8
v 0.8 9.9 0.8
v -0.3 9.9 0.7
v 0.7 9.9 0.7
v -0.3 9.9 -0.3
v 0.7 9.9 -0.3
v -0.4 9.9 -0.4
v 0.8 9.9 -0.4
v -0.4 13.4 0.8
v 0.8 13.4 0.8
v -0.3 13.4 0.7
v 0.7 13.4 0.7
v -0.3 13.4 -0.3
v 0.7 13.4 -0.3
v -0.4 13.4 -0.4
v 0.8 13.4 -0.4
v -0.4 -4.4 0.8
v 0.8 -4.4 0.8
v -0.3 -4.4 0.7
v 0.7 -4.4 0.7
v -0.3 -4.4 -0.3
v 0.7 -4.4 -0.3
v -0.4 -4.4 -0.4
v 0.8 -4.4 -0.4
v -0.4 -1 0.8
v 0.8 -1 0.8
v -0.3 -1 0.7
v 0.7 -1 0.7
v -0.3 -1 -0.3
v 0.7 -1 -0.3
v -0.4 -1 -0.4
v 0.8 -1 -0.4
v -0.4 2.5 0.8
v 0.8 2.5 0.8
v -0.3 2.5 0.7
v 0.7 2.5 0.7
v -0.3 2.5 -0.3
v 0.7 2.5 -0.3
v -0.4 2.5 -0.4
v 0.8 2.5 -0.4
v -0.4 5.8 0.8
v 0.8 5.8 0.8
v -0.3 5.8 0.7
v 0.7 5.8 0.7
v -0.3 5.8 -0.3
v 0.7 5.8 -0.3
v -0.4 5.8 -0.4
v 0.8 5.8 -0.4
v -0.4 9.7 0.8
v 0.8 9.7 0.8
v -0.3 9.7 0.7
v 0.7 9.7 0.7
v -0.3 9.7 0.1
v 0.7 9.7 0.1
v -0.3 9.7 -0.3
v 0.7 9.7 -0.3
v -0.4 9.7 -0.4
v 0.8 9.7 -0.4
v -0.4 13.2 0.8
v 0.8 13.2 0.8
v -0.3 13.2 0.7
v 0.7 13.2 0.7
v -0.3 13.2 0.6
v 0.7 13.2 0.6
v -0.3 13.2 -0.3
v 0.7 13.2 -0.3
v -0.4 13.2 -0.4
v 0.8 13.2 -0.4
v -0.4 16.8 0.8
v 0.8 16.8 0.8
v -0.4 16.8 -0.4
v 0.8 16.8 -0.4

# faces
f 3/1/1 2/1/1 1/1/1
f 4/1/1 2/1/1 3/1/1
f 7/1/1 6/1/1 5/1/1
f 8/1/1 6/1/1 7/1/1
f 11/1/1 10/1/1 9/1/1
f 12/1/1 10/1/1 11/1/1
f 15/1/1 14/1/1 13/1/1
f 16/1/1 14/1/1 15/1/1
f 19/1/1 18/1/1 17/1/1
f 20/1/1 18/1/1 19/1/1
f 23/1/1 22/1/1 21/1/1
f 24/1/1 22/1/1 23/1/1
f 27/1/1 26/1/1 25/1/1
f 28/1/1 26/1/1 27/1/1
f 31/2/1 30/2/1 29/2/1
f 32/2/1 30/2/1 31/2/1
f 35/2/1 34/2/1 33/2/1
f 36/2/1 34/2/1 35/2/1
f 39/2/1 38/2/1 37/2/1
f 40/2/1 38/2/1 39/2/1
f 43/2/1 42/2/1 41/2/1
f 44/2/1 42/2/1 43/2/1
f 48/2/1 46/2/1 45/2/1
f 48/1/1 47/1/1 46/1/1
f 49/1/1 47/1/1 48/1/1
f 50/2/1 48/2/1 45/2/1
f 50/2/1 49/2/1 48/2/1
f 51/2/1 49/2/1 50/2/1
f 55/1/1 53/1/1 52/1/1
f 56/2/1 54/2/1 53/2/1
f 56/1/1 53/1/1 55/1/1
f 57/2/1 56/2/1 55/2/1
f 58/2/1 54/2/1 56/2/1
f 58/2/1 56/2/1 57/2/1
f 59/2/2 60/2/2 61/2/2
f 61/2/2 60/2/2 62/2/2
f 63/2/2 64/2/2 65/2/2
f 65/2/2 64/2/2 66/2/2
f 67/2/2 68/2/2 69/2/2
f 69/2/2 68/2/2 70/2/2
f 71/2/2 72/2/2 73/2/2
f 73/2/2 72/2/2 74/2/2
f 75/2/2 76/2/2 78/2/2
f 76/1/2 77/1/2 78/1/2
f 78/1/2 77/1/2 79/1/2
f 75/2/2 78/2/2 80/2/2
f 78/2/2 79/2/2 80/2/2
f 80/2/2 79/2/2 81/2/2
f 82/1/2 83/1/2 85/1/2
f 83/2/2 84/2/2 86/2/2
f 85/1/2 83/1/2 86/1/2
f 85/2/2 86/2/2 87/2/2
f 86/2/2 84/2/2 88/2/2
f 87/2/2 86/2/2 88/2/2
f 89/1/2 90/1/2 91/1/2
f 91/1/2 90/1/2 92/1/2
f 93/1/2 94/1/2 95/1/2
f 95/1/2 94/1/2 96/1/2
f 97/1/2 98/1/2 99/1/2
f 99/1/2 98/1/2 100/1/2
f 101/1/2 102/1/2 103/1/2
f 103/1/2 102/1/2 104/1/2
f 105/1/2 106/1/2 107/1/2
f 107/1/2 106/1/2 108/1/2
f 109/1/2 110/1/2 111/1/2
f 111/1/2 110/1/2 112/1/2
f 113/1/2 114/1/2 115/1/2
f 115/1/2 114/1/2 116/1/2
f 131/1/3 118/1/3 117/1/3
f 132/1/3 118/1/3 131/1/3
f 133/1/3 120/1/3 119/1/3
f 134/1/3 120/1/3 133/1/3
f 135/1/3 122/1/3 121/1/3
f 136/1/3 122/1/3 135/1/3
f 137/1/3 124/1/3 123/1/3
f 138/1/3 124/1/3 137/1/3
f 139/1/3 126/1/3 125/1/3
f 140/1/3 126/1/3 139/1/3
f 141/1/3 128/1/3 127/1/3
f 142/1/3 128/1/3 141/1/3
f 143/1/3 130/1/3 129/1/3
f 144/1/3 130/1/3 143/1/3
f 158/2/3 146/2/3 145/2/3
f 159/2/3 146/2/3 158/2/3
f 160/2/3 148/2/3 147/2/3
f 161/2/3 148/2/3 160/2/3
f 162/2/3 150/2/3 149/2/3
f 163/2/3 150/2/3 162/2/3
f 164/2/3 152/2/3 151/2/3
f 165/2/3 152/2/3 164/2/3
f 166/2/3 154/2/3 153/2/3
f 167/2/3 154/2/3 166/2/3
f 168/1/3 156/1/3 155/1/3
f 169/2/3 157/2/3 156/2/3
f 169/1/3 156/1/3 168/1/3
f 170/2/3 157/2/3 169/2/3
f 171/2/4 172/2/4 184/2/4
f 184/2/4 172/2/4 185/2/4
f 173/2/4 174/2/4 186/2/4
f 186/2/4 174/2/4 187/2/4
f 175/2/4 176/2/4 188/2/4
f 188/2/4 176/2/4 189/2/4
f 177/2/4 178/2/4 190/2/4
f 190/2/4 178/2/4 191/2/4
f 179/1/4 180/1/4 192/1/4
f 180/2/4 181/2/4 193/2/4
f 192/1/4 180/1/4 193/1/4
f 193/2/4 181/2/4 194/2/4
f 182/2/4 183/2/4 195/2/4
f 195/2/4 183/2/4 196/2/4
f 197/1/4 198/1/4 211/1/4
f 211/1/4 198/1/4 212/1/4
f 199/1/4 200/1/4 213/1/4
f 213/1/4 200/1/4 214/1/4
f 201/1/4 202/1/4 215/1/4
f 215/1/4 202/1/4 216/1/4
f 203/1/4 204/1/4 217/1/4
f 217/1/4 204/1/4 218/1/4
f 205/1/4 206/1/4 219/1/4
f 219/1/4 206/1/4 220/1/4
f 207/1/4 208/1/4 221/1/4
f 221/1/4 208/1/4 222/1/4
f 209/1/4 210/1/4 223/1/4
f 223/1/4 210/1/4 224/1/4
f 227/1/5 226/1/5 225/1/5
f 228/1/5 226/1/5 227/1/5
f 231/1/5 230/1/5 229/1/5
f 232/1/5 230/1/5 231/1/5
f 233/1/5 231/1/5 229/1/5
f 234/1/5 230/1/5 232/1/5
f 235/1/5 233/1/5 229/1/5
f 235/1/5 234/1/5 233/1/5
f 236/1/5 230/1/5 234/1/5
f 236/1/5 234/1/5 235/1/5
f 239/1/5 238/1/5 237/1/5
f 240/1/5 238/1/5 239/1/5
f 241/1/5 239/1/5 237/1/5
f 242/1/5 238/1/5 240/1/5
f 243/1/5 241/1/5 237/1/5
f 243/1/5 242/1/5 241/1/5
f 244/1/5 238/1/5 242/1/5
f 244/1/5 242/1/5 243/1/5
f 247/1/5 246/1/5 245/1/5
f 248/1/5 246/1/5 247/1/5
f 249/1/5 247/1/5 245/1/5
f 250/1/5 246/1/5 248/1/5
f 251/1/5 249/1/5 245/1/5
f 251/1/5 250/1/5 249/1/5
f 252/1/5 246/1/5 250/1/5
f 252/1/5 250/1/5 251/1/5
f 255/1/5 254/1/5 253/1/5
f 256/1/5 254/1/5 255/1/5
f 257/1/5 255/1/5 253/1/5
f 258/1/5 254/1/5 256/1/5
f 259/1/5 257/1/5 253/1/5
f 259/1/5 258/1/5 257/1/5
f 260/1/5 254/1/5 258/1/5
f 260/1/5 258/1/5 259/1/5
f 263/1/5 262/1/5 261/1/5
f 264/1/5 262/1/5 263/1/5
f 265/1/5 263/1/5 261/1/5
f 266/1/5 262/1/5 264/1/5
f 267/1/5 265/1/5 261/1/5
f 267/1/5 266/1/5 265/1/5
f 268/1/5 262/1/5 266/1/5
f 268/1/5 266/1/5 267/1/5
f 271/1/5 270/1/5 269/1/5
f 272/1/5 270/1/5 271/1/5
f 273/1/5 271/1/5 269/1/5
f 274/1/5 270/1/5 272/1/5
f 275/1/5 273/1/5 269/1/5
f 275/1/5 274/1/5 273/1/5
f 276/1/5 270/1/5 274/1/5
f 276/1/5 274/1/5 275/1/5
f 277/1/6 278/1/6 279/1/6
f 279/1/6 278/1/6 280/1/6
f 277/1/6 279/1/6 281/1/6
f 280/1/6 278/1/6 282/1/6
f 277/1/6 281/1/6 283/1/6
f 281/1/6 282/1/6 283/1/6
f 282/1/6 278/1/6 284/1/6
f 283/1/6 282/1/6 284/1/6
f 285/1/6 286/1/6 287/1/6
f 287/1/6 286/1/6 288/1/6
f 285/1/6 287/1/6 289/1/6
f 288/1/6 286/1/6 290/1/6
f 285/1/6 289/1/6 291/1/6
f 289/1/6 290/1/6 291/1/6
f 290/1/6 286/1/6 292/1/6
f 291/1/6 290/1/6 292/1/6
f 293/1/6 294/1/6 295/1/6
f 295/1/6 294/1/6 296/1/6
f 293/1/6 295/1/6 297/1/6
f 296/1/6 294/1/6 298/1/6
f 293/1/6 297/1/6 299/1/6
f 297/1/6 298/1/6 299/1/6
f 298/1/6 294/1/6 300/1/6
f 299/1/6 298/1/6 300/1/6
f 301/1/6 302/1/6 303/1/6
f 303/1/6 302/1/6 304/1/6
f 301/1/6 303/1/6 305/1/6
f 304/1/6 302/1/6 306/1/6
f 301/1/6 305/1/6 307/1/6
f 305/1/6 306/1/6 307/1/6
f 306/1/6 302/1/6 308/1/6
f 307/1/6 306/1/6 308/1/6
f 309/1/6 310/1/6 311/1/6
f 311/1/6 310/1/6 312/1/6
f 309/1/6 311/1/6 313/1/6
f 312/1/6 310/1/6 314/1/6
f 309/1/6 313/1/6 315/1/6
f 314/1/6 310/1/6 316/1/6
f 309/1/6 315/1/6 317/1/6
f 315/1/6 316/1/6 317/1/6
f 316/1/6 310/1/6 318/1/6
f 317/1/6 316/1/6 318/1/6
f 319/1/6 320/1/6 321/1/6
f 321/1/6 320/1/6 322/1/6
f 319/1/6 321/1/6 323/1/6
f 322/1/6 320/1/6 324/1/6
f 319/1/6 323/1/6 325/1/6
f 324/1/6 320/1/6 326/1/6
f 319/1/6 325/1/6 327/1/6
f 325/1/6 326/1/6 327/1/6
f 326/1/6 320/1/6 328/1/6
f 327/1/6 326/1/6 328/1/6
f 329/1/6 330/1/6 331/1/6
f 331/1/6 330/1/6 332/1/6
